ISO-10303-21;
HEADER;
/* Generated by software containing ST-Developer
 * from STEP Tools, Inc. (www.steptools.com) 
 */

FILE_DESCRIPTION(
/* description */ (''),
/* implementation_level */ '2;1');

FILE_NAME(
/* name */ 'Fixed Jaw (M4).stp',
/* time_stamp */ '2026-08-02T01:50:26-04:00',
/* author */ ('JoshuaEah'),
/* organization */ (''),
/* preprocessor_version */ 'ST-DEVELOPER v20.1',
/* originating_system */ 'Autodesk Inventor 2026',
/* authorisation */ '');

FILE_SCHEMA (('AUTOMOTIVE_DESIGN { 1 0 10303 214 3 1 1 }'));
ENDSEC;

DATA;
#10=MECHANICAL_DESIGN_GEOMETRIC_PRESENTATION_REPRESENTATION('',(#13),#1226);
#11=SHAPE_REPRESENTATION_RELATIONSHIP('SRR','None',#1237,#12);
#12=ADVANCED_BREP_SHAPE_REPRESENTATION('',(#14),#1225);
#13=STYLED_ITEM('',(#1246),#14);
#14=MANIFOLD_SOLID_BREP('Solid1',#746);
#15=CONICAL_SURFACE('',#786,0.177185039370079,0.785398163397449);
#16=CYLINDRICAL_SURFACE('',#782,0.0845);
#17=CYLINDRICAL_SURFACE('',#785,0.0845);
#18=CYLINDRICAL_SURFACE('',#791,0.1575);
#19=FACE_BOUND('',#87,.T.);
#20=FACE_BOUND('',#89,.T.);
#21=FACE_BOUND('',#98,.T.);
#22=FACE_BOUND('',#129,.T.);
#23=FACE_BOUND('',#130,.T.);
#24=FACE_BOUND('',#132,.T.);
#25=CIRCLE('',#775,0.0845);
#26=CIRCLE('',#777,0.0845);
#27=CIRCLE('',#783,0.0845);
#28=CIRCLE('',#784,0.0845);
#29=CIRCLE('',#787,0.196870078740157);
#30=CIRCLE('',#788,0.1575);
#31=CIRCLE('',#789,0.1575);
#32=CIRCLE('',#792,0.1575);
#33=FACE_OUTER_BOUND('',#80,.T.);
#34=FACE_OUTER_BOUND('',#81,.T.);
#35=FACE_OUTER_BOUND('',#82,.T.);
#36=FACE_OUTER_BOUND('',#83,.T.);
#37=FACE_OUTER_BOUND('',#84,.T.);
#38=FACE_OUTER_BOUND('',#85,.T.);
#39=FACE_OUTER_BOUND('',#86,.T.);
#40=FACE_OUTER_BOUND('',#88,.T.);
#41=FACE_OUTER_BOUND('',#90,.T.);
#42=FACE_OUTER_BOUND('',#91,.T.);
#43=FACE_OUTER_BOUND('',#92,.T.);
#44=FACE_OUTER_BOUND('',#93,.T.);
#45=FACE_OUTER_BOUND('',#94,.T.);
#46=FACE_OUTER_BOUND('',#95,.T.);
#47=FACE_OUTER_BOUND('',#96,.T.);
#48=FACE_OUTER_BOUND('',#97,.T.);
#49=FACE_OUTER_BOUND('',#99,.T.);
#50=FACE_OUTER_BOUND('',#100,.T.);
#51=FACE_OUTER_BOUND('',#101,.T.);
#52=FACE_OUTER_BOUND('',#102,.T.);
#53=FACE_OUTER_BOUND('',#103,.T.);
#54=FACE_OUTER_BOUND('',#104,.T.);
#55=FACE_OUTER_BOUND('',#105,.T.);
#56=FACE_OUTER_BOUND('',#106,.T.);
#57=FACE_OUTER_BOUND('',#107,.T.);
#58=FACE_OUTER_BOUND('',#108,.T.);
#59=FACE_OUTER_BOUND('',#109,.T.);
#60=FACE_OUTER_BOUND('',#110,.T.);
#61=FACE_OUTER_BOUND('',#111,.T.);
#62=FACE_OUTER_BOUND('',#112,.T.);
#63=FACE_OUTER_BOUND('',#113,.T.);
#64=FACE_OUTER_BOUND('',#114,.T.);
#65=FACE_OUTER_BOUND('',#115,.T.);
#66=FACE_OUTER_BOUND('',#116,.T.);
#67=FACE_OUTER_BOUND('',#117,.T.);
#68=FACE_OUTER_BOUND('',#118,.T.);
#69=FACE_OUTER_BOUND('',#119,.T.);
#70=FACE_OUTER_BOUND('',#120,.T.);
#71=FACE_OUTER_BOUND('',#121,.T.);
#72=FACE_OUTER_BOUND('',#122,.T.);
#73=FACE_OUTER_BOUND('',#123,.T.);
#74=FACE_OUTER_BOUND('',#124,.T.);
#75=FACE_OUTER_BOUND('',#125,.T.);
#76=FACE_OUTER_BOUND('',#126,.T.);
#77=FACE_OUTER_BOUND('',#127,.T.);
#78=FACE_OUTER_BOUND('',#128,.T.);
#79=FACE_OUTER_BOUND('',#131,.T.);
#80=EDGE_LOOP('',(#462,#463,#464,#465));
#81=EDGE_LOOP('',(#466,#467,#468,#469));
#82=EDGE_LOOP('',(#470,#471,#472,#473));
#83=EDGE_LOOP('',(#474,#475,#476,#477));
#84=EDGE_LOOP('',(#478,#479,#480,#481));
#85=EDGE_LOOP('',(#482,#483,#484,#485));
#86=EDGE_LOOP('',(#486,#487,#488,#489,#490,#491));
#87=EDGE_LOOP('',(#492));
#88=EDGE_LOOP('',(#493,#494,#495,#496));
#89=EDGE_LOOP('',(#497));
#90=EDGE_LOOP('',(#498,#499,#500,#501,#502,#503));
#91=EDGE_LOOP('',(#504,#505,#506,#507));
#92=EDGE_LOOP('',(#508,#509,#510,#511));
#93=EDGE_LOOP('',(#512,#513,#514,#515));
#94=EDGE_LOOP('',(#516,#517,#518,#519));
#95=EDGE_LOOP('',(#520,#521,#522,#523));
#96=EDGE_LOOP('',(#524,#525,#526,#527,#528));
#97=EDGE_LOOP('',(#529,#530,#531,#532));
#98=EDGE_LOOP('',(#533));
#99=EDGE_LOOP('',(#534,#535,#536,#537,#538));
#100=EDGE_LOOP('',(#539,#540,#541));
#101=EDGE_LOOP('',(#542,#543,#544));
#102=EDGE_LOOP('',(#545,#546,#547,#548));
#103=EDGE_LOOP('',(#549,#550,#551));
#104=EDGE_LOOP('',(#552,#553,#554));
#105=EDGE_LOOP('',(#555,#556,#557));
#106=EDGE_LOOP('',(#558,#559,#560));
#107=EDGE_LOOP('',(#561,#562,#563,#564));
#108=EDGE_LOOP('',(#565,#566,#567));
#109=EDGE_LOOP('',(#568,#569,#570,#571));
#110=EDGE_LOOP('',(#572,#573,#574));
#111=EDGE_LOOP('',(#575,#576,#577));
#112=EDGE_LOOP('',(#578,#579,#580));
#113=EDGE_LOOP('',(#581,#582,#583,#584));
#114=EDGE_LOOP('',(#585,#586,#587,#588));
#115=EDGE_LOOP('',(#589,#590,#591,#592));
#116=EDGE_LOOP('',(#593,#594,#595,#596));
#117=EDGE_LOOP('',(#597,#598,#599,#600));
#118=EDGE_LOOP('',(#601,#602,#603,#604));
#119=EDGE_LOOP('',(#605,#606,#607,#608));
#120=EDGE_LOOP('',(#609,#610,#611,#612));
#121=EDGE_LOOP('',(#613,#614,#615,#616));
#122=EDGE_LOOP('',(#617,#618,#619,#620));
#123=EDGE_LOOP('',(#621,#622,#623,#624));
#124=EDGE_LOOP('',(#625,#626,#627,#628));
#125=EDGE_LOOP('',(#629,#630,#631,#632));
#126=EDGE_LOOP('',(#633,#634,#635,#636));
#127=EDGE_LOOP('',(#637,#638,#639,#640,#641,#642));
#128=EDGE_LOOP('',(#643,#644,#645,#646));
#129=EDGE_LOOP('',(#647,#648,#649,#650,#651,#652));
#130=EDGE_LOOP('',(#653));
#131=EDGE_LOOP('',(#654));
#132=EDGE_LOOP('',(#655));
#133=LINE('',#1028,#222);
#134=LINE('',#1030,#223);
#135=LINE('',#1032,#224);
#136=LINE('',#1033,#225);
#137=LINE('',#1036,#226);
#138=LINE('',#1038,#227);
#139=LINE('',#1039,#228);
#140=LINE('',#1042,#229);
#141=LINE('',#1044,#230);
#142=LINE('',#1045,#231);
#143=LINE('',#1048,#232);
#144=LINE('',#1050,#233);
#145=LINE('',#1051,#234);
#146=LINE('',#1054,#235);
#147=LINE('',#1056,#236);
#148=LINE('',#1057,#237);
#149=LINE('',#1059,#238);
#150=LINE('',#1060,#239);
#151=LINE('',#1067,#240);
#152=LINE('',#1069,#241);
#153=LINE('',#1071,#242);
#154=LINE('',#1072,#243);
#155=LINE('',#1078,#244);
#156=LINE('',#1080,#245);
#157=LINE('',#1082,#246);
#158=LINE('',#1084,#247);
#159=LINE('',#1086,#248);
#160=LINE('',#1087,#249);
#161=LINE('',#1091,#250);
#162=LINE('',#1092,#251);
#163=LINE('',#1093,#252);
#164=LINE('',#1097,#253);
#165=LINE('',#1098,#254);
#166=LINE('',#1099,#255);
#167=LINE('',#1103,#256);
#168=LINE('',#1104,#257);
#169=LINE('',#1105,#258);
#170=LINE('',#1110,#259);
#171=LINE('',#1113,#260);
#172=LINE('',#1118,#261);
#173=LINE('',#1125,#262);
#174=LINE('',#1127,#263);
#175=LINE('',#1129,#264);
#176=LINE('',#1130,#265);
#177=LINE('',#1133,#266);
#178=LINE('',#1138,#267);
#179=LINE('',#1140,#268);
#180=LINE('',#1141,#269);
#181=LINE('',#1144,#270);
#182=LINE('',#1146,#271);
#183=LINE('',#1147,#272);
#184=LINE('',#1149,#273);
#185=LINE('',#1150,#274);
#186=LINE('',#1153,#275);
#187=LINE('',#1154,#276);
#188=LINE('',#1157,#277);
#189=LINE('',#1159,#278);
#190=LINE('',#1160,#279);
#191=LINE('',#1163,#280);
#192=LINE('',#1165,#281);
#193=LINE('',#1166,#282);
#194=LINE('',#1169,#283);
#195=LINE('',#1170,#284);
#196=LINE('',#1171,#285);
#197=LINE('',#1173,#286);
#198=LINE('',#1175,#287);
#199=LINE('',#1176,#288);
#200=LINE('',#1179,#289);
#201=LINE('',#1180,#290);
#202=LINE('',#1183,#291);
#203=LINE('',#1184,#292);
#204=LINE('',#1186,#293);
#205=LINE('',#1188,#294);
#206=LINE('',#1189,#295);
#207=LINE('',#1191,#296);
#208=LINE('',#1192,#297);
#209=LINE('',#1194,#298);
#210=LINE('',#1196,#299);
#211=LINE('',#1199,#300);
#212=LINE('',#1202,#301);
#213=LINE('',#1204,#302);
#214=LINE('',#1206,#303);
#215=LINE('',#1208,#304);
#216=LINE('',#1209,#305);
#217=LINE('',#1211,#306);
#218=LINE('',#1213,#307);
#219=LINE('',#1214,#308);
#220=LINE('',#1216,#309);
#221=LINE('',#1217,#310);
#222=VECTOR('',#827,0.393700787401575);
#223=VECTOR('',#828,0.393700787401575);
#224=VECTOR('',#829,0.393700787401575);
#225=VECTOR('',#830,0.393700787401575);
#226=VECTOR('',#833,0.393700787401575);
#227=VECTOR('',#834,0.393700787401575);
#228=VECTOR('',#835,0.393700787401575);
#229=VECTOR('',#838,0.393700787401575);
#230=VECTOR('',#839,0.393700787401575);
#231=VECTOR('',#840,0.393700787401575);
#232=VECTOR('',#843,0.393700787401575);
#233=VECTOR('',#844,0.393700787401575);
#234=VECTOR('',#845,0.393700787401575);
#235=VECTOR('',#848,0.393700787401575);
#236=VECTOR('',#849,0.393700787401575);
#237=VECTOR('',#850,0.393700787401575);
#238=VECTOR('',#853,0.393700787401575);
#239=VECTOR('',#854,0.393700787401575);
#240=VECTOR('',#861,0.393700787401575);
#241=VECTOR('',#862,0.393700787401575);
#242=VECTOR('',#863,0.393700787401575);
#243=VECTOR('',#864,0.393700787401575);
#244=VECTOR('',#869,0.393700787401575);
#245=VECTOR('',#870,0.393700787401575);
#246=VECTOR('',#871,0.393700787401575);
#247=VECTOR('',#872,0.393700787401575);
#248=VECTOR('',#873,0.393700787401575);
#249=VECTOR('',#874,0.393700787401575);
#250=VECTOR('',#877,0.393700787401575);
#251=VECTOR('',#878,0.393700787401575);
#252=VECTOR('',#879,0.393700787401575);
#253=VECTOR('',#882,0.393700787401575);
#254=VECTOR('',#883,0.393700787401575);
#255=VECTOR('',#884,0.393700787401575);
#256=VECTOR('',#887,0.393700787401575);
#257=VECTOR('',#888,0.393700787401575);
#258=VECTOR('',#889,0.393700787401575);
#259=VECTOR('',#894,0.0845);
#260=VECTOR('',#899,0.0845);
#261=VECTOR('',#904,0.177185039370079);
#262=VECTOR('',#911,0.393700787401575);
#263=VECTOR('',#912,0.393700787401575);
#264=VECTOR('',#913,0.393700787401575);
#265=VECTOR('',#914,0.393700787401575);
#266=VECTOR('',#917,0.1575);
#267=VECTOR('',#922,0.393700787401575);
#268=VECTOR('',#923,0.393700787401575);
#269=VECTOR('',#924,0.393700787401575);
#270=VECTOR('',#927,0.393700787401575);
#271=VECTOR('',#928,0.393700787401575);
#272=VECTOR('',#929,0.393700787401575);
#273=VECTOR('',#932,0.393700787401575);
#274=VECTOR('',#933,0.393700787401575);
#275=VECTOR('',#936,0.393700787401575);
#276=VECTOR('',#937,0.393700787401575);
#277=VECTOR('',#940,0.393700787401575);
#278=VECTOR('',#941,0.393700787401575);
#279=VECTOR('',#942,0.393700787401575);
#280=VECTOR('',#945,0.393700787401575);
#281=VECTOR('',#946,0.393700787401575);
#282=VECTOR('',#947,0.393700787401575);
#283=VECTOR('',#950,0.393700787401575);
#284=VECTOR('',#951,0.393700787401575);
#285=VECTOR('',#952,0.393700787401575);
#286=VECTOR('',#955,0.393700787401575);
#287=VECTOR('',#958,0.393700787401575);
#288=VECTOR('',#959,0.393700787401575);
#289=VECTOR('',#962,0.393700787401575);
#290=VECTOR('',#963,0.393700787401575);
#291=VECTOR('',#966,0.393700787401575);
#292=VECTOR('',#967,0.393700787401575);
#293=VECTOR('',#970,0.393700787401575);
#294=VECTOR('',#971,0.393700787401575);
#295=VECTOR('',#972,0.393700787401575);
#296=VECTOR('',#975,0.393700787401575);
#297=VECTOR('',#976,0.393700787401575);
#298=VECTOR('',#979,0.393700787401575);
#299=VECTOR('',#982,0.393700787401575);
#300=VECTOR('',#987,0.393700787401575);
#301=VECTOR('',#992,0.393700787401575);
#302=VECTOR('',#995,0.393700787401575);
#303=VECTOR('',#998,0.393700787401575);
#304=VECTOR('',#1001,0.393700787401575);
#305=VECTOR('',#1002,0.393700787401575);
#306=VECTOR('',#1005,0.393700787401575);
#307=VECTOR('',#1008,0.393700787401575);
#308=VECTOR('',#1009,0.393700787401575);
#309=VECTOR('',#1012,0.393700787401575);
#310=VECTOR('',#1013,0.393700787401575);
#311=VERTEX_POINT('',#1026);
#312=VERTEX_POINT('',#1027);
#313=VERTEX_POINT('',#1029);
#314=VERTEX_POINT('',#1031);
#315=VERTEX_POINT('',#1035);
#316=VERTEX_POINT('',#1037);
#317=VERTEX_POINT('',#1041);
#318=VERTEX_POINT('',#1043);
#319=VERTEX_POINT('',#1047);
#320=VERTEX_POINT('',#1049);
#321=VERTEX_POINT('',#1053);
#322=VERTEX_POINT('',#1055);
#323=VERTEX_POINT('',#1062);
#324=VERTEX_POINT('',#1065);
#325=VERTEX_POINT('',#1066);
#326=VERTEX_POINT('',#1068);
#327=VERTEX_POINT('',#1070);
#328=VERTEX_POINT('',#1073);
#329=VERTEX_POINT('',#1076);
#330=VERTEX_POINT('',#1077);
#331=VERTEX_POINT('',#1079);
#332=VERTEX_POINT('',#1081);
#333=VERTEX_POINT('',#1083);
#334=VERTEX_POINT('',#1085);
#335=VERTEX_POINT('',#1089);
#336=VERTEX_POINT('',#1090);
#337=VERTEX_POINT('',#1095);
#338=VERTEX_POINT('',#1096);
#339=VERTEX_POINT('',#1101);
#340=VERTEX_POINT('',#1102);
#341=VERTEX_POINT('',#1107);
#342=VERTEX_POINT('',#1109);
#343=VERTEX_POINT('',#1115);
#344=VERTEX_POINT('',#1117);
#345=VERTEX_POINT('',#1119);
#346=VERTEX_POINT('',#1123);
#347=VERTEX_POINT('',#1124);
#348=VERTEX_POINT('',#1126);
#349=VERTEX_POINT('',#1128);
#350=VERTEX_POINT('',#1132);
#351=VERTEX_POINT('',#1136);
#352=VERTEX_POINT('',#1137);
#353=VERTEX_POINT('',#1139);
#354=VERTEX_POINT('',#1143);
#355=VERTEX_POINT('',#1145);
#356=VERTEX_POINT('',#1152);
#357=VERTEX_POINT('',#1156);
#358=VERTEX_POINT('',#1158);
#359=VERTEX_POINT('',#1162);
#360=VERTEX_POINT('',#1164);
#361=VERTEX_POINT('',#1168);
#362=VERTEX_POINT('',#1178);
#363=VERTEX_POINT('',#1182);
#364=VERTEX_POINT('',#1187);
#365=EDGE_CURVE('',#311,#312,#133,.T.);
#366=EDGE_CURVE('',#313,#312,#134,.F.);
#367=EDGE_CURVE('',#314,#313,#135,.T.);
#368=EDGE_CURVE('',#314,#311,#136,.F.);
#369=EDGE_CURVE('',#315,#311,#137,.T.);
#370=EDGE_CURVE('',#316,#314,#138,.T.);
#371=EDGE_CURVE('',#315,#316,#139,.T.);
#372=EDGE_CURVE('',#317,#315,#140,.T.);
#373=EDGE_CURVE('',#318,#316,#141,.T.);
#374=EDGE_CURVE('',#318,#317,#142,.F.);
#375=EDGE_CURVE('',#319,#317,#143,.T.);
#376=EDGE_CURVE('',#320,#318,#144,.T.);
#377=EDGE_CURVE('',#320,#319,#145,.T.);
#378=EDGE_CURVE('',#321,#319,#146,.T.);
#379=EDGE_CURVE('',#322,#320,#147,.T.);
#380=EDGE_CURVE('',#322,#321,#148,.F.);
#381=EDGE_CURVE('',#312,#321,#149,.T.);
#382=EDGE_CURVE('',#313,#322,#150,.T.);
#383=EDGE_CURVE('',#323,#323,#25,.T.);
#384=EDGE_CURVE('',#324,#325,#151,.T.);
#385=EDGE_CURVE('',#324,#326,#152,.T.);
#386=EDGE_CURVE('',#327,#326,#153,.T.);
#387=EDGE_CURVE('',#325,#327,#154,.T.);
#388=EDGE_CURVE('',#328,#328,#26,.T.);
#389=EDGE_CURVE('',#329,#330,#155,.T.);
#390=EDGE_CURVE('',#331,#329,#156,.T.);
#391=EDGE_CURVE('',#332,#331,#157,.T.);
#392=EDGE_CURVE('',#333,#332,#158,.T.);
#393=EDGE_CURVE('',#334,#333,#159,.T.);
#394=EDGE_CURVE('',#330,#334,#160,.T.);
#395=EDGE_CURVE('',#335,#336,#161,.T.);
#396=EDGE_CURVE('',#336,#329,#162,.T.);
#397=EDGE_CURVE('',#330,#335,#163,.T.);
#398=EDGE_CURVE('',#337,#338,#164,.T.);
#399=EDGE_CURVE('',#336,#337,#165,.T.);
#400=EDGE_CURVE('',#338,#335,#166,.T.);
#401=EDGE_CURVE('',#339,#340,#167,.T.);
#402=EDGE_CURVE('',#340,#337,#168,.T.);
#403=EDGE_CURVE('',#338,#339,#169,.T.);
#404=EDGE_CURVE('',#341,#341,#27,.T.);
#405=EDGE_CURVE('',#341,#342,#170,.T.);
#406=EDGE_CURVE('',#342,#342,#28,.T.);
#407=EDGE_CURVE('',#328,#323,#171,.T.);
#408=EDGE_CURVE('',#343,#343,#29,.T.);
#409=EDGE_CURVE('',#343,#344,#172,.T.);
#410=EDGE_CURVE('',#344,#345,#30,.T.);
#411=EDGE_CURVE('',#345,#344,#31,.T.);
#412=EDGE_CURVE('',#346,#347,#173,.T.);
#413=EDGE_CURVE('',#348,#346,#174,.T.);
#414=EDGE_CURVE('',#349,#348,#175,.T.);
#415=EDGE_CURVE('',#347,#349,#176,.T.);
#416=EDGE_CURVE('',#345,#350,#177,.T.);
#417=EDGE_CURVE('',#350,#350,#32,.T.);
#418=EDGE_CURVE('',#351,#352,#178,.T.);
#419=EDGE_CURVE('',#353,#351,#179,.T.);
#420=EDGE_CURVE('',#352,#353,#180,.T.);
#421=EDGE_CURVE('',#354,#348,#181,.T.);
#422=EDGE_CURVE('',#355,#354,#182,.T.);
#423=EDGE_CURVE('',#348,#355,#183,.T.);
#424=EDGE_CURVE('',#354,#353,#184,.T.);
#425=EDGE_CURVE('',#351,#355,#185,.T.);
#426=EDGE_CURVE('',#339,#356,#186,.T.);
#427=EDGE_CURVE('',#356,#338,#187,.T.);
#428=EDGE_CURVE('',#334,#357,#188,.T.);
#429=EDGE_CURVE('',#358,#334,#189,.T.);
#430=EDGE_CURVE('',#357,#358,#190,.T.);
#431=EDGE_CURVE('',#359,#346,#191,.T.);
#432=EDGE_CURVE('',#360,#359,#192,.T.);
#433=EDGE_CURVE('',#346,#360,#193,.T.);
#434=EDGE_CURVE('',#361,#349,#194,.T.);
#435=EDGE_CURVE('',#333,#361,#195,.T.);
#436=EDGE_CURVE('',#349,#333,#196,.T.);
#437=EDGE_CURVE('',#361,#358,#197,.T.);
#438=EDGE_CURVE('',#325,#340,#198,.T.);
#439=EDGE_CURVE('',#337,#325,#199,.T.);
#440=EDGE_CURVE('',#340,#362,#200,.T.);
#441=EDGE_CURVE('',#362,#324,#201,.T.);
#442=EDGE_CURVE('',#335,#363,#202,.T.);
#443=EDGE_CURVE('',#363,#330,#203,.T.);
#444=EDGE_CURVE('',#332,#347,#204,.T.);
#445=EDGE_CURVE('',#364,#332,#205,.T.);
#446=EDGE_CURVE('',#347,#364,#206,.T.);
#447=EDGE_CURVE('',#327,#336,#207,.T.);
#448=EDGE_CURVE('',#329,#327,#208,.T.);
#449=EDGE_CURVE('',#326,#331,#209,.T.);
#450=EDGE_CURVE('',#326,#364,#210,.T.);
#451=EDGE_CURVE('',#364,#359,#211,.T.);
#452=EDGE_CURVE('',#357,#363,#212,.T.);
#453=EDGE_CURVE('',#363,#356,#213,.T.);
#454=EDGE_CURVE('',#355,#361,#214,.T.);
#455=EDGE_CURVE('',#362,#360,#215,.T.);
#456=EDGE_CURVE('',#359,#324,#216,.T.);
#457=EDGE_CURVE('',#360,#354,#217,.T.);
#458=EDGE_CURVE('',#352,#357,#218,.T.);
#459=EDGE_CURVE('',#358,#351,#219,.T.);
#460=EDGE_CURVE('',#356,#352,#220,.T.);
#461=EDGE_CURVE('',#353,#339,#221,.T.);
#462=ORIENTED_EDGE('',*,*,#365,.T.);
#463=ORIENTED_EDGE('',*,*,#366,.F.);
#464=ORIENTED_EDGE('',*,*,#367,.F.);
#465=ORIENTED_EDGE('',*,*,#368,.T.);
#466=ORIENTED_EDGE('',*,*,#369,.T.);
#467=ORIENTED_EDGE('',*,*,#368,.F.);
#468=ORIENTED_EDGE('',*,*,#370,.F.);
#469=ORIENTED_EDGE('',*,*,#371,.F.);
#470=ORIENTED_EDGE('',*,*,#372,.T.);
#471=ORIENTED_EDGE('',*,*,#371,.T.);
#472=ORIENTED_EDGE('',*,*,#373,.F.);
#473=ORIENTED_EDGE('',*,*,#374,.T.);
#474=ORIENTED_EDGE('',*,*,#375,.T.);
#475=ORIENTED_EDGE('',*,*,#374,.F.);
#476=ORIENTED_EDGE('',*,*,#376,.F.);
#477=ORIENTED_EDGE('',*,*,#377,.T.);
#478=ORIENTED_EDGE('',*,*,#378,.T.);
#479=ORIENTED_EDGE('',*,*,#377,.F.);
#480=ORIENTED_EDGE('',*,*,#379,.F.);
#481=ORIENTED_EDGE('',*,*,#380,.T.);
#482=ORIENTED_EDGE('',*,*,#381,.T.);
#483=ORIENTED_EDGE('',*,*,#380,.F.);
#484=ORIENTED_EDGE('',*,*,#382,.F.);
#485=ORIENTED_EDGE('',*,*,#366,.T.);
#486=ORIENTED_EDGE('',*,*,#372,.F.);
#487=ORIENTED_EDGE('',*,*,#375,.F.);
#488=ORIENTED_EDGE('',*,*,#378,.F.);
#489=ORIENTED_EDGE('',*,*,#381,.F.);
#490=ORIENTED_EDGE('',*,*,#365,.F.);
#491=ORIENTED_EDGE('',*,*,#369,.F.);
#492=ORIENTED_EDGE('',*,*,#383,.T.);
#493=ORIENTED_EDGE('',*,*,#384,.F.);
#494=ORIENTED_EDGE('',*,*,#385,.T.);
#495=ORIENTED_EDGE('',*,*,#386,.F.);
#496=ORIENTED_EDGE('',*,*,#387,.F.);
#497=ORIENTED_EDGE('',*,*,#388,.T.);
#498=ORIENTED_EDGE('',*,*,#389,.F.);
#499=ORIENTED_EDGE('',*,*,#390,.F.);
#500=ORIENTED_EDGE('',*,*,#391,.F.);
#501=ORIENTED_EDGE('',*,*,#392,.F.);
#502=ORIENTED_EDGE('',*,*,#393,.F.);
#503=ORIENTED_EDGE('',*,*,#394,.F.);
#504=ORIENTED_EDGE('',*,*,#395,.T.);
#505=ORIENTED_EDGE('',*,*,#396,.T.);
#506=ORIENTED_EDGE('',*,*,#389,.T.);
#507=ORIENTED_EDGE('',*,*,#397,.T.);
#508=ORIENTED_EDGE('',*,*,#398,.F.);
#509=ORIENTED_EDGE('',*,*,#399,.F.);
#510=ORIENTED_EDGE('',*,*,#395,.F.);
#511=ORIENTED_EDGE('',*,*,#400,.F.);
#512=ORIENTED_EDGE('',*,*,#401,.T.);
#513=ORIENTED_EDGE('',*,*,#402,.T.);
#514=ORIENTED_EDGE('',*,*,#398,.T.);
#515=ORIENTED_EDGE('',*,*,#403,.T.);
#516=ORIENTED_EDGE('',*,*,#404,.T.);
#517=ORIENTED_EDGE('',*,*,#405,.T.);
#518=ORIENTED_EDGE('',*,*,#406,.F.);
#519=ORIENTED_EDGE('',*,*,#405,.F.);
#520=ORIENTED_EDGE('',*,*,#388,.F.);
#521=ORIENTED_EDGE('',*,*,#407,.T.);
#522=ORIENTED_EDGE('',*,*,#383,.F.);
#523=ORIENTED_EDGE('',*,*,#407,.F.);
#524=ORIENTED_EDGE('',*,*,#408,.T.);
#525=ORIENTED_EDGE('',*,*,#409,.T.);
#526=ORIENTED_EDGE('',*,*,#410,.T.);
#527=ORIENTED_EDGE('',*,*,#411,.T.);
#528=ORIENTED_EDGE('',*,*,#409,.F.);
#529=ORIENTED_EDGE('',*,*,#412,.F.);
#530=ORIENTED_EDGE('',*,*,#413,.F.);
#531=ORIENTED_EDGE('',*,*,#414,.F.);
#532=ORIENTED_EDGE('',*,*,#415,.F.);
#533=ORIENTED_EDGE('',*,*,#408,.F.);
#534=ORIENTED_EDGE('',*,*,#410,.F.);
#535=ORIENTED_EDGE('',*,*,#411,.F.);
#536=ORIENTED_EDGE('',*,*,#416,.T.);
#537=ORIENTED_EDGE('',*,*,#417,.F.);
#538=ORIENTED_EDGE('',*,*,#416,.F.);
#539=ORIENTED_EDGE('',*,*,#418,.F.);
#540=ORIENTED_EDGE('',*,*,#419,.F.);
#541=ORIENTED_EDGE('',*,*,#420,.F.);
#542=ORIENTED_EDGE('',*,*,#421,.F.);
#543=ORIENTED_EDGE('',*,*,#422,.F.);
#544=ORIENTED_EDGE('',*,*,#423,.F.);
#545=ORIENTED_EDGE('',*,*,#422,.T.);
#546=ORIENTED_EDGE('',*,*,#424,.T.);
#547=ORIENTED_EDGE('',*,*,#419,.T.);
#548=ORIENTED_EDGE('',*,*,#425,.T.);
#549=ORIENTED_EDGE('',*,*,#426,.F.);
#550=ORIENTED_EDGE('',*,*,#403,.F.);
#551=ORIENTED_EDGE('',*,*,#427,.F.);
#552=ORIENTED_EDGE('',*,*,#428,.F.);
#553=ORIENTED_EDGE('',*,*,#429,.F.);
#554=ORIENTED_EDGE('',*,*,#430,.F.);
#555=ORIENTED_EDGE('',*,*,#431,.F.);
#556=ORIENTED_EDGE('',*,*,#432,.F.);
#557=ORIENTED_EDGE('',*,*,#433,.F.);
#558=ORIENTED_EDGE('',*,*,#434,.F.);
#559=ORIENTED_EDGE('',*,*,#435,.F.);
#560=ORIENTED_EDGE('',*,*,#436,.F.);
#561=ORIENTED_EDGE('',*,*,#435,.T.);
#562=ORIENTED_EDGE('',*,*,#437,.T.);
#563=ORIENTED_EDGE('',*,*,#429,.T.);
#564=ORIENTED_EDGE('',*,*,#393,.T.);
#565=ORIENTED_EDGE('',*,*,#402,.F.);
#566=ORIENTED_EDGE('',*,*,#438,.F.);
#567=ORIENTED_EDGE('',*,*,#439,.F.);
#568=ORIENTED_EDGE('',*,*,#384,.T.);
#569=ORIENTED_EDGE('',*,*,#438,.T.);
#570=ORIENTED_EDGE('',*,*,#440,.T.);
#571=ORIENTED_EDGE('',*,*,#441,.T.);
#572=ORIENTED_EDGE('',*,*,#442,.F.);
#573=ORIENTED_EDGE('',*,*,#397,.F.);
#574=ORIENTED_EDGE('',*,*,#443,.F.);
#575=ORIENTED_EDGE('',*,*,#444,.F.);
#576=ORIENTED_EDGE('',*,*,#445,.F.);
#577=ORIENTED_EDGE('',*,*,#446,.F.);
#578=ORIENTED_EDGE('',*,*,#447,.F.);
#579=ORIENTED_EDGE('',*,*,#448,.F.);
#580=ORIENTED_EDGE('',*,*,#396,.F.);
#581=ORIENTED_EDGE('',*,*,#390,.T.);
#582=ORIENTED_EDGE('',*,*,#448,.T.);
#583=ORIENTED_EDGE('',*,*,#386,.T.);
#584=ORIENTED_EDGE('',*,*,#449,.T.);
#585=ORIENTED_EDGE('',*,*,#450,.T.);
#586=ORIENTED_EDGE('',*,*,#445,.T.);
#587=ORIENTED_EDGE('',*,*,#391,.T.);
#588=ORIENTED_EDGE('',*,*,#449,.F.);
#589=ORIENTED_EDGE('',*,*,#439,.T.);
#590=ORIENTED_EDGE('',*,*,#387,.T.);
#591=ORIENTED_EDGE('',*,*,#447,.T.);
#592=ORIENTED_EDGE('',*,*,#399,.T.);
#593=ORIENTED_EDGE('',*,*,#431,.T.);
#594=ORIENTED_EDGE('',*,*,#412,.T.);
#595=ORIENTED_EDGE('',*,*,#446,.T.);
#596=ORIENTED_EDGE('',*,*,#451,.T.);
#597=ORIENTED_EDGE('',*,*,#444,.T.);
#598=ORIENTED_EDGE('',*,*,#415,.T.);
#599=ORIENTED_EDGE('',*,*,#436,.T.);
#600=ORIENTED_EDGE('',*,*,#392,.T.);
#601=ORIENTED_EDGE('',*,*,#428,.T.);
#602=ORIENTED_EDGE('',*,*,#452,.T.);
#603=ORIENTED_EDGE('',*,*,#443,.T.);
#604=ORIENTED_EDGE('',*,*,#394,.T.);
#605=ORIENTED_EDGE('',*,*,#442,.T.);
#606=ORIENTED_EDGE('',*,*,#453,.T.);
#607=ORIENTED_EDGE('',*,*,#427,.T.);
#608=ORIENTED_EDGE('',*,*,#400,.T.);
#609=ORIENTED_EDGE('',*,*,#434,.T.);
#610=ORIENTED_EDGE('',*,*,#414,.T.);
#611=ORIENTED_EDGE('',*,*,#423,.T.);
#612=ORIENTED_EDGE('',*,*,#454,.T.);
#613=ORIENTED_EDGE('',*,*,#455,.T.);
#614=ORIENTED_EDGE('',*,*,#432,.T.);
#615=ORIENTED_EDGE('',*,*,#456,.T.);
#616=ORIENTED_EDGE('',*,*,#441,.F.);
#617=ORIENTED_EDGE('',*,*,#421,.T.);
#618=ORIENTED_EDGE('',*,*,#413,.T.);
#619=ORIENTED_EDGE('',*,*,#433,.T.);
#620=ORIENTED_EDGE('',*,*,#457,.T.);
#621=ORIENTED_EDGE('',*,*,#418,.T.);
#622=ORIENTED_EDGE('',*,*,#458,.T.);
#623=ORIENTED_EDGE('',*,*,#430,.T.);
#624=ORIENTED_EDGE('',*,*,#459,.T.);
#625=ORIENTED_EDGE('',*,*,#426,.T.);
#626=ORIENTED_EDGE('',*,*,#460,.T.);
#627=ORIENTED_EDGE('',*,*,#420,.T.);
#628=ORIENTED_EDGE('',*,*,#461,.T.);
#629=ORIENTED_EDGE('',*,*,#456,.F.);
#630=ORIENTED_EDGE('',*,*,#451,.F.);
#631=ORIENTED_EDGE('',*,*,#450,.F.);
#632=ORIENTED_EDGE('',*,*,#385,.F.);
#633=ORIENTED_EDGE('',*,*,#437,.F.);
#634=ORIENTED_EDGE('',*,*,#454,.F.);
#635=ORIENTED_EDGE('',*,*,#425,.F.);
#636=ORIENTED_EDGE('',*,*,#459,.F.);
#637=ORIENTED_EDGE('',*,*,#424,.F.);
#638=ORIENTED_EDGE('',*,*,#457,.F.);
#639=ORIENTED_EDGE('',*,*,#455,.F.);
#640=ORIENTED_EDGE('',*,*,#440,.F.);
#641=ORIENTED_EDGE('',*,*,#401,.F.);
#642=ORIENTED_EDGE('',*,*,#461,.F.);
#643=ORIENTED_EDGE('',*,*,#452,.F.);
#644=ORIENTED_EDGE('',*,*,#458,.F.);
#645=ORIENTED_EDGE('',*,*,#460,.F.);
#646=ORIENTED_EDGE('',*,*,#453,.F.);
#647=ORIENTED_EDGE('',*,*,#373,.T.);
#648=ORIENTED_EDGE('',*,*,#370,.T.);
#649=ORIENTED_EDGE('',*,*,#367,.T.);
#650=ORIENTED_EDGE('',*,*,#382,.T.);
#651=ORIENTED_EDGE('',*,*,#379,.T.);
#652=ORIENTED_EDGE('',*,*,#376,.T.);
#653=ORIENTED_EDGE('',*,*,#406,.T.);
#654=ORIENTED_EDGE('',*,*,#417,.T.);
#655=ORIENTED_EDGE('',*,*,#404,.F.);
#656=PLANE('',#768);
#657=PLANE('',#769);
#658=PLANE('',#770);
#659=PLANE('',#771);
#660=PLANE('',#772);
#661=PLANE('',#773);
#662=PLANE('',#774);
#663=PLANE('',#776);
#664=PLANE('',#778);
#665=PLANE('',#779);
#666=PLANE('',#780);
#667=PLANE('',#781);
#668=PLANE('',#790);
#669=PLANE('',#793);
#670=PLANE('',#794);
#671=PLANE('',#795);
#672=PLANE('',#796);
#673=PLANE('',#797);
#674=PLANE('',#798);
#675=PLANE('',#799);
#676=PLANE('',#800);
#677=PLANE('',#801);
#678=PLANE('',#802);
#679=PLANE('',#803);
#680=PLANE('',#804);
#681=PLANE('',#805);
#682=PLANE('',#806);
#683=PLANE('',#807);
#684=PLANE('',#808);
#685=PLANE('',#809);
#686=PLANE('',#810);
#687=PLANE('',#811);
#688=PLANE('',#812);
#689=PLANE('',#813);
#690=PLANE('',#814);
#691=PLANE('',#815);
#692=PLANE('',#816);
#693=PLANE('',#817);
#694=PLANE('',#818);
#695=PLANE('',#819);
#696=PLANE('',#820);
#697=PLANE('',#821);
#698=PLANE('',#822);
#699=ADVANCED_FACE('',(#33),#656,.F.);
#700=ADVANCED_FACE('',(#34),#657,.F.);
#701=ADVANCED_FACE('',(#35),#658,.F.);
#702=ADVANCED_FACE('',(#36),#659,.F.);
#703=ADVANCED_FACE('',(#37),#660,.F.);
#704=ADVANCED_FACE('',(#38),#661,.F.);
#705=ADVANCED_FACE('',(#39,#19),#662,.T.);
#706=ADVANCED_FACE('',(#40,#20),#663,.T.);
#707=ADVANCED_FACE('',(#41),#664,.T.);
#708=ADVANCED_FACE('',(#42),#665,.T.);
#709=ADVANCED_FACE('',(#43),#666,.T.);
#710=ADVANCED_FACE('',(#44),#667,.T.);
#711=ADVANCED_FACE('',(#45),#16,.F.);
#712=ADVANCED_FACE('',(#46),#17,.F.);
#713=ADVANCED_FACE('',(#47),#15,.F.);
#714=ADVANCED_FACE('',(#48,#21),#668,.T.);
#715=ADVANCED_FACE('',(#49),#18,.F.);
#716=ADVANCED_FACE('',(#50),#669,.T.);
#717=ADVANCED_FACE('',(#51),#670,.T.);
#718=ADVANCED_FACE('',(#52),#671,.T.);
#719=ADVANCED_FACE('',(#53),#672,.T.);
#720=ADVANCED_FACE('',(#54),#673,.T.);
#721=ADVANCED_FACE('',(#55),#674,.T.);
#722=ADVANCED_FACE('',(#56),#675,.T.);
#723=ADVANCED_FACE('',(#57),#676,.T.);
#724=ADVANCED_FACE('',(#58),#677,.T.);
#725=ADVANCED_FACE('',(#59),#678,.T.);
#726=ADVANCED_FACE('',(#60),#679,.T.);
#727=ADVANCED_FACE('',(#61),#680,.T.);
#728=ADVANCED_FACE('',(#62),#681,.T.);
#729=ADVANCED_FACE('',(#63),#682,.T.);
#730=ADVANCED_FACE('',(#64),#683,.T.);
#731=ADVANCED_FACE('',(#65),#684,.T.);
#732=ADVANCED_FACE('',(#66),#685,.T.);
#733=ADVANCED_FACE('',(#67),#686,.T.);
#734=ADVANCED_FACE('',(#68),#687,.T.);
#735=ADVANCED_FACE('',(#69),#688,.T.);
#736=ADVANCED_FACE('',(#70),#689,.T.);
#737=ADVANCED_FACE('',(#71),#690,.T.);
#738=ADVANCED_FACE('',(#72),#691,.T.);
#739=ADVANCED_FACE('',(#73),#692,.T.);
#740=ADVANCED_FACE('',(#74),#693,.T.);
#741=ADVANCED_FACE('',(#75),#694,.T.);
#742=ADVANCED_FACE('',(#76),#695,.T.);
#743=ADVANCED_FACE('',(#77),#696,.T.);
#744=ADVANCED_FACE('',(#78,#22,#23),#697,.T.);
#745=ADVANCED_FACE('',(#79,#24),#698,.T.);
#746=CLOSED_SHELL('',(#699,#700,#701,#702,#703,#704,#705,#706,#707,#708,
#709,#710,#711,#712,#713,#714,#715,#716,#717,#718,#719,#720,#721,#722,#723,
#724,#725,#726,#727,#728,#729,#730,#731,#732,#733,#734,#735,#736,#737,#738,
#739,#740,#741,#742,#743,#744,#745));
#747=DERIVED_UNIT_ELEMENT(#749,1.);
#748=DERIVED_UNIT_ELEMENT(#1231,-3.);
#749=(
CONVERSION_BASED_UNIT('gram',#751)
MASS_UNIT()
NAMED_UNIT(#1228)
);
#750=(
MASS_UNIT()
NAMED_UNIT(*)
SI_UNIT(.KILO.,.GRAM.)
);
#751=MASS_MEASURE_WITH_UNIT(MASS_MEASURE(0.001),#750);
#752=DERIVED_UNIT((#747,#748));
#753=MEASURE_REPRESENTATION_ITEM('density measure',
POSITIVE_RATIO_MEASURE(1.06),#752);
#754=PROPERTY_DEFINITION_REPRESENTATION(#759,#756);
#755=PROPERTY_DEFINITION_REPRESENTATION(#760,#757);
#756=REPRESENTATION('material name',(#758),#1225);
#757=REPRESENTATION('density',(#753),#1225);
#758=DESCRIPTIVE_REPRESENTATION_ITEM('ABS Plastic','ABS Plastic');
#759=PROPERTY_DEFINITION('material property','material name',#1239);
#760=PROPERTY_DEFINITION('material property','density of part',#1239);
#761=DATE_TIME_ROLE('creation_date');
#762=APPLIED_DATE_AND_TIME_ASSIGNMENT(#763,#761,(#1239));
#763=DATE_AND_TIME(#764,#765);
#764=CALENDAR_DATE(2026,19,7);
#765=LOCAL_TIME(0,0,0.,#766);
#766=COORDINATED_UNIVERSAL_TIME_OFFSET(0,0,.BEHIND.);
#767=AXIS2_PLACEMENT_3D('',#1024,#823,#824);
#768=AXIS2_PLACEMENT_3D('',#1025,#825,#826);
#769=AXIS2_PLACEMENT_3D('',#1034,#831,#832);
#770=AXIS2_PLACEMENT_3D('',#1040,#836,#837);
#771=AXIS2_PLACEMENT_3D('',#1046,#841,#842);
#772=AXIS2_PLACEMENT_3D('',#1052,#846,#847);
#773=AXIS2_PLACEMENT_3D('',#1058,#851,#852);
#774=AXIS2_PLACEMENT_3D('',#1061,#855,#856);
#775=AXIS2_PLACEMENT_3D('',#1063,#857,#858);
#776=AXIS2_PLACEMENT_3D('',#1064,#859,#860);
#777=AXIS2_PLACEMENT_3D('',#1074,#865,#866);
#778=AXIS2_PLACEMENT_3D('',#1075,#867,#868);
#779=AXIS2_PLACEMENT_3D('',#1088,#875,#876);
#780=AXIS2_PLACEMENT_3D('',#1094,#880,#881);
#781=AXIS2_PLACEMENT_3D('',#1100,#885,#886);
#782=AXIS2_PLACEMENT_3D('',#1106,#890,#891);
#783=AXIS2_PLACEMENT_3D('',#1108,#892,#893);
#784=AXIS2_PLACEMENT_3D('',#1111,#895,#896);
#785=AXIS2_PLACEMENT_3D('',#1112,#897,#898);
#786=AXIS2_PLACEMENT_3D('',#1114,#900,#901);
#787=AXIS2_PLACEMENT_3D('',#1116,#902,#903);
#788=AXIS2_PLACEMENT_3D('',#1120,#905,#906);
#789=AXIS2_PLACEMENT_3D('',#1121,#907,#908);
#790=AXIS2_PLACEMENT_3D('',#1122,#909,#910);
#791=AXIS2_PLACEMENT_3D('',#1131,#915,#916);
#792=AXIS2_PLACEMENT_3D('',#1134,#918,#919);
#793=AXIS2_PLACEMENT_3D('',#1135,#920,#921);
#794=AXIS2_PLACEMENT_3D('',#1142,#925,#926);
#795=AXIS2_PLACEMENT_3D('',#1148,#930,#931);
#796=AXIS2_PLACEMENT_3D('',#1151,#934,#935);
#797=AXIS2_PLACEMENT_3D('',#1155,#938,#939);
#798=AXIS2_PLACEMENT_3D('',#1161,#943,#944);
#799=AXIS2_PLACEMENT_3D('',#1167,#948,#949);
#800=AXIS2_PLACEMENT_3D('',#1172,#953,#954);
#801=AXIS2_PLACEMENT_3D('',#1174,#956,#957);
#802=AXIS2_PLACEMENT_3D('',#1177,#960,#961);
#803=AXIS2_PLACEMENT_3D('',#1181,#964,#965);
#804=AXIS2_PLACEMENT_3D('',#1185,#968,#969);
#805=AXIS2_PLACEMENT_3D('',#1190,#973,#974);
#806=AXIS2_PLACEMENT_3D('',#1193,#977,#978);
#807=AXIS2_PLACEMENT_3D('',#1195,#980,#981);
#808=AXIS2_PLACEMENT_3D('',#1197,#983,#984);
#809=AXIS2_PLACEMENT_3D('',#1198,#985,#986);
#810=AXIS2_PLACEMENT_3D('',#1200,#988,#989);
#811=AXIS2_PLACEMENT_3D('',#1201,#990,#991);
#812=AXIS2_PLACEMENT_3D('',#1203,#993,#994);
#813=AXIS2_PLACEMENT_3D('',#1205,#996,#997);
#814=AXIS2_PLACEMENT_3D('',#1207,#999,#1000);
#815=AXIS2_PLACEMENT_3D('',#1210,#1003,#1004);
#816=AXIS2_PLACEMENT_3D('',#1212,#1006,#1007);
#817=AXIS2_PLACEMENT_3D('',#1215,#1010,#1011);
#818=AXIS2_PLACEMENT_3D('',#1218,#1014,#1015);
#819=AXIS2_PLACEMENT_3D('',#1219,#1016,#1017);
#820=AXIS2_PLACEMENT_3D('',#1220,#1018,#1019);
#821=AXIS2_PLACEMENT_3D('',#1221,#1020,#1021);
#822=AXIS2_PLACEMENT_3D('',#1222,#1022,#1023);
#823=DIRECTION('axis',(0.,0.,1.));
#824=DIRECTION('refdir',(1.,0.,0.));
#825=DIRECTION('center_axis',(-0.5,0.,-0.866025403784439));
#826=DIRECTION('ref_axis',(-0.866025403784439,0.,0.5));
#827=DIRECTION('',(-0.866025403784439,0.,0.5));
#828=DIRECTION('',(0.,-1.,0.));
#829=DIRECTION('',(-0.866025403784439,0.,0.5));
#830=DIRECTION('',(0.,-1.,0.));
#831=DIRECTION('center_axis',(0.5,0.,-0.866025403784438));
#832=DIRECTION('ref_axis',(-0.866025403784438,0.,-0.5));
#833=DIRECTION('',(-0.866025403784438,0.,-0.5));
#834=DIRECTION('',(-0.866025403784438,0.,-0.5));
#835=DIRECTION('',(0.,-1.,0.));
#836=DIRECTION('center_axis',(1.,0.,-5.49417910395304E-16));
#837=DIRECTION('ref_axis',(-5.49417910395304E-16,0.,-1.));
#838=DIRECTION('',(-5.49417910395304E-16,0.,-1.));
#839=DIRECTION('',(-5.49417910395304E-16,0.,-1.));
#840=DIRECTION('',(0.,-1.,0.));
#841=DIRECTION('center_axis',(0.5,0.,0.866025403784439));
#842=DIRECTION('ref_axis',(0.866025403784438,0.,-0.5));
#843=DIRECTION('',(0.866025403784438,0.,-0.5));
#844=DIRECTION('',(0.866025403784438,0.,-0.5));
#845=DIRECTION('',(0.,1.,0.));
#846=DIRECTION('center_axis',(-0.5,0.,0.866025403784439));
#847=DIRECTION('ref_axis',(0.866025403784439,0.,0.5));
#848=DIRECTION('',(0.866025403784439,0.,0.5));
#849=DIRECTION('',(0.866025403784439,0.,0.5));
#850=DIRECTION('',(0.,-1.,0.));
#851=DIRECTION('center_axis',(-1.,0.,-5.49417910395304E-16));
#852=DIRECTION('ref_axis',(-5.49417910395304E-16,0.,1.));
#853=DIRECTION('',(-5.49417910395304E-16,0.,1.));
#854=DIRECTION('',(-5.49417910395304E-16,0.,1.));
#855=DIRECTION('center_axis',(0.,-1.,0.));
#856=DIRECTION('ref_axis',(0.,0.,-1.));
#857=DIRECTION('center_axis',(0.,1.,0.));
#858=DIRECTION('ref_axis',(-1.,0.,0.));
#859=DIRECTION('center_axis',(0.,1.,0.));
#860=DIRECTION('ref_axis',(0.,0.,1.));
#861=DIRECTION('',(-1.,0.,0.));
#862=DIRECTION('',(0.,0.,-1.));
#863=DIRECTION('',(1.,0.,0.));
#864=DIRECTION('',(0.,0.,-1.));
#865=DIRECTION('center_axis',(0.,-1.,0.));
#866=DIRECTION('ref_axis',(-1.,0.,0.));
#867=DIRECTION('center_axis',(0.,0.,-1.));
#868=DIRECTION('ref_axis',(1.,0.,0.));
#869=DIRECTION('',(0.,-1.,0.));
#870=DIRECTION('',(-1.,0.,0.));
#871=DIRECTION('',(0.,-1.,0.));
#872=DIRECTION('',(-1.,0.,0.));
#873=DIRECTION('',(0.,1.,0.));
#874=DIRECTION('',(1.,0.,0.));
#875=DIRECTION('center_axis',(-0.707106781186548,0.,-0.707106781186547));
#876=DIRECTION('ref_axis',(-0.707106781186547,0.,0.707106781186548));
#877=DIRECTION('',(0.,1.,0.));
#878=DIRECTION('',(0.707106781186547,0.,-0.707106781186548));
#879=DIRECTION('',(-0.707106781186547,0.,0.707106781186548));
#880=DIRECTION('center_axis',(-1.,0.,0.));
#881=DIRECTION('ref_axis',(0.,0.,-1.));
#882=DIRECTION('',(0.,-1.,0.));
#883=DIRECTION('',(0.,0.,1.));
#884=DIRECTION('',(0.,0.,-1.));
#885=DIRECTION('center_axis',(-0.707106781186547,0.,0.707106781186548));
#886=DIRECTION('ref_axis',(0.707106781186548,0.,0.707106781186547));
#887=DIRECTION('',(0.,1.,0.));
#888=DIRECTION('',(-0.707106781186548,0.,-0.707106781186547));
#889=DIRECTION('',(0.707106781186548,0.,0.707106781186547));
#890=DIRECTION('center_axis',(0.,1.,0.));
#891=DIRECTION('ref_axis',(1.,0.,0.));
#892=DIRECTION('center_axis',(0.,1.,0.));
#893=DIRECTION('ref_axis',(1.,0.,0.));
#894=DIRECTION('',(0.,-1.,0.));
#895=DIRECTION('center_axis',(0.,1.,0.));
#896=DIRECTION('ref_axis',(1.,0.,0.));
#897=DIRECTION('center_axis',(0.,1.,0.));
#898=DIRECTION('ref_axis',(-1.,0.,0.));
#899=DIRECTION('',(0.,-1.,0.));
#900=DIRECTION('center_axis',(0.,1.,0.));
#901=DIRECTION('ref_axis',(-1.,0.,0.));
#902=DIRECTION('center_axis',(0.,1.,0.));
#903=DIRECTION('ref_axis',(-1.,0.,0.));
#904=DIRECTION('',(-0.707106781186548,-0.707106781186547,8.65956056235494E-17));
#905=DIRECTION('center_axis',(0.,-1.,0.));
#906=DIRECTION('ref_axis',(-1.,0.,0.));
#907=DIRECTION('center_axis',(0.,-1.,0.));
#908=DIRECTION('ref_axis',(-1.,0.,0.));
#909=DIRECTION('center_axis',(0.,1.,0.));
#910=DIRECTION('ref_axis',(0.,0.,1.));
#911=DIRECTION('',(0.,0.,-1.));
#912=DIRECTION('',(-1.,0.,0.));
#913=DIRECTION('',(0.,0.,1.));
#914=DIRECTION('',(1.,0.,0.));
#915=DIRECTION('center_axis',(0.,1.,0.));
#916=DIRECTION('ref_axis',(1.,0.,0.));
#917=DIRECTION('',(0.,-1.,0.));
#918=DIRECTION('center_axis',(0.,1.,0.));
#919=DIRECTION('ref_axis',(1.,0.,0.));
#920=DIRECTION('center_axis',(0.577350269189626,-0.577350269189626,0.577350269189626));
#921=DIRECTION('ref_axis',(0.707106781186547,0.,-0.707106781186547));
#922=DIRECTION('',(-0.707106781186548,-0.707106781186547,0.));
#923=DIRECTION('',(0.707106781186547,0.,-0.707106781186547));
#924=DIRECTION('',(0.,0.707106781186547,0.707106781186547));
#925=DIRECTION('center_axis',(0.577350269189626,0.577350269189626,0.577350269189626));
#926=DIRECTION('ref_axis',(0.707106781186547,0.,-0.707106781186547));
#927=DIRECTION('',(0.,0.707106781186547,-0.707106781186547));
#928=DIRECTION('',(-0.707106781186547,0.,0.707106781186547));
#929=DIRECTION('',(0.707106781186548,-0.707106781186547,0.));
#930=DIRECTION('center_axis',(0.707106781186548,0.,0.707106781186548));
#931=DIRECTION('ref_axis',(0.707106781186548,0.,-0.707106781186548));
#932=DIRECTION('',(0.,-1.,0.));
#933=DIRECTION('',(0.,1.,0.));
#934=DIRECTION('center_axis',(-0.577350269189626,-0.577350269189626,0.577350269189626));
#935=DIRECTION('ref_axis',(0.707106781186548,0.,0.707106781186547));
#936=DIRECTION('',(0.,-0.707106781186547,-0.707106781186547));
#937=DIRECTION('',(-0.707106781186547,0.707106781186547,0.));
#938=DIRECTION('center_axis',(0.577350269189626,-0.577350269189626,-0.577350269189626));
#939=DIRECTION('ref_axis',(-0.707106781186547,0.,-0.707106781186547));
#940=DIRECTION('',(0.,-0.707106781186547,0.707106781186548));
#941=DIRECTION('',(-0.707106781186547,0.,-0.707106781186547));
#942=DIRECTION('',(0.707106781186548,0.707106781186547,0.));
#943=DIRECTION('center_axis',(-0.577350269189625,0.577350269189626,0.577350269189626));
#944=DIRECTION('ref_axis',(0.707106781186548,0.,0.707106781186547));
#945=DIRECTION('',(0.707106781186548,0.707106781186547,0.));
#946=DIRECTION('',(-0.707106781186548,0.,-0.707106781186547));
#947=DIRECTION('',(0.,-0.707106781186547,0.707106781186547));
#948=DIRECTION('center_axis',(0.577350269189626,0.577350269189626,-0.577350269189626));
#949=DIRECTION('ref_axis',(-0.707106781186547,0.,-0.707106781186547));
#950=DIRECTION('',(-0.707106781186548,0.707106781186547,0.));
#951=DIRECTION('',(0.707106781186547,0.,0.707106781186547));
#952=DIRECTION('',(0.,-0.707106781186547,-0.707106781186548));
#953=DIRECTION('center_axis',(0.707106781186548,0.,-0.707106781186548));
#954=DIRECTION('ref_axis',(-0.707106781186548,0.,-0.707106781186548));
#955=DIRECTION('',(0.,-1.,0.));
#956=DIRECTION('center_axis',(-0.577350269189626,0.577350269189626,0.577350269189626));
#957=DIRECTION('ref_axis',(0.707106781186548,0.,0.707106781186548));
#958=DIRECTION('',(0.,-0.707106781186548,0.707106781186547));
#959=DIRECTION('',(0.707106781186547,0.707106781186548,0.));
#960=DIRECTION('center_axis',(0.,0.707106781186547,0.707106781186548));
#961=DIRECTION('ref_axis',(1.,0.,0.));
#962=DIRECTION('',(1.,0.,0.));
#963=DIRECTION('',(-0.577350269189626,0.577350269189625,-0.577350269189626));
#964=DIRECTION('center_axis',(-0.577350269189626,-0.577350269189626,-0.577350269189625));
#965=DIRECTION('ref_axis',(-0.707106781186547,0.,0.707106781186548));
#966=DIRECTION('',(0.707106781186547,-0.707106781186547,0.));
#967=DIRECTION('',(0.,0.707106781186547,-0.707106781186548));
#968=DIRECTION('center_axis',(-0.577350269189626,0.577350269189626,-0.577350269189626));
#969=DIRECTION('ref_axis',(-0.707106781186547,0.,0.707106781186547));
#970=DIRECTION('',(0.,0.707106781186547,0.707106781186548));
#971=DIRECTION('',(0.707106781186547,0.,-0.707106781186547));
#972=DIRECTION('',(-0.707106781186548,-0.707106781186547,0.));
#973=DIRECTION('center_axis',(-0.577350269189626,0.577350269189626,-0.577350269189625));
#974=DIRECTION('ref_axis',(-0.707106781186547,0.,0.707106781186548));
#975=DIRECTION('',(-0.707106781186547,-0.707106781186548,0.));
#976=DIRECTION('',(0.,0.707106781186547,0.707106781186548));
#977=DIRECTION('center_axis',(0.,0.707106781186548,-0.707106781186547));
#978=DIRECTION('ref_axis',(-1.,0.,0.));
#979=DIRECTION('',(0.577350269189626,-0.577350269189625,-0.577350269189626));
#980=DIRECTION('center_axis',(-0.707106781186548,0.,-0.707106781186548));
#981=DIRECTION('ref_axis',(-0.707106781186548,0.,0.707106781186548));
#982=DIRECTION('',(0.,1.,0.));
#983=DIRECTION('center_axis',(-0.707106781186548,0.707106781186547,0.));
#984=DIRECTION('ref_axis',(0.,0.,1.));
#985=DIRECTION('center_axis',(-0.707106781186547,0.707106781186548,0.));
#986=DIRECTION('ref_axis',(0.,0.,1.));
#987=DIRECTION('',(0.,0.,1.));
#988=DIRECTION('center_axis',(0.,0.707106781186548,-0.707106781186547));
#989=DIRECTION('ref_axis',(-1.,0.,0.));
#990=DIRECTION('center_axis',(0.,-0.707106781186548,-0.707106781186547));
#991=DIRECTION('ref_axis',(-1.,0.,0.));
#992=DIRECTION('',(-1.,0.,0.));
#993=DIRECTION('center_axis',(-0.707106781186548,-0.707106781186548,0.));
#994=DIRECTION('ref_axis',(0.,0.,1.));
#995=DIRECTION('',(0.,0.,1.));
#996=DIRECTION('center_axis',(0.707106781186547,0.707106781186548,0.));
#997=DIRECTION('ref_axis',(0.,0.,-1.));
#998=DIRECTION('',(0.,0.,-1.));
#999=DIRECTION('center_axis',(-0.707106781186547,0.,0.707106781186548));
#1000=DIRECTION('ref_axis',(0.707106781186548,0.,0.707106781186547));
#1001=DIRECTION('',(0.,1.,0.));
#1002=DIRECTION('',(0.,-1.,0.));
#1003=DIRECTION('center_axis',(0.,0.707106781186548,0.707106781186548));
#1004=DIRECTION('ref_axis',(1.,0.,0.));
#1005=DIRECTION('',(1.,0.,0.));
#1006=DIRECTION('center_axis',(0.707106781186547,-0.707106781186548,0.));
#1007=DIRECTION('ref_axis',(0.,0.,-1.));
#1008=DIRECTION('',(0.,0.,-1.));
#1009=DIRECTION('',(0.,0.,1.));
#1010=DIRECTION('center_axis',(0.,-0.707106781186548,0.707106781186548));
#1011=DIRECTION('ref_axis',(1.,0.,0.));
#1012=DIRECTION('',(1.,0.,0.));
#1013=DIRECTION('',(-1.,0.,0.));
#1014=DIRECTION('center_axis',(-1.,0.,0.));
#1015=DIRECTION('ref_axis',(0.,0.,1.));
#1016=DIRECTION('center_axis',(1.,0.,0.));
#1017=DIRECTION('ref_axis',(0.,0.,1.));
#1018=DIRECTION('center_axis',(0.,0.,1.));
#1019=DIRECTION('ref_axis',(-1.,0.,0.));
#1020=DIRECTION('center_axis',(0.,-1.,0.));
#1021=DIRECTION('ref_axis',(0.,0.,-1.));
#1022=DIRECTION('center_axis',(0.,1.,0.));
#1023=DIRECTION('ref_axis',(1.,0.,0.));
#1024=CARTESIAN_POINT('',(0.,0.,0.));
#1025=CARTESIAN_POINT('Origin',(0.27755905511811,0.,-0.556222615145899));
#1026=CARTESIAN_POINT('',(0.279527559055118,-0.110236220472441,-0.557359131423831));
#1027=CARTESIAN_POINT('',(0.137795275590551,-0.110236220472441,-0.475529959412703));
#1028=CARTESIAN_POINT('',(0.243110236220473,-0.110236220472441,-0.536333580282083));
#1029=CARTESIAN_POINT('',(0.137795275590551,-0.236220472440945,-0.475529959412703));
#1030=CARTESIAN_POINT('',(0.137795275590551,0.,-0.475529959412703));
#1031=CARTESIAN_POINT('',(0.279527559055118,-0.236220472440945,-0.557359131423831));
#1032=CARTESIAN_POINT('',(0.336860236220473,-0.236220472440945,-0.59046016801861));
#1033=CARTESIAN_POINT('',(0.279527559055118,0.,-0.557359131423831));
#1034=CARTESIAN_POINT('Origin',(0.419291338582677,0.,-0.476666475690635));
#1035=CARTESIAN_POINT('',(0.421259842519685,-0.110236220472441,-0.475529959412703));
#1036=CARTESIAN_POINT('',(0.384842519685039,-0.110236220472441,-0.496555510554451));
#1037=CARTESIAN_POINT('',(0.421259842519685,-0.236220472440945,-0.475529959412703));
#1038=CARTESIAN_POINT('',(0.478592519685039,-0.236220472440945,-0.442428922817924));
#1039=CARTESIAN_POINT('',(0.421259842519685,0.,-0.475529959412703));
#1040=CARTESIAN_POINT('Origin',(0.421259842519685,0.,-0.314144647946311));
#1041=CARTESIAN_POINT('',(0.421259842519685,-0.110236220472441,-0.311871615390447));
#1042=CARTESIAN_POINT('',(0.421259842519685,-0.110236220472441,-0.353922717673943));
#1043=CARTESIAN_POINT('',(0.421259842519685,-0.236220472440945,-0.311871615390447));
#1044=CARTESIAN_POINT('',(0.421259842519685,-0.236220472440945,-0.353922717673943));
#1045=CARTESIAN_POINT('',(0.421259842519685,0.,-0.311871615390447));
#1046=CARTESIAN_POINT('Origin',(0.281496062992126,0.,-0.231178959657251));
#1047=CARTESIAN_POINT('',(0.279527559055118,-0.110236220472441,-0.230042443379319));
#1048=CARTESIAN_POINT('',(0.315944881889764,-0.110236220472441,-0.251067994521067));
#1049=CARTESIAN_POINT('',(0.279527559055118,-0.236220472440945,-0.230042443379319));
#1050=CARTESIAN_POINT('',(0.409694881889764,-0.236220472440945,-0.305194582257594));
#1051=CARTESIAN_POINT('',(0.279527559055118,0.,-0.230042443379319));
#1052=CARTESIAN_POINT('Origin',(0.139763779527559,0.,-0.310735099112514));
#1053=CARTESIAN_POINT('',(0.137795275590551,-0.110236220472441,-0.311871615390447));
#1054=CARTESIAN_POINT('',(0.174212598425197,-0.110236220472441,-0.290846064248699));
#1055=CARTESIAN_POINT('',(0.137795275590551,-0.236220472440945,-0.311871615390447));
#1056=CARTESIAN_POINT('',(0.267962598425197,-0.236220472440945,-0.236719476512171));
#1057=CARTESIAN_POINT('',(0.137795275590551,0.,-0.311871615390447));
#1058=CARTESIAN_POINT('Origin',(0.137795275590551,0.,-0.473256926856838));
#1059=CARTESIAN_POINT('',(0.137795275590551,-0.110236220472441,-0.433478857129207));
#1060=CARTESIAN_POINT('',(0.137795275590551,-0.236220472440945,-0.433478857129207));
#1061=CARTESIAN_POINT('Origin',(0.279527559055118,-0.110236220472441,-0.393700787401575));
#1062=CARTESIAN_POINT('',(0.364027559055118,-0.110236220472441,-0.393700787401575));
#1063=CARTESIAN_POINT('Origin',(0.279527559055118,-0.110236220472441,-0.393700787401575));
#1064=CARTESIAN_POINT('Origin',(0.529527559055118,0.,-0.393700787401575));
#1065=CARTESIAN_POINT('',(0.559055118110236,0.,-0.0393700787401575));
#1066=CARTESIAN_POINT('',(0.0393700787401575,0.,-0.0393700787401575));
#1067=CARTESIAN_POINT('',(0.794291338582677,0.,-0.0393700787401575));
#1068=CARTESIAN_POINT('',(0.559055118110236,0.,-0.748031496062992));
#1069=CARTESIAN_POINT('',(0.559055118110236,0.,-0.590551181102362));
#1070=CARTESIAN_POINT('',(0.0393700787401575,0.,-0.748031496062992));
#1071=CARTESIAN_POINT('',(0.264763779527559,0.,-0.748031496062992));
#1072=CARTESIAN_POINT('',(0.0393700787401575,0.,-0.196850393700787));
#1073=CARTESIAN_POINT('',(0.364027559055118,0.,-0.393700787401575));
#1074=CARTESIAN_POINT('Origin',(0.279527559055118,0.,-0.393700787401575));
#1075=CARTESIAN_POINT('Origin',(0.,0.,-0.78740157480315));
#1076=CARTESIAN_POINT('',(0.0393700787401575,-0.0393700787401575,-0.78740157480315));
#1077=CARTESIAN_POINT('',(0.0393700787401575,-0.196850393700787,-0.78740157480315));
#1078=CARTESIAN_POINT('',(0.0393700787401575,0.,-0.78740157480315));
#1079=CARTESIAN_POINT('',(0.598425196850394,-0.0393700787401575,-0.78740157480315));
#1080=CARTESIAN_POINT('',(0.264763779527559,-0.0393700787401575,-0.78740157480315));
#1081=CARTESIAN_POINT('',(0.598425196850394,0.196850393700787,-0.78740157480315));
#1082=CARTESIAN_POINT('',(0.598425196850394,0.,-0.78740157480315));
#1083=CARTESIAN_POINT('',(1.01968503937008,0.196850393700787,-0.78740157480315));
#1084=CARTESIAN_POINT('',(0.404527559055118,0.196850393700787,-0.78740157480315));
#1085=CARTESIAN_POINT('',(1.01968503937008,-0.196850393700787,-0.78740157480315));
#1086=CARTESIAN_POINT('',(1.01968503937008,0.,-0.78740157480315));
#1087=CARTESIAN_POINT('',(0.264763779527559,-0.196850393700787,-0.78740157480315));
#1088=CARTESIAN_POINT('Origin',(0.0196850393700787,0.,-0.767716535433071));
#1089=CARTESIAN_POINT('',(0.,-0.196850393700787,-0.748031496062992));
#1090=CARTESIAN_POINT('',(0.,-0.0393700787401575,-0.748031496062992));
#1091=CARTESIAN_POINT('',(0.,0.,-0.748031496062992));
#1092=CARTESIAN_POINT('',(0.,-0.0393700787401575,-0.748031496062992));
#1093=CARTESIAN_POINT('',(0.0393700787401575,-0.196850393700787,-0.78740157480315));
#1094=CARTESIAN_POINT('Origin',(0.,0.,0.));
#1095=CARTESIAN_POINT('',(0.,-0.0393700787401575,-0.0393700787401575));
#1096=CARTESIAN_POINT('',(0.,-0.196850393700787,-0.0393700787401575));
#1097=CARTESIAN_POINT('',(0.,0.,-0.0393700787401575));
#1098=CARTESIAN_POINT('',(0.,-0.0393700787401575,-0.196850393700787));
#1099=CARTESIAN_POINT('',(0.,-0.196850393700787,-0.196850393700787));
#1100=CARTESIAN_POINT('Origin',(0.0196850393700788,0.,-0.0196850393700787));
#1101=CARTESIAN_POINT('',(0.0393700787401575,-0.196850393700787,0.));
#1102=CARTESIAN_POINT('',(0.0393700787401575,-0.0393700787401575,0.));
#1103=CARTESIAN_POINT('',(0.0393700787401575,0.,0.));
#1104=CARTESIAN_POINT('',(0.0393700787401575,-0.0393700787401575,0.));
#1105=CARTESIAN_POINT('',(0.,-0.196850393700787,-0.0393700787401575));
#1106=CARTESIAN_POINT('Origin',(0.809055118110236,-1.16549256152816,-0.393700787401575));
#1107=CARTESIAN_POINT('',(0.724555118110236,0.0792204724409449,-0.393700787401575));
#1108=CARTESIAN_POINT('Origin',(0.809055118110236,0.0792204724409449,-0.393700787401575));
#1109=CARTESIAN_POINT('',(0.724555118110236,-0.236220472440945,-0.393700787401575));
#1110=CARTESIAN_POINT('',(0.724555118110236,-1.16549256152816,-0.393700787401575));
#1111=CARTESIAN_POINT('Origin',(0.809055118110236,-0.236220472440945,-0.393700787401575));
#1112=CARTESIAN_POINT('Origin',(0.279527559055118,-1.34067113596071,-0.393700787401575));
#1113=CARTESIAN_POINT('',(0.364027559055118,-1.34067113596071,-0.393700787401575));
#1114=CARTESIAN_POINT('Origin',(0.809055118110236,0.216535433070866,-0.393700787401575));
#1115=CARTESIAN_POINT('',(1.00592519685039,0.236220472440945,-0.393700787401575));
#1116=CARTESIAN_POINT('Origin',(0.809055118110236,0.236220472440945,-0.393700787401575));
#1117=CARTESIAN_POINT('',(0.966555118110236,0.196850393700787,-0.393700787401575));
#1118=CARTESIAN_POINT('',(0.986240157480315,0.216535433070866,-0.393700787401575));
#1119=CARTESIAN_POINT('',(0.651555118110236,0.196850393700787,-0.393700787401575));
#1120=CARTESIAN_POINT('Origin',(0.809055118110236,0.196850393700787,-0.393700787401575));
#1121=CARTESIAN_POINT('Origin',(0.809055118110236,0.196850393700787,-0.393700787401575));
#1122=CARTESIAN_POINT('Origin',(0.809055118110236,0.236220472440945,-0.393700787401575));
#1123=CARTESIAN_POINT('',(0.598425196850394,0.236220472440945,-0.0393700787401575));
#1124=CARTESIAN_POINT('',(0.598425196850394,0.236220472440945,-0.748031496062992));
#1125=CARTESIAN_POINT('',(0.598425196850394,0.236220472440945,-0.590551181102362));
#1126=CARTESIAN_POINT('',(1.01968503937008,0.236220472440945,-0.0393700787401575));
#1127=CARTESIAN_POINT('',(0.934055118110236,0.236220472440945,-0.0393700787401575));
#1128=CARTESIAN_POINT('',(1.01968503937008,0.236220472440945,-0.748031496062992));
#1129=CARTESIAN_POINT('',(1.01968503937008,0.236220472440945,-0.590551181102362));
#1130=CARTESIAN_POINT('',(0.404527559055118,0.236220472440945,-0.748031496062992));
#1131=CARTESIAN_POINT('Origin',(0.809055118110236,0.157720472440945,-0.393700787401575));
#1132=CARTESIAN_POINT('',(0.651555118110236,0.0792204724409449,-0.393700787401575));
#1133=CARTESIAN_POINT('',(0.651555118110236,0.157720472440945,-0.393700787401575));
#1134=CARTESIAN_POINT('Origin',(0.809055118110236,0.0792204724409449,-0.393700787401575));
#1135=CARTESIAN_POINT('Origin',(1.01968503937008,-0.196850393700787,0.));
#1136=CARTESIAN_POINT('',(1.05905511811024,-0.196850393700787,-0.0393700787401575));
#1137=CARTESIAN_POINT('',(1.01968503937008,-0.236220472440945,-0.0393700787401575));
#1138=CARTESIAN_POINT('',(1.05905511811024,-0.196850393700787,-0.0393700787401575));
#1139=CARTESIAN_POINT('',(1.01968503937008,-0.196850393700787,0.));
#1140=CARTESIAN_POINT('',(1.01968503937008,-0.196850393700787,0.));
#1141=CARTESIAN_POINT('',(1.01968503937008,-0.236220472440945,-0.0393700787401575));
#1142=CARTESIAN_POINT('Origin',(1.05905511811024,0.196850393700787,-0.0393700787401575));
#1143=CARTESIAN_POINT('',(1.01968503937008,0.196850393700787,0.));
#1144=CARTESIAN_POINT('',(1.01968503937008,0.196850393700787,0.));
#1145=CARTESIAN_POINT('',(1.05905511811024,0.196850393700787,-0.0393700787401575));
#1146=CARTESIAN_POINT('',(1.05905511811024,0.196850393700787,-0.0393700787401575));
#1147=CARTESIAN_POINT('',(1.01968503937008,0.236220472440945,-0.0393700787401575));
#1148=CARTESIAN_POINT('Origin',(1.03937007874016,0.,-0.0196850393700788));
#1149=CARTESIAN_POINT('',(1.01968503937008,0.,0.));
#1150=CARTESIAN_POINT('',(1.05905511811024,0.,-0.0393700787401575));
#1151=CARTESIAN_POINT('Origin',(0.,-0.196850393700787,-0.0393700787401575));
#1152=CARTESIAN_POINT('',(0.0393700787401575,-0.236220472440945,-0.0393700787401575));
#1153=CARTESIAN_POINT('',(0.0393700787401575,-0.196850393700787,0.));
#1154=CARTESIAN_POINT('',(0.0393700787401575,-0.236220472440945,-0.0393700787401575));
#1155=CARTESIAN_POINT('Origin',(1.05905511811024,-0.196850393700787,-0.748031496062992));
#1156=CARTESIAN_POINT('',(1.01968503937008,-0.236220472440945,-0.748031496062992));
#1157=CARTESIAN_POINT('',(1.01968503937008,-0.196850393700787,-0.78740157480315));
#1158=CARTESIAN_POINT('',(1.05905511811024,-0.196850393700787,-0.748031496062992));
#1159=CARTESIAN_POINT('',(1.05905511811024,-0.196850393700787,-0.748031496062992));
#1160=CARTESIAN_POINT('',(1.01968503937008,-0.236220472440945,-0.748031496062992));
#1161=CARTESIAN_POINT('Origin',(0.598425196850394,0.196850393700787,0.));
#1162=CARTESIAN_POINT('',(0.559055118110236,0.196850393700787,-0.0393700787401575));
#1163=CARTESIAN_POINT('',(0.559055118110236,0.196850393700787,-0.0393700787401575));
#1164=CARTESIAN_POINT('',(0.598425196850394,0.196850393700787,0.));
#1165=CARTESIAN_POINT('',(0.598425196850394,0.196850393700787,0.));
#1166=CARTESIAN_POINT('',(0.598425196850394,0.236220472440945,-0.0393700787401575));
#1167=CARTESIAN_POINT('Origin',(1.01968503937008,0.196850393700787,-0.78740157480315));
#1168=CARTESIAN_POINT('',(1.05905511811024,0.196850393700787,-0.748031496062992));
#1169=CARTESIAN_POINT('',(1.05905511811024,0.196850393700787,-0.748031496062992));
#1170=CARTESIAN_POINT('',(1.01968503937008,0.196850393700787,-0.78740157480315));
#1171=CARTESIAN_POINT('',(1.01968503937008,0.236220472440945,-0.748031496062992));
#1172=CARTESIAN_POINT('Origin',(1.03937007874016,0.,-0.767716535433071));
#1173=CARTESIAN_POINT('',(1.05905511811024,0.,-0.748031496062992));
#1174=CARTESIAN_POINT('Origin',(0.0393700787401575,0.,-0.0393700787401575));
#1175=CARTESIAN_POINT('',(0.0393700787401575,0.,-0.0393700787401575));
#1176=CARTESIAN_POINT('',(0.,-0.0393700787401575,-0.0393700787401575));
#1177=CARTESIAN_POINT('Origin',(0.794291338582677,-0.0196850393700787,-0.0196850393700787));
#1178=CARTESIAN_POINT('',(0.598425196850394,-0.0393700787401575,0.));
#1179=CARTESIAN_POINT('',(0.794291338582677,-0.0393700787401575,0.));
#1180=CARTESIAN_POINT('',(0.598425196850394,-0.0393700787401575,0.));
#1181=CARTESIAN_POINT('Origin',(0.0393700787401575,-0.196850393700787,-0.78740157480315));
#1182=CARTESIAN_POINT('',(0.0393700787401575,-0.236220472440945,-0.748031496062992));
#1183=CARTESIAN_POINT('',(0.,-0.196850393700787,-0.748031496062992));
#1184=CARTESIAN_POINT('',(0.0393700787401575,-0.236220472440945,-0.748031496062992));
#1185=CARTESIAN_POINT('Origin',(0.559055118110236,0.196850393700787,-0.748031496062992));
#1186=CARTESIAN_POINT('',(0.598425196850394,0.196850393700787,-0.78740157480315));
#1187=CARTESIAN_POINT('',(0.559055118110236,0.196850393700787,-0.748031496062992));
#1188=CARTESIAN_POINT('',(0.559055118110236,0.196850393700787,-0.748031496062992));
#1189=CARTESIAN_POINT('',(0.598425196850394,0.236220472440945,-0.748031496062992));
#1190=CARTESIAN_POINT('Origin',(0.0393700787401575,-0.0393700787401575,
-0.78740157480315));
#1191=CARTESIAN_POINT('',(0.0393700787401575,0.,-0.748031496062992));
#1192=CARTESIAN_POINT('',(0.0393700787401575,-0.0393700787401575,-0.78740157480315));
#1193=CARTESIAN_POINT('Origin',(0.264763779527559,-0.0196850393700787,-0.767716535433071));
#1194=CARTESIAN_POINT('',(0.559055118110236,0.,-0.748031496062992));
#1195=CARTESIAN_POINT('Origin',(0.578740157480315,0.,-0.767716535433071));
#1196=CARTESIAN_POINT('',(0.559055118110236,0.,-0.748031496062992));
#1197=CARTESIAN_POINT('Origin',(0.0196850393700787,-0.0196850393700787,
-0.196850393700787));
#1198=CARTESIAN_POINT('Origin',(0.578740157480315,0.216535433070866,-0.590551181102362));
#1199=CARTESIAN_POINT('',(0.559055118110236,0.196850393700787,-0.590551181102362));
#1200=CARTESIAN_POINT('Origin',(0.404527559055118,0.216535433070866,-0.767716535433071));
#1201=CARTESIAN_POINT('Origin',(0.264763779527559,-0.216535433070866,-0.767716535433071));
#1202=CARTESIAN_POINT('',(0.264763779527559,-0.236220472440945,-0.748031496062992));
#1203=CARTESIAN_POINT('Origin',(0.0196850393700787,-0.216535433070866,-0.196850393700787));
#1204=CARTESIAN_POINT('',(0.0393700787401575,-0.236220472440945,-0.196850393700787));
#1205=CARTESIAN_POINT('Origin',(1.03937007874016,0.216535433070866,-0.590551181102362));
#1206=CARTESIAN_POINT('',(1.05905511811024,0.196850393700787,-0.590551181102362));
#1207=CARTESIAN_POINT('Origin',(0.578740157480315,0.,-0.0196850393700787));
#1208=CARTESIAN_POINT('',(0.598425196850394,0.,0.));
#1209=CARTESIAN_POINT('',(0.559055118110236,0.,-0.0393700787401575));
#1210=CARTESIAN_POINT('Origin',(0.934055118110236,0.216535433070866,-0.0196850393700787));
#1211=CARTESIAN_POINT('',(0.934055118110236,0.196850393700787,0.));
#1212=CARTESIAN_POINT('Origin',(1.03937007874016,-0.216535433070866,-0.590551181102362));
#1213=CARTESIAN_POINT('',(1.01968503937008,-0.236220472440945,-0.590551181102362));
#1214=CARTESIAN_POINT('',(1.05905511811024,-0.196850393700787,-0.590551181102362));
#1215=CARTESIAN_POINT('Origin',(0.794291338582677,-0.216535433070866,-0.0196850393700787));
#1216=CARTESIAN_POINT('',(0.794291338582677,-0.236220472440945,-0.0393700787401575));
#1217=CARTESIAN_POINT('',(0.794291338582677,-0.196850393700787,0.));
#1218=CARTESIAN_POINT('Origin',(0.559055118110236,0.,-0.78740157480315));
#1219=CARTESIAN_POINT('Origin',(1.05905511811024,0.,-0.78740157480315));
#1220=CARTESIAN_POINT('Origin',(1.05905511811024,0.,0.));
#1221=CARTESIAN_POINT('Origin',(0.529527559055118,-0.236220472440945,-0.393700787401575));
#1222=CARTESIAN_POINT('Origin',(0.809055118110236,0.0792204724409449,-0.393700787401575));
#1223=UNCERTAINTY_MEASURE_WITH_UNIT(LENGTH_MEASURE(0.000393700787401575),
#1229,'DISTANCE_ACCURACY_VALUE',
'Maximum model space distance between geometric entities at asserted c
onnectivities');
#1224=UNCERTAINTY_MEASURE_WITH_UNIT(LENGTH_MEASURE(0.000393700787401575),
#1229,'DISTANCE_ACCURACY_VALUE',
'Maximum model space distance between geometric entities at asserted c
onnectivities');
#1225=(
GEOMETRIC_REPRESENTATION_CONTEXT(3)
GLOBAL_UNCERTAINTY_ASSIGNED_CONTEXT((#1223))
GLOBAL_UNIT_ASSIGNED_CONTEXT((#1229,#1233,#1234))
REPRESENTATION_CONTEXT('','3D')
);
#1226=(
GEOMETRIC_REPRESENTATION_CONTEXT(3)
GLOBAL_UNCERTAINTY_ASSIGNED_CONTEXT((#1224))
GLOBAL_UNIT_ASSIGNED_CONTEXT((#1229,#1233,#1234))
REPRESENTATION_CONTEXT('','3D')
);
#1227=DIMENSIONAL_EXPONENTS(1.,0.,0.,0.,0.,0.,0.);
#1228=DIMENSIONAL_EXPONENTS(0.,1.,0.,0.,0.,0.,0.);
#1229=(
CONVERSION_BASED_UNIT('inch',#1232)
LENGTH_UNIT()
NAMED_UNIT(#1227)
);
#1230=(
LENGTH_UNIT()
NAMED_UNIT(*)
SI_UNIT(.MILLI.,.METRE.)
);
#1231=(
LENGTH_UNIT()
NAMED_UNIT(*)
SI_UNIT(.CENTI.,.METRE.)
);
#1232=LENGTH_MEASURE_WITH_UNIT(LENGTH_MEASURE(25.4),#1230);
#1233=(
NAMED_UNIT(*)
PLANE_ANGLE_UNIT()
SI_UNIT($,.RADIAN.)
);
#1234=(
NAMED_UNIT(*)
SI_UNIT($,.STERADIAN.)
SOLID_ANGLE_UNIT()
);
#1235=SHAPE_DEFINITION_REPRESENTATION(#1236,#1237);
#1236=PRODUCT_DEFINITION_SHAPE('',$,#1239);
#1237=SHAPE_REPRESENTATION('',(#767),#1225);
#1238=PRODUCT_DEFINITION_CONTEXT('part definition',#1243,'design');
#1239=PRODUCT_DEFINITION('Part2','Fixed Jaw (M4)',#1240,#1238);
#1240=PRODUCT_DEFINITION_FORMATION('',$,#1245);
#1241=PRODUCT_RELATED_PRODUCT_CATEGORY('Fixed Jaw (M4)',
'Fixed Jaw (M4)',(#1245));
#1242=APPLICATION_PROTOCOL_DEFINITION('international standard',
'automotive_design',2009,#1243);
#1243=APPLICATION_CONTEXT(
'Core Data for Automotive Mechanical Design Process');
#1244=PRODUCT_CONTEXT('part definition',#1243,'mechanical');
#1245=PRODUCT('Part2','Fixed Jaw (M4)',$,(#1244));
#1246=PRESENTATION_STYLE_ASSIGNMENT((#1247));
#1247=SURFACE_STYLE_USAGE(.BOTH.,#1250);
#1248=SURFACE_STYLE_RENDERING_WITH_PROPERTIES($,#1254,(#1249));
#1249=SURFACE_STYLE_TRANSPARENT(0.);
#1250=SURFACE_SIDE_STYLE('',(#1251,#1248));
#1251=SURFACE_STYLE_FILL_AREA(#1252);
#1252=FILL_AREA_STYLE('',(#1253));
#1253=FILL_AREA_STYLE_COLOUR('',#1254);
#1254=COLOUR_RGB('',0.0196078431372549,0.0196078431372549,0.0196078431372549);
ENDSEC;
END-ISO-10303-21;
