ISO-10303-21;
HEADER;
/* Generated by software containing ST-Developer
 * from STEP Tools, Inc. (www.steptools.com) 
 */

FILE_DESCRIPTION(
/* description */ (''),
/* implementation_level */ '2;1');

FILE_NAME(
/* name */ 'Moving Jaw (M4) Normal.stp',
/* time_stamp */ '2026-08-02T01:54:49-04:00',
/* author */ ('JoshuaEah'),
/* organization */ (''),
/* preprocessor_version */ 'ST-DEVELOPER v20.1',
/* originating_system */ 'Autodesk Inventor 2026',
/* authorisation */ '');

FILE_SCHEMA (('AUTOMOTIVE_DESIGN { 1 0 10303 214 3 1 1 }'));
ENDSEC;

DATA;
#10=MECHANICAL_DESIGN_GEOMETRIC_PRESENTATION_REPRESENTATION('',(#13),#1566);
#11=SHAPE_REPRESENTATION_RELATIONSHIP('SRR','None',#1577,#12);
#12=ADVANCED_BREP_SHAPE_REPRESENTATION('',(#14),#1565);
#13=STYLED_ITEM('',(#1586),#14);
#14=MANIFOLD_SOLID_BREP('Solid1',#956);
#15=FACE_BOUND('',#142,.T.);
#16=FACE_BOUND('',#177,.T.);
#17=FACE_BOUND('',#183,.T.);
#18=FACE_BOUND('',#192,.T.);
#19=CYLINDRICAL_SURFACE('',#987,0.1575);
#20=CYLINDRICAL_SURFACE('',#1037,0.1575);
#21=CYLINDRICAL_SURFACE('',#1043,0.0826771653543307);
#22=CYLINDRICAL_SURFACE('',#1045,0.0826771653543307);
#23=PLANE('',#981);
#24=PLANE('',#985);
#25=PLANE('',#986);
#26=PLANE('',#989);
#27=PLANE('',#990);
#28=PLANE('',#991);
#29=PLANE('',#992);
#30=PLANE('',#993);
#31=PLANE('',#994);
#32=PLANE('',#995);
#33=PLANE('',#996);
#34=PLANE('',#997);
#35=PLANE('',#998);
#36=PLANE('',#999);
#37=PLANE('',#1000);
#38=PLANE('',#1001);
#39=PLANE('',#1002);
#40=PLANE('',#1003);
#41=PLANE('',#1004);
#42=PLANE('',#1005);
#43=PLANE('',#1006);
#44=PLANE('',#1007);
#45=PLANE('',#1008);
#46=PLANE('',#1009);
#47=PLANE('',#1010);
#48=PLANE('',#1011);
#49=PLANE('',#1012);
#50=PLANE('',#1013);
#51=PLANE('',#1014);
#52=PLANE('',#1015);
#53=PLANE('',#1016);
#54=PLANE('',#1017);
#55=PLANE('',#1018);
#56=PLANE('',#1019);
#57=PLANE('',#1020);
#58=PLANE('',#1021);
#59=PLANE('',#1022);
#60=PLANE('',#1023);
#61=PLANE('',#1026);
#62=PLANE('',#1027);
#63=PLANE('',#1028);
#64=PLANE('',#1029);
#65=PLANE('',#1030);
#66=PLANE('',#1031);
#67=PLANE('',#1032);
#68=PLANE('',#1033);
#69=PLANE('',#1034);
#70=PLANE('',#1035);
#71=PLANE('',#1036);
#72=PLANE('',#1039);
#73=PLANE('',#1042);
#74=PLANE('',#1044);
#75=PLANE('',#1046);
#76=FACE_OUTER_BOUND('',#135,.T.);
#77=FACE_OUTER_BOUND('',#136,.T.);
#78=FACE_OUTER_BOUND('',#137,.T.);
#79=FACE_OUTER_BOUND('',#138,.T.);
#80=FACE_OUTER_BOUND('',#139,.T.);
#81=FACE_OUTER_BOUND('',#140,.T.);
#82=FACE_OUTER_BOUND('',#141,.T.);
#83=FACE_OUTER_BOUND('',#143,.T.);
#84=FACE_OUTER_BOUND('',#144,.T.);
#85=FACE_OUTER_BOUND('',#145,.T.);
#86=FACE_OUTER_BOUND('',#146,.T.);
#87=FACE_OUTER_BOUND('',#147,.T.);
#88=FACE_OUTER_BOUND('',#148,.T.);
#89=FACE_OUTER_BOUND('',#149,.T.);
#90=FACE_OUTER_BOUND('',#150,.T.);
#91=FACE_OUTER_BOUND('',#151,.T.);
#92=FACE_OUTER_BOUND('',#152,.T.);
#93=FACE_OUTER_BOUND('',#153,.T.);
#94=FACE_OUTER_BOUND('',#154,.T.);
#95=FACE_OUTER_BOUND('',#155,.T.);
#96=FACE_OUTER_BOUND('',#156,.T.);
#97=FACE_OUTER_BOUND('',#157,.T.);
#98=FACE_OUTER_BOUND('',#158,.T.);
#99=FACE_OUTER_BOUND('',#159,.T.);
#100=FACE_OUTER_BOUND('',#160,.T.);
#101=FACE_OUTER_BOUND('',#161,.T.);
#102=FACE_OUTER_BOUND('',#162,.T.);
#103=FACE_OUTER_BOUND('',#163,.T.);
#104=FACE_OUTER_BOUND('',#164,.T.);
#105=FACE_OUTER_BOUND('',#165,.T.);
#106=FACE_OUTER_BOUND('',#166,.T.);
#107=FACE_OUTER_BOUND('',#167,.T.);
#108=FACE_OUTER_BOUND('',#168,.T.);
#109=FACE_OUTER_BOUND('',#169,.T.);
#110=FACE_OUTER_BOUND('',#170,.T.);
#111=FACE_OUTER_BOUND('',#171,.T.);
#112=FACE_OUTER_BOUND('',#172,.T.);
#113=FACE_OUTER_BOUND('',#173,.T.);
#114=FACE_OUTER_BOUND('',#174,.T.);
#115=FACE_OUTER_BOUND('',#175,.T.);
#116=FACE_OUTER_BOUND('',#176,.T.);
#117=FACE_OUTER_BOUND('',#178,.T.);
#118=FACE_OUTER_BOUND('',#179,.T.);
#119=FACE_OUTER_BOUND('',#180,.T.);
#120=FACE_OUTER_BOUND('',#181,.T.);
#121=FACE_OUTER_BOUND('',#182,.T.);
#122=FACE_OUTER_BOUND('',#184,.T.);
#123=FACE_OUTER_BOUND('',#185,.T.);
#124=FACE_OUTER_BOUND('',#186,.T.);
#125=FACE_OUTER_BOUND('',#187,.T.);
#126=FACE_OUTER_BOUND('',#188,.T.);
#127=FACE_OUTER_BOUND('',#189,.T.);
#128=FACE_OUTER_BOUND('',#190,.T.);
#129=FACE_OUTER_BOUND('',#191,.T.);
#130=FACE_OUTER_BOUND('',#193,.T.);
#131=FACE_OUTER_BOUND('',#194,.T.);
#132=FACE_OUTER_BOUND('',#195,.T.);
#133=FACE_OUTER_BOUND('',#196,.T.);
#134=FACE_OUTER_BOUND('',#197,.T.);
#135=EDGE_LOOP('',(#641,#642,#643,#644));
#136=EDGE_LOOP('',(#645,#646,#647,#648));
#137=EDGE_LOOP('',(#649,#650,#651,#652));
#138=EDGE_LOOP('',(#653,#654,#655,#656));
#139=EDGE_LOOP('',(#657,#658,#659,#660));
#140=EDGE_LOOP('',(#661,#662,#663,#664));
#141=EDGE_LOOP('',(#665,#666,#667,#668));
#142=EDGE_LOOP('',(#669,#670,#671,#672));
#143=EDGE_LOOP('',(#673,#674,#675,#676));
#144=EDGE_LOOP('',(#677,#678,#679,#680));
#145=EDGE_LOOP('',(#681,#682,#683));
#146=EDGE_LOOP('',(#684,#685,#686,#687));
#147=EDGE_LOOP('',(#688,#689,#690,#691));
#148=EDGE_LOOP('',(#692,#693,#694));
#149=EDGE_LOOP('',(#695,#696,#697,#698));
#150=EDGE_LOOP('',(#699,#700,#701,#702));
#151=EDGE_LOOP('',(#703,#704,#705));
#152=EDGE_LOOP('',(#706,#707,#708,#709));
#153=EDGE_LOOP('',(#710,#711,#712));
#154=EDGE_LOOP('',(#713,#714,#715,#716));
#155=EDGE_LOOP('',(#717,#718,#719,#720));
#156=EDGE_LOOP('',(#721,#722,#723));
#157=EDGE_LOOP('',(#724,#725,#726));
#158=EDGE_LOOP('',(#727,#728,#729,#730));
#159=EDGE_LOOP('',(#731,#732,#733,#734));
#160=EDGE_LOOP('',(#735,#736,#737));
#161=EDGE_LOOP('',(#738,#739,#740,#741));
#162=EDGE_LOOP('',(#742,#743,#744,#745));
#163=EDGE_LOOP('',(#746,#747,#748));
#164=EDGE_LOOP('',(#749,#750,#751,#752));
#165=EDGE_LOOP('',(#753,#754,#755,#756));
#166=EDGE_LOOP('',(#757,#758,#759,#760));
#167=EDGE_LOOP('',(#761,#762,#763,#764));
#168=EDGE_LOOP('',(#765,#766,#767,#768));
#169=EDGE_LOOP('',(#769,#770,#771,#772));
#170=EDGE_LOOP('',(#773,#774,#775,#776));
#171=EDGE_LOOP('',(#777,#778,#779,#780));
#172=EDGE_LOOP('',(#781,#782,#783,#784));
#173=EDGE_LOOP('',(#785,#786,#787,#788));
#174=EDGE_LOOP('',(#789,#790,#791,#792));
#175=EDGE_LOOP('',(#793,#794,#795,#796));
#176=EDGE_LOOP('',(#797,#798,#799,#800));
#177=EDGE_LOOP('',(#801,#802,#803,#804));
#178=EDGE_LOOP('',(#805,#806,#807,#808));
#179=EDGE_LOOP('',(#809,#810,#811,#812,#813,#814,#815,#816,#817));
#180=EDGE_LOOP('',(#818,#819,#820,#821,#822,#823,#824,#825,#826));
#181=EDGE_LOOP('',(#827,#828,#829,#830));
#182=EDGE_LOOP('',(#831,#832,#833,#834));
#183=EDGE_LOOP('',(#835,#836,#837,#838));
#184=EDGE_LOOP('',(#839,#840,#841,#842));
#185=EDGE_LOOP('',(#843,#844,#845,#846));
#186=EDGE_LOOP('',(#847,#848,#849,#850));
#187=EDGE_LOOP('',(#851,#852,#853,#854));
#188=EDGE_LOOP('',(#855,#856,#857,#858));
#189=EDGE_LOOP('',(#859,#860,#861,#862));
#190=EDGE_LOOP('',(#863,#864,#865,#866));
#191=EDGE_LOOP('',(#867,#868,#869,#870));
#192=EDGE_LOOP('',(#871,#872,#873,#874));
#193=EDGE_LOOP('',(#875,#876,#877,#878));
#194=EDGE_LOOP('',(#879,#880,#881,#882));
#195=EDGE_LOOP('',(#883,#884,#885,#886));
#196=EDGE_LOOP('',(#887,#888,#889,#890));
#197=EDGE_LOOP('',(#891,#892,#893,#894));
#198=CIRCLE('',#979,0.196870078740157);
#199=CIRCLE('',#980,0.1575);
#200=CIRCLE('',#983,0.196870078740157);
#201=CIRCLE('',#984,0.1575);
#202=CIRCLE('',#988,0.1575);
#203=CIRCLE('',#1024,0.0826771653543307);
#204=CIRCLE('',#1025,0.0826771653543307);
#205=CIRCLE('',#1038,0.1575);
#206=CIRCLE('',#1040,0.0826771653543307);
#207=CIRCLE('',#1041,0.0826771653543307);
#208=LINE('',#1308,#325);
#209=LINE('',#1312,#326);
#210=LINE('',#1317,#327);
#211=LINE('',#1318,#328);
#212=LINE('',#1319,#329);
#213=LINE('',#1323,#330);
#214=LINE('',#1327,#331);
#215=LINE('',#1328,#332);
#216=LINE('',#1331,#333);
#217=LINE('',#1333,#334);
#218=LINE('',#1334,#335);
#219=LINE('',#1337,#336);
#220=LINE('',#1342,#337);
#221=LINE('',#1344,#338);
#222=LINE('',#1346,#339);
#223=LINE('',#1347,#340);
#224=LINE('',#1351,#341);
#225=LINE('',#1353,#342);
#226=LINE('',#1355,#343);
#227=LINE('',#1356,#344);
#228=LINE('',#1360,#345);
#229=LINE('',#1362,#346);
#230=LINE('',#1364,#347);
#231=LINE('',#1365,#348);
#232=LINE('',#1369,#349);
#233=LINE('',#1371,#350);
#234=LINE('',#1372,#351);
#235=LINE('',#1375,#352);
#236=LINE('',#1377,#353);
#237=LINE('',#1378,#354);
#238=LINE('',#1381,#355);
#239=LINE('',#1383,#356);
#240=LINE('',#1384,#357);
#241=LINE('',#1388,#358);
#242=LINE('',#1390,#359);
#243=LINE('',#1391,#360);
#244=LINE('',#1393,#361);
#245=LINE('',#1394,#362);
#246=LINE('',#1396,#363);
#247=LINE('',#1397,#364);
#248=LINE('',#1401,#365);
#249=LINE('',#1403,#366);
#250=LINE('',#1404,#367);
#251=LINE('',#1407,#368);
#252=LINE('',#1409,#369);
#253=LINE('',#1410,#370);
#254=LINE('',#1414,#371);
#255=LINE('',#1416,#372);
#256=LINE('',#1417,#373);
#257=LINE('',#1419,#374);
#258=LINE('',#1420,#375);
#259=LINE('',#1422,#376);
#260=LINE('',#1423,#377);
#261=LINE('',#1426,#378);
#262=LINE('',#1428,#379);
#263=LINE('',#1429,#380);
#264=LINE('',#1432,#381);
#265=LINE('',#1434,#382);
#266=LINE('',#1435,#383);
#267=LINE('',#1437,#384);
#268=LINE('',#1438,#385);
#269=LINE('',#1440,#386);
#270=LINE('',#1443,#387);
#271=LINE('',#1445,#388);
#272=LINE('',#1446,#389);
#273=LINE('',#1448,#390);
#274=LINE('',#1450,#391);
#275=LINE('',#1451,#392);
#276=LINE('',#1455,#393);
#277=LINE('',#1456,#394);
#278=LINE('',#1457,#395);
#279=LINE('',#1459,#396);
#280=LINE('',#1461,#397);
#281=LINE('',#1464,#398);
#282=LINE('',#1466,#399);
#283=LINE('',#1467,#400);
#284=LINE('',#1470,#401);
#285=LINE('',#1472,#402);
#286=LINE('',#1473,#403);
#287=LINE('',#1475,#404);
#288=LINE('',#1476,#405);
#289=LINE('',#1479,#406);
#290=LINE('',#1481,#407);
#291=LINE('',#1482,#408);
#292=LINE('',#1484,#409);
#293=LINE('',#1485,#410);
#294=LINE('',#1487,#411);
#295=LINE('',#1488,#412);
#296=LINE('',#1490,#413);
#297=LINE('',#1491,#414);
#298=LINE('',#1493,#415);
#299=LINE('',#1494,#416);
#300=LINE('',#1496,#417);
#301=LINE('',#1498,#418);
#302=LINE('',#1500,#419);
#303=LINE('',#1503,#420);
#304=LINE('',#1507,#421);
#305=LINE('',#1516,#422);
#306=LINE('',#1518,#423);
#307=LINE('',#1520,#424);
#308=LINE('',#1521,#425);
#309=LINE('',#1524,#426);
#310=LINE('',#1526,#427);
#311=LINE('',#1527,#428);
#312=LINE('',#1530,#429);
#313=LINE('',#1531,#430);
#314=LINE('',#1534,#431);
#315=LINE('',#1535,#432);
#316=LINE('',#1537,#433);
#317=LINE('',#1541,#434);
#318=LINE('',#1542,#435);
#319=LINE('',#1548,#436);
#320=LINE('',#1552,#437);
#321=LINE('',#1555,#438);
#322=LINE('',#1556,#439);
#323=LINE('',#1558,#440);
#324=LINE('',#1560,#441);
#325=VECTOR('',#1051,0.393700787401575);
#326=VECTOR('',#1054,0.393700787401575);
#327=VECTOR('',#1059,0.393700787401575);
#328=VECTOR('',#1060,0.393700787401575);
#329=VECTOR('',#1061,0.393700787401575);
#330=VECTOR('',#1064,0.393700787401575);
#331=VECTOR('',#1071,0.393700787401575);
#332=VECTOR('',#1072,0.393700787401575);
#333=VECTOR('',#1075,0.393700787401575);
#334=VECTOR('',#1076,0.393700787401575);
#335=VECTOR('',#1077,0.393700787401575);
#336=VECTOR('',#1080,0.393700787401575);
#337=VECTOR('',#1085,0.393700787401575);
#338=VECTOR('',#1086,0.393700787401575);
#339=VECTOR('',#1087,0.393700787401575);
#340=VECTOR('',#1088,0.393700787401575);
#341=VECTOR('',#1091,0.393700787401575);
#342=VECTOR('',#1092,0.393700787401575);
#343=VECTOR('',#1093,0.393700787401575);
#344=VECTOR('',#1094,0.393700787401575);
#345=VECTOR('',#1097,0.393700787401575);
#346=VECTOR('',#1098,0.393700787401575);
#347=VECTOR('',#1099,0.393700787401575);
#348=VECTOR('',#1100,0.393700787401575);
#349=VECTOR('',#1103,0.393700787401575);
#350=VECTOR('',#1104,0.393700787401575);
#351=VECTOR('',#1105,0.393700787401575);
#352=VECTOR('',#1108,0.393700787401575);
#353=VECTOR('',#1109,0.393700787401575);
#354=VECTOR('',#1110,0.393700787401575);
#355=VECTOR('',#1113,0.393700787401575);
#356=VECTOR('',#1114,0.393700787401575);
#357=VECTOR('',#1115,0.393700787401575);
#358=VECTOR('',#1118,0.393700787401575);
#359=VECTOR('',#1119,0.393700787401575);
#360=VECTOR('',#1120,0.393700787401575);
#361=VECTOR('',#1123,0.393700787401575);
#362=VECTOR('',#1124,0.393700787401575);
#363=VECTOR('',#1127,0.393700787401575);
#364=VECTOR('',#1128,0.393700787401575);
#365=VECTOR('',#1131,0.393700787401575);
#366=VECTOR('',#1132,0.393700787401575);
#367=VECTOR('',#1133,0.393700787401575);
#368=VECTOR('',#1136,0.393700787401575);
#369=VECTOR('',#1137,0.393700787401575);
#370=VECTOR('',#1138,0.393700787401575);
#371=VECTOR('',#1141,0.393700787401575);
#372=VECTOR('',#1142,0.393700787401575);
#373=VECTOR('',#1143,0.393700787401575);
#374=VECTOR('',#1146,0.393700787401575);
#375=VECTOR('',#1147,0.393700787401575);
#376=VECTOR('',#1150,0.393700787401575);
#377=VECTOR('',#1151,0.393700787401575);
#378=VECTOR('',#1154,0.393700787401575);
#379=VECTOR('',#1155,0.393700787401575);
#380=VECTOR('',#1156,0.393700787401575);
#381=VECTOR('',#1159,0.393700787401575);
#382=VECTOR('',#1160,0.393700787401575);
#383=VECTOR('',#1161,0.393700787401575);
#384=VECTOR('',#1164,0.393700787401575);
#385=VECTOR('',#1165,0.393700787401575);
#386=VECTOR('',#1168,0.393700787401575);
#387=VECTOR('',#1171,0.393700787401575);
#388=VECTOR('',#1172,0.393700787401575);
#389=VECTOR('',#1173,0.393700787401575);
#390=VECTOR('',#1176,0.393700787401575);
#391=VECTOR('',#1179,0.393700787401575);
#392=VECTOR('',#1180,0.393700787401575);
#393=VECTOR('',#1183,0.393700787401575);
#394=VECTOR('',#1184,0.393700787401575);
#395=VECTOR('',#1185,0.393700787401575);
#396=VECTOR('',#1188,0.393700787401575);
#397=VECTOR('',#1191,0.393700787401575);
#398=VECTOR('',#1194,0.393700787401575);
#399=VECTOR('',#1195,0.393700787401575);
#400=VECTOR('',#1196,0.393700787401575);
#401=VECTOR('',#1199,0.393700787401575);
#402=VECTOR('',#1200,0.393700787401575);
#403=VECTOR('',#1201,0.393700787401575);
#404=VECTOR('',#1204,0.393700787401575);
#405=VECTOR('',#1205,0.393700787401575);
#406=VECTOR('',#1208,0.393700787401575);
#407=VECTOR('',#1209,0.393700787401575);
#408=VECTOR('',#1210,0.393700787401575);
#409=VECTOR('',#1213,0.393700787401575);
#410=VECTOR('',#1214,0.393700787401575);
#411=VECTOR('',#1217,0.393700787401575);
#412=VECTOR('',#1218,0.393700787401575);
#413=VECTOR('',#1221,0.393700787401575);
#414=VECTOR('',#1222,0.393700787401575);
#415=VECTOR('',#1225,0.393700787401575);
#416=VECTOR('',#1226,0.393700787401575);
#417=VECTOR('',#1229,0.393700787401575);
#418=VECTOR('',#1232,0.393700787401575);
#419=VECTOR('',#1235,0.393700787401575);
#420=VECTOR('',#1236,0.393700787401575);
#421=VECTOR('',#1239,0.393700787401575);
#422=VECTOR('',#1252,0.393700787401575);
#423=VECTOR('',#1253,0.393700787401575);
#424=VECTOR('',#1254,0.393700787401575);
#425=VECTOR('',#1255,0.393700787401575);
#426=VECTOR('',#1258,0.393700787401575);
#427=VECTOR('',#1259,0.393700787401575);
#428=VECTOR('',#1260,0.393700787401575);
#429=VECTOR('',#1263,0.393700787401575);
#430=VECTOR('',#1264,0.393700787401575);
#431=VECTOR('',#1267,0.393700787401575);
#432=VECTOR('',#1268,0.393700787401575);
#433=VECTOR('',#1271,0.393700787401575);
#434=VECTOR('',#1276,0.393700787401575);
#435=VECTOR('',#1277,0.393700787401575);
#436=VECTOR('',#1284,0.393700787401575);
#437=VECTOR('',#1287,0.393700787401575);
#438=VECTOR('',#1292,0.393700787401575);
#439=VECTOR('',#1293,0.393700787401575);
#440=VECTOR('',#1296,0.393700787401575);
#441=VECTOR('',#1299,0.393700787401575);
#442=VERTEX_POINT('',#1306);
#443=VERTEX_POINT('',#1307);
#444=VERTEX_POINT('',#1309);
#445=VERTEX_POINT('',#1311);
#446=VERTEX_POINT('',#1315);
#447=VERTEX_POINT('',#1316);
#448=VERTEX_POINT('',#1321);
#449=VERTEX_POINT('',#1322);
#450=VERTEX_POINT('',#1330);
#451=VERTEX_POINT('',#1332);
#452=VERTEX_POINT('',#1336);
#453=VERTEX_POINT('',#1340);
#454=VERTEX_POINT('',#1341);
#455=VERTEX_POINT('',#1343);
#456=VERTEX_POINT('',#1345);
#457=VERTEX_POINT('',#1349);
#458=VERTEX_POINT('',#1350);
#459=VERTEX_POINT('',#1352);
#460=VERTEX_POINT('',#1354);
#461=VERTEX_POINT('',#1358);
#462=VERTEX_POINT('',#1359);
#463=VERTEX_POINT('',#1361);
#464=VERTEX_POINT('',#1363);
#465=VERTEX_POINT('',#1367);
#466=VERTEX_POINT('',#1368);
#467=VERTEX_POINT('',#1370);
#468=VERTEX_POINT('',#1374);
#469=VERTEX_POINT('',#1376);
#470=VERTEX_POINT('',#1380);
#471=VERTEX_POINT('',#1382);
#472=VERTEX_POINT('',#1386);
#473=VERTEX_POINT('',#1387);
#474=VERTEX_POINT('',#1389);
#475=VERTEX_POINT('',#1399);
#476=VERTEX_POINT('',#1400);
#477=VERTEX_POINT('',#1402);
#478=VERTEX_POINT('',#1406);
#479=VERTEX_POINT('',#1408);
#480=VERTEX_POINT('',#1412);
#481=VERTEX_POINT('',#1413);
#482=VERTEX_POINT('',#1415);
#483=VERTEX_POINT('',#1425);
#484=VERTEX_POINT('',#1427);
#485=VERTEX_POINT('',#1431);
#486=VERTEX_POINT('',#1433);
#487=VERTEX_POINT('',#1442);
#488=VERTEX_POINT('',#1444);
#489=VERTEX_POINT('',#1453);
#490=VERTEX_POINT('',#1454);
#491=VERTEX_POINT('',#1463);
#492=VERTEX_POINT('',#1465);
#493=VERTEX_POINT('',#1469);
#494=VERTEX_POINT('',#1471);
#495=VERTEX_POINT('',#1478);
#496=VERTEX_POINT('',#1480);
#497=VERTEX_POINT('',#1501);
#498=VERTEX_POINT('',#1502);
#499=VERTEX_POINT('',#1504);
#500=VERTEX_POINT('',#1506);
#501=VERTEX_POINT('',#1514);
#502=VERTEX_POINT('',#1515);
#503=VERTEX_POINT('',#1517);
#504=VERTEX_POINT('',#1519);
#505=VERTEX_POINT('',#1523);
#506=VERTEX_POINT('',#1525);
#507=VERTEX_POINT('',#1529);
#508=VERTEX_POINT('',#1533);
#509=VERTEX_POINT('',#1540);
#510=VERTEX_POINT('',#1546);
#511=VERTEX_POINT('',#1547);
#512=VERTEX_POINT('',#1549);
#513=VERTEX_POINT('',#1551);
#514=EDGE_CURVE('',#442,#443,#208,.T.);
#515=EDGE_CURVE('',#443,#444,#198,.T.);
#516=EDGE_CURVE('',#444,#445,#209,.T.);
#517=EDGE_CURVE('',#445,#442,#199,.T.);
#518=EDGE_CURVE('',#446,#447,#210,.T.);
#519=EDGE_CURVE('',#447,#443,#211,.T.);
#520=EDGE_CURVE('',#442,#446,#212,.T.);
#521=EDGE_CURVE('',#448,#449,#213,.T.);
#522=EDGE_CURVE('',#449,#447,#200,.T.);
#523=EDGE_CURVE('',#446,#448,#201,.T.);
#524=EDGE_CURVE('',#444,#449,#214,.T.);
#525=EDGE_CURVE('',#448,#445,#215,.T.);
#526=EDGE_CURVE('',#442,#450,#216,.T.);
#527=EDGE_CURVE('',#450,#451,#217,.T.);
#528=EDGE_CURVE('',#446,#451,#218,.T.);
#529=EDGE_CURVE('',#445,#452,#219,.T.);
#530=EDGE_CURVE('',#452,#450,#202,.T.);
#531=EDGE_CURVE('',#453,#454,#220,.T.);
#532=EDGE_CURVE('',#455,#453,#221,.T.);
#533=EDGE_CURVE('',#456,#455,#222,.T.);
#534=EDGE_CURVE('',#454,#456,#223,.T.);
#535=EDGE_CURVE('',#457,#458,#224,.T.);
#536=EDGE_CURVE('',#458,#459,#225,.T.);
#537=EDGE_CURVE('',#459,#460,#226,.T.);
#538=EDGE_CURVE('',#457,#460,#227,.T.);
#539=EDGE_CURVE('',#461,#462,#228,.T.);
#540=EDGE_CURVE('',#462,#463,#229,.T.);
#541=EDGE_CURVE('',#463,#464,#230,.T.);
#542=EDGE_CURVE('',#461,#464,#231,.T.);
#543=EDGE_CURVE('',#465,#466,#232,.T.);
#544=EDGE_CURVE('',#467,#465,#233,.T.);
#545=EDGE_CURVE('',#466,#467,#234,.T.);
#546=EDGE_CURVE('',#468,#467,#235,.T.);
#547=EDGE_CURVE('',#465,#469,#236,.T.);
#548=EDGE_CURVE('',#469,#468,#237,.T.);
#549=EDGE_CURVE('',#458,#470,#238,.T.);
#550=EDGE_CURVE('',#470,#471,#239,.T.);
#551=EDGE_CURVE('',#471,#459,#240,.T.);
#552=EDGE_CURVE('',#472,#473,#241,.T.);
#553=EDGE_CURVE('',#474,#472,#242,.T.);
#554=EDGE_CURVE('',#473,#474,#243,.T.);
#555=EDGE_CURVE('',#472,#466,#244,.T.);
#556=EDGE_CURVE('',#467,#474,#245,.T.);
#557=EDGE_CURVE('',#462,#473,#246,.T.);
#558=EDGE_CURVE('',#474,#463,#247,.T.);
#559=EDGE_CURVE('',#475,#476,#248,.T.);
#560=EDGE_CURVE('',#477,#475,#249,.T.);
#561=EDGE_CURVE('',#476,#477,#250,.T.);
#562=EDGE_CURVE('',#470,#478,#251,.T.);
#563=EDGE_CURVE('',#478,#479,#252,.T.);
#564=EDGE_CURVE('',#479,#471,#253,.T.);
#565=EDGE_CURVE('',#480,#481,#254,.T.);
#566=EDGE_CURVE('',#482,#480,#255,.T.);
#567=EDGE_CURVE('',#481,#482,#256,.T.);
#568=EDGE_CURVE('',#480,#475,#257,.T.);
#569=EDGE_CURVE('',#476,#482,#258,.T.);
#570=EDGE_CURVE('',#473,#481,#259,.T.);
#571=EDGE_CURVE('',#482,#472,#260,.T.);
#572=EDGE_CURVE('',#453,#483,#261,.T.);
#573=EDGE_CURVE('',#484,#453,#262,.T.);
#574=EDGE_CURVE('',#483,#484,#263,.T.);
#575=EDGE_CURVE('',#485,#454,#264,.T.);
#576=EDGE_CURVE('',#486,#485,#265,.T.);
#577=EDGE_CURVE('',#454,#486,#266,.T.);
#578=EDGE_CURVE('',#478,#486,#267,.T.);
#579=EDGE_CURVE('',#485,#479,#268,.T.);
#580=EDGE_CURVE('',#486,#484,#269,.T.);
#581=EDGE_CURVE('',#455,#487,#270,.T.);
#582=EDGE_CURVE('',#488,#455,#271,.T.);
#583=EDGE_CURVE('',#487,#488,#272,.T.);
#584=EDGE_CURVE('',#483,#488,#273,.T.);
#585=EDGE_CURVE('',#481,#487,#274,.T.);
#586=EDGE_CURVE('',#488,#480,#275,.T.);
#587=EDGE_CURVE('',#489,#490,#276,.T.);
#588=EDGE_CURVE('',#456,#489,#277,.T.);
#589=EDGE_CURVE('',#490,#456,#278,.T.);
#590=EDGE_CURVE('',#489,#485,#279,.T.);
#591=EDGE_CURVE('',#487,#490,#280,.T.);
#592=EDGE_CURVE('',#491,#489,#281,.T.);
#593=EDGE_CURVE('',#490,#492,#282,.T.);
#594=EDGE_CURVE('',#492,#491,#283,.T.);
#595=EDGE_CURVE('',#493,#491,#284,.T.);
#596=EDGE_CURVE('',#492,#494,#285,.T.);
#597=EDGE_CURVE('',#494,#493,#286,.T.);
#598=EDGE_CURVE('',#475,#483,#287,.T.);
#599=EDGE_CURVE('',#484,#477,#288,.T.);
#600=EDGE_CURVE('',#495,#493,#289,.T.);
#601=EDGE_CURVE('',#494,#496,#290,.T.);
#602=EDGE_CURVE('',#496,#495,#291,.T.);
#603=EDGE_CURVE('',#466,#476,#292,.T.);
#604=EDGE_CURVE('',#477,#465,#293,.T.);
#605=EDGE_CURVE('',#464,#495,#294,.T.);
#606=EDGE_CURVE('',#496,#461,#295,.T.);
#607=EDGE_CURVE('',#460,#468,#296,.T.);
#608=EDGE_CURVE('',#469,#457,#297,.T.);
#609=EDGE_CURVE('',#471,#493,#298,.T.);
#610=EDGE_CURVE('',#479,#491,#299,.T.);
#611=EDGE_CURVE('',#459,#495,#300,.T.);
#612=EDGE_CURVE('',#468,#463,#301,.T.);
#613=EDGE_CURVE('',#460,#464,#302,.T.);
#614=EDGE_CURVE('',#497,#498,#303,.T.);
#615=EDGE_CURVE('',#498,#499,#203,.T.);
#616=EDGE_CURVE('',#499,#500,#304,.T.);
#617=EDGE_CURVE('',#500,#497,#204,.T.);
#618=EDGE_CURVE('',#501,#502,#305,.T.);
#619=EDGE_CURVE('',#503,#501,#306,.T.);
#620=EDGE_CURVE('',#504,#503,#307,.T.);
#621=EDGE_CURVE('',#502,#504,#308,.T.);
#622=EDGE_CURVE('',#502,#505,#309,.T.);
#623=EDGE_CURVE('',#505,#506,#310,.T.);
#624=EDGE_CURVE('',#506,#501,#311,.T.);
#625=EDGE_CURVE('',#504,#507,#312,.T.);
#626=EDGE_CURVE('',#507,#505,#313,.T.);
#627=EDGE_CURVE('',#508,#507,#314,.T.);
#628=EDGE_CURVE('',#503,#508,#315,.T.);
#629=EDGE_CURVE('',#506,#508,#316,.T.);
#630=EDGE_CURVE('',#448,#509,#317,.T.);
#631=EDGE_CURVE('',#509,#452,#318,.T.);
#632=EDGE_CURVE('',#451,#509,#205,.T.);
#633=EDGE_CURVE('',#510,#511,#319,.T.);
#634=EDGE_CURVE('',#512,#510,#206,.T.);
#635=EDGE_CURVE('',#513,#512,#320,.T.);
#636=EDGE_CURVE('',#511,#513,#207,.T.);
#637=EDGE_CURVE('',#512,#498,#321,.T.);
#638=EDGE_CURVE('',#513,#497,#322,.T.);
#639=EDGE_CURVE('',#510,#499,#323,.T.);
#640=EDGE_CURVE('',#511,#500,#324,.T.);
#641=ORIENTED_EDGE('',*,*,#514,.T.);
#642=ORIENTED_EDGE('',*,*,#515,.T.);
#643=ORIENTED_EDGE('',*,*,#516,.T.);
#644=ORIENTED_EDGE('',*,*,#517,.T.);
#645=ORIENTED_EDGE('',*,*,#518,.T.);
#646=ORIENTED_EDGE('',*,*,#519,.T.);
#647=ORIENTED_EDGE('',*,*,#514,.F.);
#648=ORIENTED_EDGE('',*,*,#520,.T.);
#649=ORIENTED_EDGE('',*,*,#521,.T.);
#650=ORIENTED_EDGE('',*,*,#522,.T.);
#651=ORIENTED_EDGE('',*,*,#518,.F.);
#652=ORIENTED_EDGE('',*,*,#523,.T.);
#653=ORIENTED_EDGE('',*,*,#516,.F.);
#654=ORIENTED_EDGE('',*,*,#524,.T.);
#655=ORIENTED_EDGE('',*,*,#521,.F.);
#656=ORIENTED_EDGE('',*,*,#525,.T.);
#657=ORIENTED_EDGE('',*,*,#520,.F.);
#658=ORIENTED_EDGE('',*,*,#526,.T.);
#659=ORIENTED_EDGE('',*,*,#527,.T.);
#660=ORIENTED_EDGE('',*,*,#528,.F.);
#661=ORIENTED_EDGE('',*,*,#517,.F.);
#662=ORIENTED_EDGE('',*,*,#529,.T.);
#663=ORIENTED_EDGE('',*,*,#530,.T.);
#664=ORIENTED_EDGE('',*,*,#526,.F.);
#665=ORIENTED_EDGE('',*,*,#531,.F.);
#666=ORIENTED_EDGE('',*,*,#532,.F.);
#667=ORIENTED_EDGE('',*,*,#533,.F.);
#668=ORIENTED_EDGE('',*,*,#534,.F.);
#669=ORIENTED_EDGE('',*,*,#515,.F.);
#670=ORIENTED_EDGE('',*,*,#519,.F.);
#671=ORIENTED_EDGE('',*,*,#522,.F.);
#672=ORIENTED_EDGE('',*,*,#524,.F.);
#673=ORIENTED_EDGE('',*,*,#535,.T.);
#674=ORIENTED_EDGE('',*,*,#536,.T.);
#675=ORIENTED_EDGE('',*,*,#537,.T.);
#676=ORIENTED_EDGE('',*,*,#538,.F.);
#677=ORIENTED_EDGE('',*,*,#539,.T.);
#678=ORIENTED_EDGE('',*,*,#540,.T.);
#679=ORIENTED_EDGE('',*,*,#541,.T.);
#680=ORIENTED_EDGE('',*,*,#542,.F.);
#681=ORIENTED_EDGE('',*,*,#543,.F.);
#682=ORIENTED_EDGE('',*,*,#544,.F.);
#683=ORIENTED_EDGE('',*,*,#545,.F.);
#684=ORIENTED_EDGE('',*,*,#546,.T.);
#685=ORIENTED_EDGE('',*,*,#544,.T.);
#686=ORIENTED_EDGE('',*,*,#547,.T.);
#687=ORIENTED_EDGE('',*,*,#548,.T.);
#688=ORIENTED_EDGE('',*,*,#549,.T.);
#689=ORIENTED_EDGE('',*,*,#550,.T.);
#690=ORIENTED_EDGE('',*,*,#551,.T.);
#691=ORIENTED_EDGE('',*,*,#536,.F.);
#692=ORIENTED_EDGE('',*,*,#552,.F.);
#693=ORIENTED_EDGE('',*,*,#553,.F.);
#694=ORIENTED_EDGE('',*,*,#554,.F.);
#695=ORIENTED_EDGE('',*,*,#553,.T.);
#696=ORIENTED_EDGE('',*,*,#555,.T.);
#697=ORIENTED_EDGE('',*,*,#545,.T.);
#698=ORIENTED_EDGE('',*,*,#556,.T.);
#699=ORIENTED_EDGE('',*,*,#557,.T.);
#700=ORIENTED_EDGE('',*,*,#554,.T.);
#701=ORIENTED_EDGE('',*,*,#558,.T.);
#702=ORIENTED_EDGE('',*,*,#540,.F.);
#703=ORIENTED_EDGE('',*,*,#559,.F.);
#704=ORIENTED_EDGE('',*,*,#560,.F.);
#705=ORIENTED_EDGE('',*,*,#561,.F.);
#706=ORIENTED_EDGE('',*,*,#562,.T.);
#707=ORIENTED_EDGE('',*,*,#563,.T.);
#708=ORIENTED_EDGE('',*,*,#564,.T.);
#709=ORIENTED_EDGE('',*,*,#550,.F.);
#710=ORIENTED_EDGE('',*,*,#565,.F.);
#711=ORIENTED_EDGE('',*,*,#566,.F.);
#712=ORIENTED_EDGE('',*,*,#567,.F.);
#713=ORIENTED_EDGE('',*,*,#566,.T.);
#714=ORIENTED_EDGE('',*,*,#568,.T.);
#715=ORIENTED_EDGE('',*,*,#559,.T.);
#716=ORIENTED_EDGE('',*,*,#569,.T.);
#717=ORIENTED_EDGE('',*,*,#552,.T.);
#718=ORIENTED_EDGE('',*,*,#570,.T.);
#719=ORIENTED_EDGE('',*,*,#567,.T.);
#720=ORIENTED_EDGE('',*,*,#571,.T.);
#721=ORIENTED_EDGE('',*,*,#572,.F.);
#722=ORIENTED_EDGE('',*,*,#573,.F.);
#723=ORIENTED_EDGE('',*,*,#574,.F.);
#724=ORIENTED_EDGE('',*,*,#575,.F.);
#725=ORIENTED_EDGE('',*,*,#576,.F.);
#726=ORIENTED_EDGE('',*,*,#577,.F.);
#727=ORIENTED_EDGE('',*,*,#578,.T.);
#728=ORIENTED_EDGE('',*,*,#576,.T.);
#729=ORIENTED_EDGE('',*,*,#579,.T.);
#730=ORIENTED_EDGE('',*,*,#563,.F.);
#731=ORIENTED_EDGE('',*,*,#573,.T.);
#732=ORIENTED_EDGE('',*,*,#531,.T.);
#733=ORIENTED_EDGE('',*,*,#577,.T.);
#734=ORIENTED_EDGE('',*,*,#580,.T.);
#735=ORIENTED_EDGE('',*,*,#581,.F.);
#736=ORIENTED_EDGE('',*,*,#582,.F.);
#737=ORIENTED_EDGE('',*,*,#583,.F.);
#738=ORIENTED_EDGE('',*,*,#582,.T.);
#739=ORIENTED_EDGE('',*,*,#532,.T.);
#740=ORIENTED_EDGE('',*,*,#572,.T.);
#741=ORIENTED_EDGE('',*,*,#584,.T.);
#742=ORIENTED_EDGE('',*,*,#565,.T.);
#743=ORIENTED_EDGE('',*,*,#585,.T.);
#744=ORIENTED_EDGE('',*,*,#583,.T.);
#745=ORIENTED_EDGE('',*,*,#586,.T.);
#746=ORIENTED_EDGE('',*,*,#587,.F.);
#747=ORIENTED_EDGE('',*,*,#588,.F.);
#748=ORIENTED_EDGE('',*,*,#589,.F.);
#749=ORIENTED_EDGE('',*,*,#588,.T.);
#750=ORIENTED_EDGE('',*,*,#590,.T.);
#751=ORIENTED_EDGE('',*,*,#575,.T.);
#752=ORIENTED_EDGE('',*,*,#534,.T.);
#753=ORIENTED_EDGE('',*,*,#581,.T.);
#754=ORIENTED_EDGE('',*,*,#591,.T.);
#755=ORIENTED_EDGE('',*,*,#589,.T.);
#756=ORIENTED_EDGE('',*,*,#533,.T.);
#757=ORIENTED_EDGE('',*,*,#592,.T.);
#758=ORIENTED_EDGE('',*,*,#587,.T.);
#759=ORIENTED_EDGE('',*,*,#593,.T.);
#760=ORIENTED_EDGE('',*,*,#594,.T.);
#761=ORIENTED_EDGE('',*,*,#595,.T.);
#762=ORIENTED_EDGE('',*,*,#594,.F.);
#763=ORIENTED_EDGE('',*,*,#596,.T.);
#764=ORIENTED_EDGE('',*,*,#597,.T.);
#765=ORIENTED_EDGE('',*,*,#560,.T.);
#766=ORIENTED_EDGE('',*,*,#598,.T.);
#767=ORIENTED_EDGE('',*,*,#574,.T.);
#768=ORIENTED_EDGE('',*,*,#599,.T.);
#769=ORIENTED_EDGE('',*,*,#600,.T.);
#770=ORIENTED_EDGE('',*,*,#597,.F.);
#771=ORIENTED_EDGE('',*,*,#601,.T.);
#772=ORIENTED_EDGE('',*,*,#602,.T.);
#773=ORIENTED_EDGE('',*,*,#543,.T.);
#774=ORIENTED_EDGE('',*,*,#603,.T.);
#775=ORIENTED_EDGE('',*,*,#561,.T.);
#776=ORIENTED_EDGE('',*,*,#604,.T.);
#777=ORIENTED_EDGE('',*,*,#605,.T.);
#778=ORIENTED_EDGE('',*,*,#602,.F.);
#779=ORIENTED_EDGE('',*,*,#606,.T.);
#780=ORIENTED_EDGE('',*,*,#542,.T.);
#781=ORIENTED_EDGE('',*,*,#607,.T.);
#782=ORIENTED_EDGE('',*,*,#548,.F.);
#783=ORIENTED_EDGE('',*,*,#608,.T.);
#784=ORIENTED_EDGE('',*,*,#538,.T.);
#785=ORIENTED_EDGE('',*,*,#595,.F.);
#786=ORIENTED_EDGE('',*,*,#609,.F.);
#787=ORIENTED_EDGE('',*,*,#564,.F.);
#788=ORIENTED_EDGE('',*,*,#610,.T.);
#789=ORIENTED_EDGE('',*,*,#600,.F.);
#790=ORIENTED_EDGE('',*,*,#611,.F.);
#791=ORIENTED_EDGE('',*,*,#551,.F.);
#792=ORIENTED_EDGE('',*,*,#609,.T.);
#793=ORIENTED_EDGE('',*,*,#558,.F.);
#794=ORIENTED_EDGE('',*,*,#556,.F.);
#795=ORIENTED_EDGE('',*,*,#546,.F.);
#796=ORIENTED_EDGE('',*,*,#612,.T.);
#797=ORIENTED_EDGE('',*,*,#605,.F.);
#798=ORIENTED_EDGE('',*,*,#613,.F.);
#799=ORIENTED_EDGE('',*,*,#537,.F.);
#800=ORIENTED_EDGE('',*,*,#611,.T.);
#801=ORIENTED_EDGE('',*,*,#614,.T.);
#802=ORIENTED_EDGE('',*,*,#615,.T.);
#803=ORIENTED_EDGE('',*,*,#616,.T.);
#804=ORIENTED_EDGE('',*,*,#617,.T.);
#805=ORIENTED_EDGE('',*,*,#541,.F.);
#806=ORIENTED_EDGE('',*,*,#612,.F.);
#807=ORIENTED_EDGE('',*,*,#607,.F.);
#808=ORIENTED_EDGE('',*,*,#613,.T.);
#809=ORIENTED_EDGE('',*,*,#539,.F.);
#810=ORIENTED_EDGE('',*,*,#606,.F.);
#811=ORIENTED_EDGE('',*,*,#601,.F.);
#812=ORIENTED_EDGE('',*,*,#596,.F.);
#813=ORIENTED_EDGE('',*,*,#593,.F.);
#814=ORIENTED_EDGE('',*,*,#591,.F.);
#815=ORIENTED_EDGE('',*,*,#585,.F.);
#816=ORIENTED_EDGE('',*,*,#570,.F.);
#817=ORIENTED_EDGE('',*,*,#557,.F.);
#818=ORIENTED_EDGE('',*,*,#547,.F.);
#819=ORIENTED_EDGE('',*,*,#604,.F.);
#820=ORIENTED_EDGE('',*,*,#599,.F.);
#821=ORIENTED_EDGE('',*,*,#580,.F.);
#822=ORIENTED_EDGE('',*,*,#578,.F.);
#823=ORIENTED_EDGE('',*,*,#562,.F.);
#824=ORIENTED_EDGE('',*,*,#549,.F.);
#825=ORIENTED_EDGE('',*,*,#535,.F.);
#826=ORIENTED_EDGE('',*,*,#608,.F.);
#827=ORIENTED_EDGE('',*,*,#569,.F.);
#828=ORIENTED_EDGE('',*,*,#603,.F.);
#829=ORIENTED_EDGE('',*,*,#555,.F.);
#830=ORIENTED_EDGE('',*,*,#571,.F.);
#831=ORIENTED_EDGE('',*,*,#584,.F.);
#832=ORIENTED_EDGE('',*,*,#598,.F.);
#833=ORIENTED_EDGE('',*,*,#568,.F.);
#834=ORIENTED_EDGE('',*,*,#586,.F.);
#835=ORIENTED_EDGE('',*,*,#618,.F.);
#836=ORIENTED_EDGE('',*,*,#619,.F.);
#837=ORIENTED_EDGE('',*,*,#620,.F.);
#838=ORIENTED_EDGE('',*,*,#621,.F.);
#839=ORIENTED_EDGE('',*,*,#618,.T.);
#840=ORIENTED_EDGE('',*,*,#622,.T.);
#841=ORIENTED_EDGE('',*,*,#623,.T.);
#842=ORIENTED_EDGE('',*,*,#624,.T.);
#843=ORIENTED_EDGE('',*,*,#621,.T.);
#844=ORIENTED_EDGE('',*,*,#625,.T.);
#845=ORIENTED_EDGE('',*,*,#626,.T.);
#846=ORIENTED_EDGE('',*,*,#622,.F.);
#847=ORIENTED_EDGE('',*,*,#627,.T.);
#848=ORIENTED_EDGE('',*,*,#625,.F.);
#849=ORIENTED_EDGE('',*,*,#620,.T.);
#850=ORIENTED_EDGE('',*,*,#628,.T.);
#851=ORIENTED_EDGE('',*,*,#619,.T.);
#852=ORIENTED_EDGE('',*,*,#624,.F.);
#853=ORIENTED_EDGE('',*,*,#629,.T.);
#854=ORIENTED_EDGE('',*,*,#628,.F.);
#855=ORIENTED_EDGE('',*,*,#629,.F.);
#856=ORIENTED_EDGE('',*,*,#623,.F.);
#857=ORIENTED_EDGE('',*,*,#626,.F.);
#858=ORIENTED_EDGE('',*,*,#627,.F.);
#859=ORIENTED_EDGE('',*,*,#525,.F.);
#860=ORIENTED_EDGE('',*,*,#630,.T.);
#861=ORIENTED_EDGE('',*,*,#631,.T.);
#862=ORIENTED_EDGE('',*,*,#529,.F.);
#863=ORIENTED_EDGE('',*,*,#523,.F.);
#864=ORIENTED_EDGE('',*,*,#528,.T.);
#865=ORIENTED_EDGE('',*,*,#632,.T.);
#866=ORIENTED_EDGE('',*,*,#630,.F.);
#867=ORIENTED_EDGE('',*,*,#530,.F.);
#868=ORIENTED_EDGE('',*,*,#631,.F.);
#869=ORIENTED_EDGE('',*,*,#632,.F.);
#870=ORIENTED_EDGE('',*,*,#527,.F.);
#871=ORIENTED_EDGE('',*,*,#633,.F.);
#872=ORIENTED_EDGE('',*,*,#634,.F.);
#873=ORIENTED_EDGE('',*,*,#635,.F.);
#874=ORIENTED_EDGE('',*,*,#636,.F.);
#875=ORIENTED_EDGE('',*,*,#635,.T.);
#876=ORIENTED_EDGE('',*,*,#637,.T.);
#877=ORIENTED_EDGE('',*,*,#614,.F.);
#878=ORIENTED_EDGE('',*,*,#638,.F.);
#879=ORIENTED_EDGE('',*,*,#634,.T.);
#880=ORIENTED_EDGE('',*,*,#639,.T.);
#881=ORIENTED_EDGE('',*,*,#615,.F.);
#882=ORIENTED_EDGE('',*,*,#637,.F.);
#883=ORIENTED_EDGE('',*,*,#633,.T.);
#884=ORIENTED_EDGE('',*,*,#640,.T.);
#885=ORIENTED_EDGE('',*,*,#616,.F.);
#886=ORIENTED_EDGE('',*,*,#639,.F.);
#887=ORIENTED_EDGE('',*,*,#636,.T.);
#888=ORIENTED_EDGE('',*,*,#638,.T.);
#889=ORIENTED_EDGE('',*,*,#617,.F.);
#890=ORIENTED_EDGE('',*,*,#640,.F.);
#891=ORIENTED_EDGE('',*,*,#592,.F.);
#892=ORIENTED_EDGE('',*,*,#610,.F.);
#893=ORIENTED_EDGE('',*,*,#579,.F.);
#894=ORIENTED_EDGE('',*,*,#590,.F.);
#895=CONICAL_SURFACE('',#978,0.177185039370079,0.785398163397445);
#896=CONICAL_SURFACE('',#982,0.177185039370079,0.785398163397447);
#897=ADVANCED_FACE('',(#76),#895,.F.);
#898=ADVANCED_FACE('',(#77),#23,.T.);
#899=ADVANCED_FACE('',(#78),#896,.F.);
#900=ADVANCED_FACE('',(#79),#24,.T.);
#901=ADVANCED_FACE('',(#80),#25,.F.);
#902=ADVANCED_FACE('',(#81),#19,.F.);
#903=ADVANCED_FACE('',(#82,#15),#26,.T.);
#904=ADVANCED_FACE('',(#83),#27,.T.);
#905=ADVANCED_FACE('',(#84),#28,.T.);
#906=ADVANCED_FACE('',(#85),#29,.T.);
#907=ADVANCED_FACE('',(#86),#30,.T.);
#908=ADVANCED_FACE('',(#87),#31,.T.);
#909=ADVANCED_FACE('',(#88),#32,.T.);
#910=ADVANCED_FACE('',(#89),#33,.T.);
#911=ADVANCED_FACE('',(#90),#34,.T.);
#912=ADVANCED_FACE('',(#91),#35,.T.);
#913=ADVANCED_FACE('',(#92),#36,.T.);
#914=ADVANCED_FACE('',(#93),#37,.T.);
#915=ADVANCED_FACE('',(#94),#38,.T.);
#916=ADVANCED_FACE('',(#95),#39,.T.);
#917=ADVANCED_FACE('',(#96),#40,.T.);
#918=ADVANCED_FACE('',(#97),#41,.T.);
#919=ADVANCED_FACE('',(#98),#42,.T.);
#920=ADVANCED_FACE('',(#99),#43,.T.);
#921=ADVANCED_FACE('',(#100),#44,.T.);
#922=ADVANCED_FACE('',(#101),#45,.T.);
#923=ADVANCED_FACE('',(#102),#46,.T.);
#924=ADVANCED_FACE('',(#103),#47,.T.);
#925=ADVANCED_FACE('',(#104),#48,.T.);
#926=ADVANCED_FACE('',(#105),#49,.T.);
#927=ADVANCED_FACE('',(#106),#50,.T.);
#928=ADVANCED_FACE('',(#107),#51,.T.);
#929=ADVANCED_FACE('',(#108),#52,.T.);
#930=ADVANCED_FACE('',(#109),#53,.T.);
#931=ADVANCED_FACE('',(#110),#54,.T.);
#932=ADVANCED_FACE('',(#111),#55,.T.);
#933=ADVANCED_FACE('',(#112),#56,.T.);
#934=ADVANCED_FACE('',(#113),#57,.T.);
#935=ADVANCED_FACE('',(#114),#58,.T.);
#936=ADVANCED_FACE('',(#115),#59,.T.);
#937=ADVANCED_FACE('',(#116,#16),#60,.T.);
#938=ADVANCED_FACE('',(#117),#61,.T.);
#939=ADVANCED_FACE('',(#118),#62,.T.);
#940=ADVANCED_FACE('',(#119),#63,.F.);
#941=ADVANCED_FACE('',(#120),#64,.T.);
#942=ADVANCED_FACE('',(#121,#17),#65,.T.);
#943=ADVANCED_FACE('',(#122),#66,.T.);
#944=ADVANCED_FACE('',(#123),#67,.T.);
#945=ADVANCED_FACE('',(#124),#68,.T.);
#946=ADVANCED_FACE('',(#125),#69,.T.);
#947=ADVANCED_FACE('',(#126),#70,.F.);
#948=ADVANCED_FACE('',(#127),#71,.F.);
#949=ADVANCED_FACE('',(#128),#20,.F.);
#950=ADVANCED_FACE('',(#129,#18),#72,.T.);
#951=ADVANCED_FACE('',(#130),#73,.F.);
#952=ADVANCED_FACE('',(#131),#21,.F.);
#953=ADVANCED_FACE('',(#132),#74,.F.);
#954=ADVANCED_FACE('',(#133),#22,.F.);
#955=ADVANCED_FACE('',(#134),#75,.T.);
#956=CLOSED_SHELL('',(#897,#898,#899,#900,#901,#902,#903,#904,#905,#906,
#907,#908,#909,#910,#911,#912,#913,#914,#915,#916,#917,#918,#919,#920,#921,
#922,#923,#924,#925,#926,#927,#928,#929,#930,#931,#932,#933,#934,#935,#936,
#937,#938,#939,#940,#941,#942,#943,#944,#945,#946,#947,#948,#949,#950,#951,
#952,#953,#954,#955));
#957=DERIVED_UNIT_ELEMENT(#959,1.);
#958=DERIVED_UNIT_ELEMENT(#1571,-3.);
#959=(
CONVERSION_BASED_UNIT('gram',#961)
MASS_UNIT()
NAMED_UNIT(#1568)
);
#960=(
MASS_UNIT()
NAMED_UNIT(*)
SI_UNIT(.KILO.,.GRAM.)
);
#961=MASS_MEASURE_WITH_UNIT(MASS_MEASURE(0.001),#960);
#962=DERIVED_UNIT((#957,#958));
#963=MEASURE_REPRESENTATION_ITEM('density measure',
POSITIVE_RATIO_MEASURE(1.06),#962);
#964=PROPERTY_DEFINITION_REPRESENTATION(#969,#966);
#965=PROPERTY_DEFINITION_REPRESENTATION(#970,#967);
#966=REPRESENTATION('material name',(#968),#1565);
#967=REPRESENTATION('density',(#963),#1565);
#968=DESCRIPTIVE_REPRESENTATION_ITEM('ABS Plastic','ABS Plastic');
#969=PROPERTY_DEFINITION('material property','material name',#1579);
#970=PROPERTY_DEFINITION('material property','density of part',#1579);
#971=DATE_TIME_ROLE('creation_date');
#972=APPLIED_DATE_AND_TIME_ASSIGNMENT(#973,#971,(#1579));
#973=DATE_AND_TIME(#974,#975);
#974=CALENDAR_DATE(2026,19,7);
#975=LOCAL_TIME(0,0,0.,#976);
#976=COORDINATED_UNIVERSAL_TIME_OFFSET(0,0,.BEHIND.);
#977=AXIS2_PLACEMENT_3D('',#1304,#1047,#1048);
#978=AXIS2_PLACEMENT_3D('',#1305,#1049,#1050);
#979=AXIS2_PLACEMENT_3D('',#1310,#1052,#1053);
#980=AXIS2_PLACEMENT_3D('',#1313,#1055,#1056);
#981=AXIS2_PLACEMENT_3D('',#1314,#1057,#1058);
#982=AXIS2_PLACEMENT_3D('',#1320,#1062,#1063);
#983=AXIS2_PLACEMENT_3D('',#1324,#1065,#1066);
#984=AXIS2_PLACEMENT_3D('',#1325,#1067,#1068);
#985=AXIS2_PLACEMENT_3D('',#1326,#1069,#1070);
#986=AXIS2_PLACEMENT_3D('',#1329,#1073,#1074);
#987=AXIS2_PLACEMENT_3D('',#1335,#1078,#1079);
#988=AXIS2_PLACEMENT_3D('',#1338,#1081,#1082);
#989=AXIS2_PLACEMENT_3D('',#1339,#1083,#1084);
#990=AXIS2_PLACEMENT_3D('',#1348,#1089,#1090);
#991=AXIS2_PLACEMENT_3D('',#1357,#1095,#1096);
#992=AXIS2_PLACEMENT_3D('',#1366,#1101,#1102);
#993=AXIS2_PLACEMENT_3D('',#1373,#1106,#1107);
#994=AXIS2_PLACEMENT_3D('',#1379,#1111,#1112);
#995=AXIS2_PLACEMENT_3D('',#1385,#1116,#1117);
#996=AXIS2_PLACEMENT_3D('',#1392,#1121,#1122);
#997=AXIS2_PLACEMENT_3D('',#1395,#1125,#1126);
#998=AXIS2_PLACEMENT_3D('',#1398,#1129,#1130);
#999=AXIS2_PLACEMENT_3D('',#1405,#1134,#1135);
#1000=AXIS2_PLACEMENT_3D('',#1411,#1139,#1140);
#1001=AXIS2_PLACEMENT_3D('',#1418,#1144,#1145);
#1002=AXIS2_PLACEMENT_3D('',#1421,#1148,#1149);
#1003=AXIS2_PLACEMENT_3D('',#1424,#1152,#1153);
#1004=AXIS2_PLACEMENT_3D('',#1430,#1157,#1158);
#1005=AXIS2_PLACEMENT_3D('',#1436,#1162,#1163);
#1006=AXIS2_PLACEMENT_3D('',#1439,#1166,#1167);
#1007=AXIS2_PLACEMENT_3D('',#1441,#1169,#1170);
#1008=AXIS2_PLACEMENT_3D('',#1447,#1174,#1175);
#1009=AXIS2_PLACEMENT_3D('',#1449,#1177,#1178);
#1010=AXIS2_PLACEMENT_3D('',#1452,#1181,#1182);
#1011=AXIS2_PLACEMENT_3D('',#1458,#1186,#1187);
#1012=AXIS2_PLACEMENT_3D('',#1460,#1189,#1190);
#1013=AXIS2_PLACEMENT_3D('',#1462,#1192,#1193);
#1014=AXIS2_PLACEMENT_3D('',#1468,#1197,#1198);
#1015=AXIS2_PLACEMENT_3D('',#1474,#1202,#1203);
#1016=AXIS2_PLACEMENT_3D('',#1477,#1206,#1207);
#1017=AXIS2_PLACEMENT_3D('',#1483,#1211,#1212);
#1018=AXIS2_PLACEMENT_3D('',#1486,#1215,#1216);
#1019=AXIS2_PLACEMENT_3D('',#1489,#1219,#1220);
#1020=AXIS2_PLACEMENT_3D('',#1492,#1223,#1224);
#1021=AXIS2_PLACEMENT_3D('',#1495,#1227,#1228);
#1022=AXIS2_PLACEMENT_3D('',#1497,#1230,#1231);
#1023=AXIS2_PLACEMENT_3D('',#1499,#1233,#1234);
#1024=AXIS2_PLACEMENT_3D('',#1505,#1237,#1238);
#1025=AXIS2_PLACEMENT_3D('',#1508,#1240,#1241);
#1026=AXIS2_PLACEMENT_3D('',#1509,#1242,#1243);
#1027=AXIS2_PLACEMENT_3D('',#1510,#1244,#1245);
#1028=AXIS2_PLACEMENT_3D('',#1511,#1246,#1247);
#1029=AXIS2_PLACEMENT_3D('',#1512,#1248,#1249);
#1030=AXIS2_PLACEMENT_3D('',#1513,#1250,#1251);
#1031=AXIS2_PLACEMENT_3D('',#1522,#1256,#1257);
#1032=AXIS2_PLACEMENT_3D('',#1528,#1261,#1262);
#1033=AXIS2_PLACEMENT_3D('',#1532,#1265,#1266);
#1034=AXIS2_PLACEMENT_3D('',#1536,#1269,#1270);
#1035=AXIS2_PLACEMENT_3D('',#1538,#1272,#1273);
#1036=AXIS2_PLACEMENT_3D('',#1539,#1274,#1275);
#1037=AXIS2_PLACEMENT_3D('',#1543,#1278,#1279);
#1038=AXIS2_PLACEMENT_3D('',#1544,#1280,#1281);
#1039=AXIS2_PLACEMENT_3D('',#1545,#1282,#1283);
#1040=AXIS2_PLACEMENT_3D('',#1550,#1285,#1286);
#1041=AXIS2_PLACEMENT_3D('',#1553,#1288,#1289);
#1042=AXIS2_PLACEMENT_3D('',#1554,#1290,#1291);
#1043=AXIS2_PLACEMENT_3D('',#1557,#1294,#1295);
#1044=AXIS2_PLACEMENT_3D('',#1559,#1297,#1298);
#1045=AXIS2_PLACEMENT_3D('',#1561,#1300,#1301);
#1046=AXIS2_PLACEMENT_3D('',#1562,#1302,#1303);
#1047=DIRECTION('axis',(0.,0.,1.));
#1048=DIRECTION('refdir',(1.,0.,0.));
#1049=DIRECTION('center_axis',(0.,1.,0.));
#1050=DIRECTION('ref_axis',(0.,0.,1.));
#1051=DIRECTION('',(1.57009245868377E-15,0.70710678118655,0.707106781186545));
#1052=DIRECTION('center_axis',(-4.00080369234291E-16,1.,0.));
#1053=DIRECTION('ref_axis',(0.,0.,1.));
#1054=DIRECTION('',(0.,-0.70710678118655,0.707106781186545));
#1055=DIRECTION('center_axis',(4.00080369234291E-16,-1.,0.));
#1056=DIRECTION('ref_axis',(0.,0.,1.));
#1057=DIRECTION('center_axis',(-2.82899542105185E-16,0.707106781186548,
-0.707106781186547));
#1058=DIRECTION('ref_axis',(-1.,0.,4.00080369234291E-16));
#1059=DIRECTION('',(0.,0.707106781186547,0.707106781186548));
#1060=DIRECTION('',(1.,4.00080369234291E-16,0.));
#1061=DIRECTION('',(-1.,-4.00080369234291E-16,0.));
#1062=DIRECTION('center_axis',(0.,1.,0.));
#1063=DIRECTION('ref_axis',(0.,0.,-1.));
#1064=DIRECTION('',(-1.57009245868377E-15,0.707106781186549,-0.707106781186546));
#1065=DIRECTION('center_axis',(-4.00080369234291E-16,1.,0.));
#1066=DIRECTION('ref_axis',(0.,0.,-1.));
#1067=DIRECTION('center_axis',(4.00080369234291E-16,-1.,0.));
#1068=DIRECTION('ref_axis',(0.,0.,-1.));
#1069=DIRECTION('center_axis',(-2.82899542105184E-16,0.707106781186547,
0.707106781186548));
#1070=DIRECTION('ref_axis',(1.,0.,4.0008036923429E-16));
#1071=DIRECTION('',(-1.,-4.00080369234291E-16,0.));
#1072=DIRECTION('',(1.,4.00080369234291E-16,0.));
#1073=DIRECTION('center_axis',(0.,0.,1.));
#1074=DIRECTION('ref_axis',(-1.,-4.00080369234291E-16,0.));
#1075=DIRECTION('',(5.55111512312578E-16,-1.,0.));
#1076=DIRECTION('',(-1.,-4.00080369234291E-16,0.));
#1077=DIRECTION('',(5.55111512312578E-16,-1.,0.));
#1078=DIRECTION('center_axis',(5.55111512312578E-16,-1.,0.));
#1079=DIRECTION('ref_axis',(0.,0.,1.));
#1080=DIRECTION('',(5.55111512312578E-16,-1.,0.));
#1081=DIRECTION('center_axis',(4.00080369234291E-16,-1.,0.));
#1082=DIRECTION('ref_axis',(0.,0.,1.));
#1083=DIRECTION('center_axis',(-4.00080369234291E-16,1.,0.));
#1084=DIRECTION('ref_axis',(-1.,-4.00080369234291E-16,0.));
#1085=DIRECTION('',(1.,4.00080369234291E-16,0.));
#1086=DIRECTION('',(0.,0.,-1.));
#1087=DIRECTION('',(-1.,-4.00080369234291E-16,0.));
#1088=DIRECTION('',(0.,0.,1.));
#1089=DIRECTION('center_axis',(1.40186826668194E-16,-0.707106781186548,
-0.707106781186547));
#1090=DIRECTION('ref_axis',(-1.,0.,-1.98254111540207E-16));
#1091=DIRECTION('',(1.,1.98254111540206E-16,0.));
#1092=DIRECTION('',(0.577350269189627,-0.577350269189625,0.577350269189625));
#1093=DIRECTION('',(-1.,-1.98254111540206E-16,0.));
#1094=DIRECTION('',(0.281084637714821,-0.678598344545847,0.678598344545847));
#1095=DIRECTION('center_axis',(0.5,-0.5,0.707106781186547));
#1096=DIRECTION('ref_axis',(0.816496580927726,0.,-0.577350269189626));
#1097=DIRECTION('',(-0.707106781186547,-0.707106781186548,0.));
#1098=DIRECTION('',(0.678598344545847,-0.28108463771482,-0.678598344545847));
#1099=DIRECTION('',(0.707106781186547,0.707106781186548,0.));
#1100=DIRECTION('',(0.281084637714821,-0.678598344545847,-0.678598344545847));
#1101=DIRECTION('center_axis',(0.577350269189626,-0.577350269189626,-0.577350269189626));
#1102=DIRECTION('ref_axis',(-0.707106781186548,0.,-0.707106781186547));
#1103=DIRECTION('',(3.92523114670944E-16,-0.707106781186547,0.707106781186548));
#1104=DIRECTION('',(-0.707106781186548,0.,-0.707106781186547));
#1105=DIRECTION('',(0.707106781186547,0.707106781186548,0.));
#1106=DIRECTION('center_axis',(0.707106781186547,1.30841038223648E-16,-0.707106781186548));
#1107=DIRECTION('ref_axis',(-0.707106781186548,0.,-0.707106781186547));
#1108=DIRECTION('',(1.85037170770859E-16,-1.,0.));
#1109=DIRECTION('',(-1.85037170770859E-16,1.,0.));
#1110=DIRECTION('',(0.678598344545847,-0.28108463771482,0.678598344545847));
#1111=DIRECTION('center_axis',(0.707106781186546,0.,-0.707106781186549));
#1112=DIRECTION('ref_axis',(-0.707106781186549,0.,-0.707106781186546));
#1113=DIRECTION('',(0.,1.,0.));
#1114=DIRECTION('',(0.678598344545848,-0.281084637714819,0.678598344545846));
#1115=DIRECTION('',(0.,-1.,0.));
#1116=DIRECTION('center_axis',(0.577350269189626,-0.577350269189626,0.577350269189626));
#1117=DIRECTION('ref_axis',(0.707106781186547,0.,-0.707106781186548));
#1118=DIRECTION('',(0.,0.707106781186547,0.707106781186548));
#1119=DIRECTION('',(-0.707106781186547,-0.707106781186548,0.));
#1120=DIRECTION('',(0.707106781186547,0.,-0.707106781186548));
#1121=DIRECTION('center_axis',(0.707106781186548,-0.707106781186547,0.));
#1122=DIRECTION('ref_axis',(0.,0.,-1.));
#1123=DIRECTION('',(0.,0.,-1.));
#1124=DIRECTION('',(0.,0.,1.));
#1125=DIRECTION('center_axis',(0.707106781186548,1.30841038223648E-16,0.707106781186547));
#1126=DIRECTION('ref_axis',(0.707106781186547,0.,-0.707106781186548));
#1127=DIRECTION('',(1.85037170770859E-16,-1.,0.));
#1128=DIRECTION('',(-1.85037170770859E-16,1.,0.));
#1129=DIRECTION('center_axis',(-0.577350269189626,-0.577350269189626,-0.577350269189626));
#1130=DIRECTION('ref_axis',(-0.707106781186548,0.,0.707106781186547));
#1131=DIRECTION('',(0.707106781186548,-0.707106781186547,0.));
#1132=DIRECTION('',(-0.707106781186548,0.,0.707106781186547));
#1133=DIRECTION('',(7.85046229341888E-16,0.707106781186547,-0.707106781186548));
#1134=DIRECTION('center_axis',(0.5,-0.5,-0.707106781186548));
#1135=DIRECTION('ref_axis',(-0.816496580927727,0.,-0.577350269189625));
#1136=DIRECTION('',(0.707106781186548,0.707106781186548,0.));
#1137=DIRECTION('',(0.678598344545847,-0.281084637714821,0.678598344545847));
#1138=DIRECTION('',(-0.707106781186548,-0.707106781186548,0.));
#1139=DIRECTION('center_axis',(-0.577350269189626,-0.577350269189626,0.577350269189625));
#1140=DIRECTION('ref_axis',(0.707106781186547,0.,0.707106781186548));
#1141=DIRECTION('',(0.707106781186547,0.,0.707106781186548));
#1142=DIRECTION('',(-0.707106781186548,0.707106781186547,0.));
#1143=DIRECTION('',(3.92523114670944E-16,-0.707106781186547,-0.707106781186548));
#1144=DIRECTION('center_axis',(-0.707106781186547,-0.707106781186548,0.));
#1145=DIRECTION('ref_axis',(0.,0.,1.));
#1146=DIRECTION('',(0.,0.,-1.));
#1147=DIRECTION('',(0.,0.,1.));
#1148=DIRECTION('center_axis',(0.,-0.707106781186548,0.707106781186547));
#1149=DIRECTION('ref_axis',(1.,0.,0.));
#1150=DIRECTION('',(-1.,0.,0.));
#1151=DIRECTION('',(1.,0.,0.));
#1152=DIRECTION('center_axis',(-0.577350269189626,0.577350269189625,-0.577350269189627));
#1153=DIRECTION('ref_axis',(-0.707106781186548,0.,0.707106781186547));
#1154=DIRECTION('',(-0.707106781186547,-0.707106781186548,0.));
#1155=DIRECTION('',(-1.57009245868377E-15,0.707106781186548,0.707106781186547));
#1156=DIRECTION('',(0.707106781186548,0.,-0.707106781186547));
#1157=DIRECTION('center_axis',(0.577350269189626,0.577350269189626,-0.577350269189626));
#1158=DIRECTION('ref_axis',(-0.707106781186548,0.,-0.707106781186547));
#1159=DIRECTION('',(-0.707106781186547,0.707106781186547,0.));
#1160=DIRECTION('',(0.707106781186548,0.,0.707106781186547));
#1161=DIRECTION('',(0.,-0.707106781186548,-0.707106781186547));
#1162=DIRECTION('center_axis',(0.707106781186547,0.,-0.707106781186548));
#1163=DIRECTION('ref_axis',(-0.707106781186548,0.,-0.707106781186547));
#1164=DIRECTION('',(0.,1.,0.));
#1165=DIRECTION('',(0.,-1.,0.));
#1166=DIRECTION('center_axis',(-2.82899542105185E-16,0.707106781186547,
-0.707106781186548));
#1167=DIRECTION('ref_axis',(-1.,0.,4.0008036923429E-16));
#1168=DIRECTION('',(-1.,-4.00080369234291E-16,0.));
#1169=DIRECTION('center_axis',(-0.577350269189626,0.577350269189626,0.577350269189626));
#1170=DIRECTION('ref_axis',(0.707106781186547,0.,0.707106781186548));
#1171=DIRECTION('',(0.,-0.707106781186547,0.707106781186547));
#1172=DIRECTION('',(0.707106781186547,0.707106781186548,0.));
#1173=DIRECTION('',(-0.707106781186547,0.,-0.707106781186548));
#1174=DIRECTION('center_axis',(-0.707106781186548,0.707106781186547,0.));
#1175=DIRECTION('ref_axis',(0.,0.,1.));
#1176=DIRECTION('',(0.,0.,1.));
#1177=DIRECTION('center_axis',(-0.707106781186548,-2.09345661157837E-16,
0.707106781186547));
#1178=DIRECTION('ref_axis',(0.707106781186547,0.,0.707106781186548));
#1179=DIRECTION('',(-2.96059473233375E-16,1.,0.));
#1180=DIRECTION('',(2.96059473233375E-16,-1.,0.));
#1181=DIRECTION('center_axis',(0.577350269189626,0.577350269189626,0.577350269189626));
#1182=DIRECTION('ref_axis',(0.707106781186547,0.,-0.707106781186547));
#1183=DIRECTION('',(-0.707106781186547,0.,0.707106781186547));
#1184=DIRECTION('',(0.707106781186547,-0.707106781186547,0.));
#1185=DIRECTION('',(0.,0.707106781186547,-0.707106781186547));
#1186=DIRECTION('center_axis',(0.707106781186548,0.707106781186548,0.));
#1187=DIRECTION('ref_axis',(0.,0.,-1.));
#1188=DIRECTION('',(0.,0.,-1.));
#1189=DIRECTION('center_axis',(-2.82899542105185E-16,0.707106781186548,
0.707106781186548));
#1190=DIRECTION('ref_axis',(1.,0.,4.00080369234291E-16));
#1191=DIRECTION('',(1.,4.00080369234291E-16,0.));
#1192=DIRECTION('center_axis',(0.707106781186548,0.,0.707106781186548));
#1193=DIRECTION('ref_axis',(0.707106781186548,0.,-0.707106781186548));
#1194=DIRECTION('',(0.,1.,0.));
#1195=DIRECTION('',(0.,-1.,0.));
#1196=DIRECTION('',(0.678598344545847,-0.28108463771482,-0.678598344545847));
#1197=DIRECTION('center_axis',(0.5,-0.5,0.707106781186548));
#1198=DIRECTION('ref_axis',(0.816496580927726,0.,-0.577350269189625));
#1199=DIRECTION('',(0.707106781186548,0.707106781186548,0.));
#1200=DIRECTION('',(-0.707106781186548,-0.707106781186548,0.));
#1201=DIRECTION('',(0.678598344545847,-0.281084637714821,-0.678598344545847));
#1202=DIRECTION('center_axis',(-0.707106781186547,-2.09345661157837E-16,
-0.707106781186548));
#1203=DIRECTION('ref_axis',(-0.707106781186548,0.,0.707106781186547));
#1204=DIRECTION('',(-2.96059473233375E-16,1.,0.));
#1205=DIRECTION('',(2.96059473233375E-16,-1.,0.));
#1206=DIRECTION('center_axis',(0.707106781186548,0.,0.707106781186548));
#1207=DIRECTION('ref_axis',(0.707106781186548,0.,-0.707106781186548));
#1208=DIRECTION('',(0.,1.,0.));
#1209=DIRECTION('',(0.,-1.,0.));
#1210=DIRECTION('',(0.577350269189626,-0.577350269189625,-0.577350269189626));
#1211=DIRECTION('center_axis',(0.,-0.707106781186548,-0.707106781186547));
#1212=DIRECTION('ref_axis',(-1.,0.,0.));
#1213=DIRECTION('',(-1.,0.,0.));
#1214=DIRECTION('',(1.,0.,0.));
#1215=DIRECTION('center_axis',(1.40186826668194E-16,-0.707106781186548,
0.707106781186547));
#1216=DIRECTION('ref_axis',(1.,0.,-1.98254111540207E-16));
#1217=DIRECTION('',(1.,1.98254111540206E-16,0.));
#1218=DIRECTION('',(-1.,-1.98254111540206E-16,0.));
#1219=DIRECTION('center_axis',(0.5,-0.5,-0.707106781186548));
#1220=DIRECTION('ref_axis',(-0.816496580927726,0.,-0.577350269189626));
#1221=DIRECTION('',(-0.707106781186547,-0.707106781186548,0.));
#1222=DIRECTION('',(0.707106781186547,0.707106781186548,0.));
#1223=DIRECTION('center_axis',(0.707106781186548,-0.707106781186548,0.));
#1224=DIRECTION('ref_axis',(0.707106781186548,0.707106781186548,0.));
#1225=DIRECTION('',(0.,0.,1.));
#1226=DIRECTION('',(0.,0.,1.));
#1227=DIRECTION('center_axis',(1.,0.,0.));
#1228=DIRECTION('ref_axis',(0.,1.,0.));
#1229=DIRECTION('',(0.,0.,1.));
#1230=DIRECTION('center_axis',(1.,1.85037170770859E-16,0.));
#1231=DIRECTION('ref_axis',(-1.85037170770859E-16,1.,0.));
#1232=DIRECTION('',(0.,0.,1.));
#1233=DIRECTION('center_axis',(1.98254111540206E-16,-1.,0.));
#1234=DIRECTION('ref_axis',(1.,1.98254111540206E-16,0.));
#1235=DIRECTION('',(0.,0.,1.));
#1236=DIRECTION('',(-1.,-1.98254111540206E-16,-3.70074341541719E-16));
#1237=DIRECTION('center_axis',(-1.98254111540206E-16,1.,0.));
#1238=DIRECTION('ref_axis',(0.,0.,-1.));
#1239=DIRECTION('',(1.,1.98254111540206E-16,0.));
#1240=DIRECTION('center_axis',(-1.98254111540206E-16,1.,0.));
#1241=DIRECTION('ref_axis',(0.,0.,1.));
#1242=DIRECTION('center_axis',(0.707106781186548,-0.707106781186547,0.));
#1243=DIRECTION('ref_axis',(0.707106781186547,0.707106781186548,0.));
#1244=DIRECTION('center_axis',(0.,0.,1.));
#1245=DIRECTION('ref_axis',(1.,0.,0.));
#1246=DIRECTION('center_axis',(0.,0.,1.));
#1247=DIRECTION('ref_axis',(1.,0.,0.));
#1248=DIRECTION('center_axis',(0.,-1.,0.));
#1249=DIRECTION('ref_axis',(1.,0.,0.));
#1250=DIRECTION('center_axis',(-1.,-2.96059473233375E-16,0.));
#1251=DIRECTION('ref_axis',(2.96059473233375E-16,-1.,0.));
#1252=DIRECTION('',(-2.96059473233375E-16,1.,0.));
#1253=DIRECTION('',(0.,0.,1.));
#1254=DIRECTION('',(2.96059473233375E-16,-1.,0.));
#1255=DIRECTION('',(0.,0.,-1.));
#1256=DIRECTION('center_axis',(-0.707106781186548,-2.09345661157837E-16,
-0.707106781186547));
#1257=DIRECTION('ref_axis',(-0.707106781186547,0.,0.707106781186548));
#1258=DIRECTION('',(0.577350269189625,-0.577350269189626,-0.577350269189626));
#1259=DIRECTION('',(2.96059473233375E-16,-1.,0.));
#1260=DIRECTION('',(-0.577350269189626,-0.577350269189626,0.577350269189626));
#1261=DIRECTION('center_axis',(-0.707106781186548,-0.707106781186547,0.));
#1262=DIRECTION('ref_axis',(0.,0.,1.));
#1263=DIRECTION('',(0.577350269189626,-0.577350269189626,0.577350269189626));
#1264=DIRECTION('',(0.,0.,1.));
#1265=DIRECTION('center_axis',(-0.707106781186548,-2.09345661157837E-16,
0.707106781186547));
#1266=DIRECTION('ref_axis',(0.707106781186547,0.,0.707106781186548));
#1267=DIRECTION('',(-2.96059473233375E-16,1.,0.));
#1268=DIRECTION('',(0.577350269189626,0.577350269189626,0.577350269189626));
#1269=DIRECTION('center_axis',(-0.707106781186547,0.707106781186548,0.));
#1270=DIRECTION('ref_axis',(0.,0.,1.));
#1271=DIRECTION('',(0.,0.,-1.));
#1272=DIRECTION('center_axis',(1.,5.55111512312578E-16,0.));
#1273=DIRECTION('ref_axis',(0.,0.,-1.));
#1274=DIRECTION('center_axis',(0.,0.,-1.));
#1275=DIRECTION('ref_axis',(1.,4.00080369234291E-16,0.));
#1276=DIRECTION('',(5.55111512312578E-16,-1.,0.));
#1277=DIRECTION('',(1.,4.00080369234291E-16,0.));
#1278=DIRECTION('center_axis',(5.55111512312578E-16,-1.,0.));
#1279=DIRECTION('ref_axis',(0.,0.,-1.));
#1280=DIRECTION('center_axis',(4.00080369234291E-16,-1.,0.));
#1281=DIRECTION('ref_axis',(0.,0.,-1.));
#1282=DIRECTION('center_axis',(-4.00080369234291E-16,1.,0.));
#1283=DIRECTION('ref_axis',(0.,0.,1.));
#1284=DIRECTION('',(1.,4.00080369234291E-16,0.));
#1285=DIRECTION('center_axis',(-4.00080369234291E-16,1.,0.));
#1286=DIRECTION('ref_axis',(0.,0.,-1.));
#1287=DIRECTION('',(-1.,-4.00080369234291E-16,-3.70074341541719E-16));
#1288=DIRECTION('center_axis',(-4.00080369234291E-16,1.,0.));
#1289=DIRECTION('ref_axis',(0.,0.,1.));
#1290=DIRECTION('center_axis',(3.70074341541719E-16,1.46085352818706E-31,
-1.));
#1291=DIRECTION('ref_axis',(1.,4.00080369234291E-16,3.70074341541719E-16));
#1292=DIRECTION('',(3.94745964311167E-16,-1.,0.));
#1293=DIRECTION('',(3.94745964311167E-16,-1.,0.));
#1294=DIRECTION('center_axis',(3.94745964311167E-16,-1.,0.));
#1295=DIRECTION('ref_axis',(0.,0.,-1.));
#1296=DIRECTION('',(3.94745964311167E-16,-1.,0.));
#1297=DIRECTION('center_axis',(0.,0.,1.));
#1298=DIRECTION('ref_axis',(-1.,-4.00080369234291E-16,0.));
#1299=DIRECTION('',(3.94745964311167E-16,-1.,0.));
#1300=DIRECTION('center_axis',(3.94745964311167E-16,-1.,0.));
#1301=DIRECTION('ref_axis',(0.,0.,1.));
#1302=DIRECTION('center_axis',(1.,0.,0.));
#1303=DIRECTION('ref_axis',(0.,1.,0.));
#1304=CARTESIAN_POINT('',(0.,0.,0.));
#1305=CARTESIAN_POINT('Origin',(0.594488188976378,0.570866141732283,0.393700787401575));
#1306=CARTESIAN_POINT('',(0.594488188976378,0.551181102362205,0.551200787401575));
#1307=CARTESIAN_POINT('',(0.594488188976378,0.590551181102362,0.590570866141732));
#1308=CARTESIAN_POINT('',(0.594488188976378,0.551181102362205,0.551200787401575));
#1309=CARTESIAN_POINT('',(0.594488188976378,0.590551181102362,0.196830708661417));
#1310=CARTESIAN_POINT('Origin',(0.594488188976378,0.590551181102362,0.393700787401575));
#1311=CARTESIAN_POINT('',(0.594488188976378,0.551181102362205,0.236200787401575));
#1312=CARTESIAN_POINT('',(0.594488188976378,0.590551181102362,0.196830708661417));
#1313=CARTESIAN_POINT('Origin',(0.594488188976378,0.551181102362205,0.393700787401575));
#1314=CARTESIAN_POINT('Origin',(0.734251968503937,0.570866141732284,0.570885826771654));
#1315=CARTESIAN_POINT('',(0.476377952755905,0.551181102362205,0.551200787401575));
#1316=CARTESIAN_POINT('',(0.476377952755905,0.590551181102362,0.590570866141732));
#1317=CARTESIAN_POINT('',(0.476377952755905,0.551181102362205,0.551200787401575));
#1318=CARTESIAN_POINT('',(0.734251968503937,0.590551181102362,0.590570866141732));
#1319=CARTESIAN_POINT('',(0.734251968503937,0.551181102362205,0.551200787401575));
#1320=CARTESIAN_POINT('Origin',(0.476377952755905,0.570866141732283,0.393700787401575));
#1321=CARTESIAN_POINT('',(0.476377952755905,0.551181102362205,0.236200787401575));
#1322=CARTESIAN_POINT('',(0.476377952755905,0.590551181102362,0.196830708661417));
#1323=CARTESIAN_POINT('',(0.476377952755905,0.551181102362205,0.236200787401575));
#1324=CARTESIAN_POINT('Origin',(0.476377952755905,0.590551181102362,0.393700787401575));
#1325=CARTESIAN_POINT('Origin',(0.476377952755905,0.551181102362205,0.393700787401575));
#1326=CARTESIAN_POINT('Origin',(0.675196850393701,0.570866141732284,0.216515748031496));
#1327=CARTESIAN_POINT('',(0.675196850393701,0.590551181102362,0.196830708661417));
#1328=CARTESIAN_POINT('',(0.675196850393701,0.551181102362205,0.236200787401575));
#1329=CARTESIAN_POINT('Origin',(0.594488188976378,0.590551181102362,0.551200787401575));
#1330=CARTESIAN_POINT('',(0.594488188976378,0.433070866141732,0.551200787401575));
#1331=CARTESIAN_POINT('',(0.594488188976378,0.590551181102362,0.551200787401575));
#1332=CARTESIAN_POINT('',(0.476377952755905,0.433070866141732,0.551200787401575));
#1333=CARTESIAN_POINT('',(0.476377952755905,0.433070866141732,0.551200787401575));
#1334=CARTESIAN_POINT('',(0.476377952755905,0.590551181102362,0.551200787401575));
#1335=CARTESIAN_POINT('Origin',(0.594488188976378,0.590551181102362,0.393700787401575));
#1336=CARTESIAN_POINT('',(0.594488188976378,0.433070866141732,0.236200787401575));
#1337=CARTESIAN_POINT('',(0.594488188976378,0.590551181102362,0.236200787401575));
#1338=CARTESIAN_POINT('Origin',(0.594488188976378,0.433070866141732,0.393700787401575));
#1339=CARTESIAN_POINT('Origin',(0.874015748031496,0.590551181102362,0.));
#1340=CARTESIAN_POINT('',(0.0393700787401573,0.590551181102362,0.0393700787401575));
#1341=CARTESIAN_POINT('',(0.834645669291339,0.590551181102362,0.0393700787401575));
#1342=CARTESIAN_POINT('',(0.655511811023622,0.590551181102362,0.0393700787401575));
#1343=CARTESIAN_POINT('',(0.0393700787401573,0.590551181102362,0.748031496062992));
#1344=CARTESIAN_POINT('',(0.0393700787401573,0.590551181102362,0.));
#1345=CARTESIAN_POINT('',(0.834645669291339,0.590551181102362,0.748031496062992));
#1346=CARTESIAN_POINT('',(0.655511811023622,0.590551181102362,0.748031496062992));
#1347=CARTESIAN_POINT('',(0.834645669291339,0.590551181102362,0.));
#1348=CARTESIAN_POINT('Origin',(0.375984251968504,0.255905511811024,0.0196850393700787));
#1349=CARTESIAN_POINT('',(0.29865300935539,0.275590551181102,0.));
#1350=CARTESIAN_POINT('',(0.716535433070866,0.275590551181102,0.));
#1351=CARTESIAN_POINT('',(0.375984251968504,0.275590551181102,0.));
#1352=CARTESIAN_POINT('',(0.755905511811024,0.236220472440945,0.0393700787401575));
#1353=CARTESIAN_POINT('',(0.716535433070866,0.275590551181102,0.));
#1354=CARTESIAN_POINT('',(0.31496062992126,0.236220472440945,0.0393700787401575));
#1355=CARTESIAN_POINT('',(0.375984251968504,0.236220472440945,0.0393700787401575));
#1356=CARTESIAN_POINT('',(0.29865300935539,0.275590551181102,0.));
#1357=CARTESIAN_POINT('Origin',(0.287261677535698,0.236360369708397,0.767716535433071));
#1358=CARTESIAN_POINT('',(0.29865300935539,0.275590551181102,0.78740157480315));
#1359=CARTESIAN_POINT('',(0.15748031496063,0.134417856786342,0.78740157480315));
#1360=CARTESIAN_POINT('',(0.273342252709191,0.250279794534903,0.78740157480315));
#1361=CARTESIAN_POINT('',(0.196850393700787,0.118110236220472,0.748031496062992));
#1362=CARTESIAN_POINT('',(0.15748031496063,0.134417856786342,0.78740157480315));
#1363=CARTESIAN_POINT('',(0.31496062992126,0.236220472440945,0.748031496062992));
#1364=CARTESIAN_POINT('',(0.301181102362205,0.22244094488189,0.748031496062992));
#1365=CARTESIAN_POINT('',(0.29865300935539,0.275590551181102,0.78740157480315));
#1366=CARTESIAN_POINT('Origin',(0.196850393700787,0.0393700787401575,0.0393700787401575));
#1367=CARTESIAN_POINT('',(0.15748031496063,0.0393700787401575,0.));
#1368=CARTESIAN_POINT('',(0.15748031496063,0.,0.0393700787401575));
#1369=CARTESIAN_POINT('',(0.15748031496063,0.0393700787401575,0.));
#1370=CARTESIAN_POINT('',(0.196850393700787,0.0393700787401575,0.0393700787401575));
#1371=CARTESIAN_POINT('',(0.196850393700787,0.0393700787401575,0.0393700787401575));
#1372=CARTESIAN_POINT('',(0.15748031496063,0.,0.0393700787401575));
#1373=CARTESIAN_POINT('Origin',(0.177165354330709,0.147637795275591,0.0196850393700787));
#1374=CARTESIAN_POINT('',(0.196850393700787,0.118110236220472,0.0393700787401575));
#1375=CARTESIAN_POINT('',(0.196850393700787,0.147637795275591,0.0393700787401575));
#1376=CARTESIAN_POINT('',(0.15748031496063,0.134417856786342,0.));
#1377=CARTESIAN_POINT('',(0.15748031496063,0.147637795275591,0.));
#1378=CARTESIAN_POINT('',(0.15748031496063,0.134417856786342,0.));
#1379=CARTESIAN_POINT('Origin',(0.736220472440945,0.265748031496063,0.0196850393700787));
#1380=CARTESIAN_POINT('',(0.716535433070866,0.370638329227287,0.));
#1381=CARTESIAN_POINT('',(0.716535433070866,0.265748031496063,0.));
#1382=CARTESIAN_POINT('',(0.755905511811024,0.354330708661418,0.0393700787401575));
#1383=CARTESIAN_POINT('',(0.716535433070866,0.370638329227287,0.));
#1384=CARTESIAN_POINT('',(0.755905511811024,0.265748031496063,0.0393700787401575));
#1385=CARTESIAN_POINT('Origin',(0.196850393700787,0.0393700787401575,0.748031496062992));
#1386=CARTESIAN_POINT('',(0.15748031496063,0.,0.748031496062992));
#1387=CARTESIAN_POINT('',(0.15748031496063,0.0393700787401575,0.78740157480315));
#1388=CARTESIAN_POINT('',(0.15748031496063,0.,0.748031496062992));
#1389=CARTESIAN_POINT('',(0.196850393700787,0.0393700787401575,0.748031496062992));
#1390=CARTESIAN_POINT('',(0.196850393700787,0.0393700787401575,0.748031496062992));
#1391=CARTESIAN_POINT('',(0.15748031496063,0.0393700787401575,0.78740157480315));
#1392=CARTESIAN_POINT('Origin',(0.177165354330709,0.0196850393700787,0.));
#1393=CARTESIAN_POINT('',(0.15748031496063,0.,0.));
#1394=CARTESIAN_POINT('',(0.196850393700787,0.0393700787401575,0.));
#1395=CARTESIAN_POINT('Origin',(0.177165354330709,0.147637795275591,0.767716535433071));
#1396=CARTESIAN_POINT('',(0.15748031496063,0.147637795275591,0.78740157480315));
#1397=CARTESIAN_POINT('',(0.196850393700787,0.147637795275591,0.748031496062992));
#1398=CARTESIAN_POINT('Origin',(0.0393700787401575,0.0393700787401574,0.));
#1399=CARTESIAN_POINT('',(-1.16558847729675E-17,0.0393700787401574,0.0393700787401575));
#1400=CARTESIAN_POINT('',(0.0393700787401575,0.,0.0393700787401575));
#1401=CARTESIAN_POINT('',(-1.09273919746571E-17,0.0393700787401575,0.0393700787401575));
#1402=CARTESIAN_POINT('',(0.0393700787401575,0.0393700787401575,0.));
#1403=CARTESIAN_POINT('',(0.0393700787401575,0.0393700787401574,0.));
#1404=CARTESIAN_POINT('',(0.0393700787401575,0.,0.0393700787401575));
#1405=CARTESIAN_POINT('Origin',(0.647497898008139,0.273761944511546,0.0196850393700787));
#1406=CARTESIAN_POINT('',(0.834645669291339,0.48874856544776,0.));
#1407=CARTESIAN_POINT('',(0.633578473181632,0.287681369338053,0.));
#1408=CARTESIAN_POINT('',(0.874015748031496,0.47244094488189,0.0393700787401575));
#1409=CARTESIAN_POINT('',(0.834645669291339,0.48874856544776,0.));
#1410=CARTESIAN_POINT('',(0.661417322834646,0.25984251968504,0.0393700787401575));
#1411=CARTESIAN_POINT('Origin',(0.0393700787401575,0.,0.748031496062992));
#1412=CARTESIAN_POINT('',(-1.09273919746571E-17,0.0393700787401575,0.748031496062992));
#1413=CARTESIAN_POINT('',(0.0393700787401575,0.0393700787401574,0.78740157480315));
#1414=CARTESIAN_POINT('',(-1.16558847729675E-17,0.0393700787401574,0.748031496062992));
#1415=CARTESIAN_POINT('',(0.0393700787401575,0.,0.748031496062992));
#1416=CARTESIAN_POINT('',(0.0393700787401575,0.,0.748031496062992));
#1417=CARTESIAN_POINT('',(0.0393700787401574,0.0393700787401575,0.78740157480315));
#1418=CARTESIAN_POINT('Origin',(0.0196850393700787,0.0196850393700787,0.));
#1419=CARTESIAN_POINT('',(-1.09273919746571E-17,0.0393700787401575,0.));
#1420=CARTESIAN_POINT('',(0.0393700787401575,0.,0.));
#1421=CARTESIAN_POINT('Origin',(0.218503937007874,0.0196850393700787,0.767716535433071));
#1422=CARTESIAN_POINT('',(0.218503937007874,0.0393700787401575,0.78740157480315));
#1423=CARTESIAN_POINT('',(0.218503937007874,0.,0.748031496062992));
#1424=CARTESIAN_POINT('Origin',(0.0393700787401574,0.551181102362205,0.));
#1425=CARTESIAN_POINT('',(-1.63910879619856E-16,0.551181102362205,0.0393700787401575));
#1426=CARTESIAN_POINT('',(0.0393700787401573,0.590551181102362,0.0393700787401575));
#1427=CARTESIAN_POINT('',(0.0393700787401573,0.551181102362205,0.));
#1428=CARTESIAN_POINT('',(0.0393700787401574,0.551181102362205,0.));
#1429=CARTESIAN_POINT('',(-1.63182386821545E-16,0.551181102362205,0.0393700787401575));
#1430=CARTESIAN_POINT('Origin',(0.834645669291339,0.551181102362205,0.));
#1431=CARTESIAN_POINT('',(0.874015748031496,0.551181102362205,0.0393700787401575));
#1432=CARTESIAN_POINT('',(0.874015748031496,0.551181102362205,0.0393700787401575));
#1433=CARTESIAN_POINT('',(0.834645669291339,0.551181102362205,0.));
#1434=CARTESIAN_POINT('',(0.834645669291339,0.551181102362205,0.));
#1435=CARTESIAN_POINT('',(0.834645669291339,0.590551181102362,0.0393700787401575));
#1436=CARTESIAN_POINT('Origin',(0.854330708661417,0.383858267716536,0.0196850393700787));
#1437=CARTESIAN_POINT('',(0.834645669291339,0.383858267716536,0.));
#1438=CARTESIAN_POINT('',(0.874015748031496,0.383858267716536,0.0393700787401575));
#1439=CARTESIAN_POINT('Origin',(0.655511811023622,0.570866141732284,0.0196850393700787));
#1440=CARTESIAN_POINT('',(0.655511811023622,0.551181102362205,0.));
#1441=CARTESIAN_POINT('Origin',(-1.63910879619856E-16,0.551181102362205,
0.748031496062992));
#1442=CARTESIAN_POINT('',(0.0393700787401573,0.551181102362205,0.78740157480315));
#1443=CARTESIAN_POINT('',(0.0393700787401573,0.590551181102362,0.748031496062992));
#1444=CARTESIAN_POINT('',(-1.63182386821545E-16,0.551181102362205,0.748031496062992));
#1445=CARTESIAN_POINT('',(-1.63910879619856E-16,0.551181102362205,0.748031496062992));
#1446=CARTESIAN_POINT('',(0.0393700787401573,0.551181102362205,0.78740157480315));
#1447=CARTESIAN_POINT('Origin',(0.0196850393700786,0.570866141732283,0.));
#1448=CARTESIAN_POINT('',(-1.63910879619856E-16,0.551181102362205,0.));
#1449=CARTESIAN_POINT('Origin',(0.0196850393700786,0.442913385826772,0.767716535433071));
#1450=CARTESIAN_POINT('',(0.0393700787401573,0.442913385826772,0.78740157480315));
#1451=CARTESIAN_POINT('',(-1.31128703695885E-16,0.442913385826772,0.748031496062992));
#1452=CARTESIAN_POINT('Origin',(0.834645669291339,0.590551181102362,0.748031496062992));
#1453=CARTESIAN_POINT('',(0.874015748031496,0.551181102362205,0.748031496062992));
#1454=CARTESIAN_POINT('',(0.834645669291339,0.551181102362205,0.78740157480315));
#1455=CARTESIAN_POINT('',(0.874015748031496,0.551181102362205,0.748031496062992));
#1456=CARTESIAN_POINT('',(0.834645669291339,0.590551181102362,0.748031496062992));
#1457=CARTESIAN_POINT('',(0.834645669291339,0.551181102362205,0.78740157480315));
#1458=CARTESIAN_POINT('Origin',(0.854330708661417,0.570866141732284,0.));
#1459=CARTESIAN_POINT('',(0.874015748031496,0.551181102362205,0.));
#1460=CARTESIAN_POINT('Origin',(0.655511811023622,0.570866141732284,0.767716535433071));
#1461=CARTESIAN_POINT('',(0.655511811023622,0.551181102362205,0.78740157480315));
#1462=CARTESIAN_POINT('Origin',(0.854330708661417,0.383858267716536,0.767716535433071));
#1463=CARTESIAN_POINT('',(0.874015748031496,0.47244094488189,0.748031496062992));
#1464=CARTESIAN_POINT('',(0.874015748031496,0.383858267716536,0.748031496062992));
#1465=CARTESIAN_POINT('',(0.834645669291339,0.48874856544776,0.78740157480315));
#1466=CARTESIAN_POINT('',(0.834645669291339,0.383858267716536,0.78740157480315));
#1467=CARTESIAN_POINT('',(0.834645669291339,0.48874856544776,0.78740157480315));
#1468=CARTESIAN_POINT('Origin',(0.647497898008139,0.273761944511546,0.767716535433071));
#1469=CARTESIAN_POINT('',(0.755905511811024,0.354330708661418,0.748031496062992));
#1470=CARTESIAN_POINT('',(0.661417322834646,0.25984251968504,0.748031496062992));
#1471=CARTESIAN_POINT('',(0.716535433070866,0.370638329227287,0.78740157480315));
#1472=CARTESIAN_POINT('',(0.633578473181632,0.287681369338053,0.78740157480315));
#1473=CARTESIAN_POINT('',(0.716535433070866,0.370638329227287,0.78740157480315));
#1474=CARTESIAN_POINT('Origin',(0.0196850393700786,0.442913385826772,0.0196850393700787));
#1475=CARTESIAN_POINT('',(-1.31128703695885E-16,0.442913385826772,0.0393700787401575));
#1476=CARTESIAN_POINT('',(0.0393700787401574,0.442913385826772,0.));
#1477=CARTESIAN_POINT('Origin',(0.736220472440945,0.265748031496063,0.767716535433071));
#1478=CARTESIAN_POINT('',(0.755905511811024,0.236220472440945,0.748031496062992));
#1479=CARTESIAN_POINT('',(0.755905511811024,0.265748031496063,0.748031496062992));
#1480=CARTESIAN_POINT('',(0.716535433070866,0.275590551181102,0.78740157480315));
#1481=CARTESIAN_POINT('',(0.716535433070866,0.265748031496063,0.78740157480315));
#1482=CARTESIAN_POINT('',(0.716535433070866,0.275590551181102,0.78740157480315));
#1483=CARTESIAN_POINT('Origin',(0.218503937007874,0.0196850393700787,0.0196850393700787));
#1484=CARTESIAN_POINT('',(0.218503937007874,0.,0.0393700787401575));
#1485=CARTESIAN_POINT('',(0.218503937007874,0.0393700787401575,0.));
#1486=CARTESIAN_POINT('Origin',(0.375984251968504,0.255905511811024,0.767716535433071));
#1487=CARTESIAN_POINT('',(0.375984251968504,0.236220472440945,0.748031496062992));
#1488=CARTESIAN_POINT('',(0.375984251968504,0.275590551181102,0.78740157480315));
#1489=CARTESIAN_POINT('Origin',(0.287261677535698,0.236360369708397,0.0196850393700787));
#1490=CARTESIAN_POINT('',(0.301181102362205,0.22244094488189,0.0393700787401575));
#1491=CARTESIAN_POINT('',(0.273342252709191,0.250279794534903,0.));
#1492=CARTESIAN_POINT('Origin',(0.755905511811024,0.354330708661418,0.));
#1493=CARTESIAN_POINT('',(0.755905511811024,0.354330708661418,0.));
#1494=CARTESIAN_POINT('',(0.874015748031496,0.47244094488189,0.));
#1495=CARTESIAN_POINT('Origin',(0.755905511811024,0.236220472440945,0.));
#1496=CARTESIAN_POINT('',(0.755905511811024,0.236220472440945,0.));
#1497=CARTESIAN_POINT('Origin',(0.196850393700787,0.,0.));
#1498=CARTESIAN_POINT('',(0.196850393700787,0.118110236220472,0.));
#1499=CARTESIAN_POINT('Origin',(0.31496062992126,0.236220472440945,0.));
#1500=CARTESIAN_POINT('',(0.31496062992126,0.236220472440945,0.));
#1501=CARTESIAN_POINT('',(0.594488188976378,0.236220472440945,0.311023622047244));
#1502=CARTESIAN_POINT('',(0.476377952755906,0.236220472440945,0.311023622047244));
#1503=CARTESIAN_POINT('',(0.395669291338583,0.236220472440945,0.311023622047244));
#1504=CARTESIAN_POINT('',(0.476377952755906,0.236220472440945,0.476377952755905));
#1505=CARTESIAN_POINT('Origin',(0.476377952755906,0.236220472440945,0.393700787401575));
#1506=CARTESIAN_POINT('',(0.594488188976378,0.236220472440945,0.476377952755905));
#1507=CARTESIAN_POINT('',(0.454724409448819,0.236220472440945,0.476377952755905));
#1508=CARTESIAN_POINT('Origin',(0.594488188976378,0.236220472440945,0.393700787401575));
#1509=CARTESIAN_POINT('Origin',(0.196850393700787,0.118110236220472,0.));
#1510=CARTESIAN_POINT('Origin',(0.437007874015748,0.295275590551181,0.78740157480315));
#1511=CARTESIAN_POINT('Origin',(0.437007874015748,0.295275590551181,0.));
#1512=CARTESIAN_POINT('Origin',(0.,0.,0.));
#1513=CARTESIAN_POINT('Origin',(-1.74838271594513E-16,0.590551181102362,
0.));
#1514=CARTESIAN_POINT('',(-2.42223855438231E-17,0.0787401574803148,0.708661417322835));
#1515=CARTESIAN_POINT('',(-1.50251639651534E-16,0.511811023622047,0.708661417322835));
#1516=CARTESIAN_POINT('',(-1.61179031626192E-16,0.541338582677165,0.708661417322835));
#1517=CARTESIAN_POINT('',(-2.45866319429784E-17,0.0787401574803149,0.0787401574803149));
#1518=CARTESIAN_POINT('',(-2.45866319429784E-17,0.0787401574803149,0.344488188976378));
#1519=CARTESIAN_POINT('',(-1.5061588605069E-16,0.511811023622047,0.0787401574803149));
#1520=CARTESIAN_POINT('',(-1.01078375765578E-16,0.344488188976378,0.0787401574803149));
#1521=CARTESIAN_POINT('',(-1.50251639651534E-16,0.511811023622047,0.0492125984251968));
#1522=CARTESIAN_POINT('Origin',(0.00984251968503921,0.541338582677165,0.698818897637795));
#1523=CARTESIAN_POINT('',(0.0196850393700786,0.492125984251968,0.688976377952756));
#1524=CARTESIAN_POINT('',(-1.50251639651534E-16,0.511811023622047,0.708661417322835));
#1525=CARTESIAN_POINT('',(0.0196850393700787,0.0984251968503936,0.688976377952756));
#1526=CARTESIAN_POINT('',(0.0196850393700787,0.0984251968503936,0.688976377952756));
#1527=CARTESIAN_POINT('',(0.0196850393700787,0.0984251968503936,0.688976377952756));
#1528=CARTESIAN_POINT('Origin',(0.00984251968503922,0.501968503937008,0.0492125984251968));
#1529=CARTESIAN_POINT('',(0.0196850393700786,0.492125984251968,0.0984251968503937));
#1530=CARTESIAN_POINT('',(-1.5061588605069E-16,0.511811023622047,0.0787401574803149));
#1531=CARTESIAN_POINT('',(0.0196850393700786,0.492125984251968,0.688976377952756));
#1532=CARTESIAN_POINT('Origin',(0.00984251968503927,0.344488188976378,0.0885826771653543));
#1533=CARTESIAN_POINT('',(0.0196850393700787,0.0984251968503936,0.0984251968503937));
#1534=CARTESIAN_POINT('',(0.0196850393700786,0.492125984251968,0.0984251968503937));
#1535=CARTESIAN_POINT('',(-2.45866319429784E-17,0.0787401574803149,0.0787401574803149));
#1536=CARTESIAN_POINT('Origin',(0.00984251968503934,0.0885826771653542,
0.344488188976378));
#1537=CARTESIAN_POINT('',(0.0196850393700787,0.0984251968503936,0.0984251968503937));
#1538=CARTESIAN_POINT('Origin',(0.0196850393700786,0.295275590551181,0.393700787401575));
#1539=CARTESIAN_POINT('Origin',(0.476377952755905,0.590551181102362,0.236200787401575));
#1540=CARTESIAN_POINT('',(0.476377952755905,0.433070866141732,0.236200787401575));
#1541=CARTESIAN_POINT('',(0.476377952755905,0.590551181102362,0.236200787401575));
#1542=CARTESIAN_POINT('',(0.594488188976378,0.433070866141732,0.236200787401575));
#1543=CARTESIAN_POINT('Origin',(0.476377952755905,0.590551181102362,0.393700787401575));
#1544=CARTESIAN_POINT('Origin',(0.476377952755905,0.433070866141732,0.393700787401575));
#1545=CARTESIAN_POINT('Origin',(0.535433070866142,0.433070866141732,0.393700787401575));
#1546=CARTESIAN_POINT('',(0.476377952755905,0.433070866141732,0.476377952755905));
#1547=CARTESIAN_POINT('',(0.594488188976378,0.433070866141732,0.476377952755905));
#1548=CARTESIAN_POINT('',(0.56496062992126,0.433070866141732,0.476377952755905));
#1549=CARTESIAN_POINT('',(0.476377952755905,0.433070866141732,0.311023622047244));
#1550=CARTESIAN_POINT('Origin',(0.476377952755905,0.433070866141732,0.393700787401575));
#1551=CARTESIAN_POINT('',(0.594488188976378,0.433070866141732,0.311023622047244));
#1552=CARTESIAN_POINT('',(0.505905511811024,0.433070866141732,0.311023622047244));
#1553=CARTESIAN_POINT('Origin',(0.594488188976378,0.433070866141732,0.393700787401575));
#1554=CARTESIAN_POINT('Origin',(0.476377952755905,0.590551181102362,0.311023622047244));
#1555=CARTESIAN_POINT('',(0.476377952755905,0.590551181102362,0.311023622047244));
#1556=CARTESIAN_POINT('',(0.594488188976378,0.590551181102362,0.311023622047244));
#1557=CARTESIAN_POINT('Origin',(0.476377952755905,0.590551181102362,0.393700787401575));
#1558=CARTESIAN_POINT('',(0.476377952755905,0.590551181102362,0.476377952755905));
#1559=CARTESIAN_POINT('Origin',(0.594488188976378,0.590551181102362,0.476377952755905));
#1560=CARTESIAN_POINT('',(0.594488188976378,0.590551181102362,0.476377952755905));
#1561=CARTESIAN_POINT('Origin',(0.594488188976378,0.590551181102362,0.393700787401575));
#1562=CARTESIAN_POINT('Origin',(0.874015748031496,0.47244094488189,0.));
#1563=UNCERTAINTY_MEASURE_WITH_UNIT(LENGTH_MEASURE(0.000393700787401575),
#1569,'DISTANCE_ACCURACY_VALUE',
'Maximum model space distance between geometric entities at asserted c
onnectivities');
#1564=UNCERTAINTY_MEASURE_WITH_UNIT(LENGTH_MEASURE(0.000393700787401575),
#1569,'DISTANCE_ACCURACY_VALUE',
'Maximum model space distance between geometric entities at asserted c
onnectivities');
#1565=(
GEOMETRIC_REPRESENTATION_CONTEXT(3)
GLOBAL_UNCERTAINTY_ASSIGNED_CONTEXT((#1563))
GLOBAL_UNIT_ASSIGNED_CONTEXT((#1569,#1573,#1574))
REPRESENTATION_CONTEXT('','3D')
);
#1566=(
GEOMETRIC_REPRESENTATION_CONTEXT(3)
GLOBAL_UNCERTAINTY_ASSIGNED_CONTEXT((#1564))
GLOBAL_UNIT_ASSIGNED_CONTEXT((#1569,#1573,#1574))
REPRESENTATION_CONTEXT('','3D')
);
#1567=DIMENSIONAL_EXPONENTS(1.,0.,0.,0.,0.,0.,0.);
#1568=DIMENSIONAL_EXPONENTS(0.,1.,0.,0.,0.,0.,0.);
#1569=(
CONVERSION_BASED_UNIT('inch',#1572)
LENGTH_UNIT()
NAMED_UNIT(#1567)
);
#1570=(
LENGTH_UNIT()
NAMED_UNIT(*)
SI_UNIT(.MILLI.,.METRE.)
);
#1571=(
LENGTH_UNIT()
NAMED_UNIT(*)
SI_UNIT(.CENTI.,.METRE.)
);
#1572=LENGTH_MEASURE_WITH_UNIT(LENGTH_MEASURE(25.4),#1570);
#1573=(
NAMED_UNIT(*)
PLANE_ANGLE_UNIT()
SI_UNIT($,.RADIAN.)
);
#1574=(
NAMED_UNIT(*)
SI_UNIT($,.STERADIAN.)
SOLID_ANGLE_UNIT()
);
#1575=SHAPE_DEFINITION_REPRESENTATION(#1576,#1577);
#1576=PRODUCT_DEFINITION_SHAPE('',$,#1579);
#1577=SHAPE_REPRESENTATION('',(#977),#1565);
#1578=PRODUCT_DEFINITION_CONTEXT('part definition',#1583,'design');
#1579=PRODUCT_DEFINITION('Moving Jaw (M4) Normal',
'Moving Jaw (M4) Normal',#1580,#1578);
#1580=PRODUCT_DEFINITION_FORMATION('',$,#1585);
#1581=PRODUCT_RELATED_PRODUCT_CATEGORY('Moving Jaw (M4) Normal',
'Moving Jaw (M4) Normal',(#1585));
#1582=APPLICATION_PROTOCOL_DEFINITION('international standard',
'automotive_design',2009,#1583);
#1583=APPLICATION_CONTEXT(
'Core Data for Automotive Mechanical Design Process');
#1584=PRODUCT_CONTEXT('part definition',#1583,'mechanical');
#1585=PRODUCT('Moving Jaw (M4) Normal','Moving Jaw (M4) Normal',$,(#1584));
#1586=PRESENTATION_STYLE_ASSIGNMENT((#1587));
#1587=SURFACE_STYLE_USAGE(.BOTH.,#1590);
#1588=SURFACE_STYLE_RENDERING_WITH_PROPERTIES($,#1594,(#1589));
#1589=SURFACE_STYLE_TRANSPARENT(0.);
#1590=SURFACE_SIDE_STYLE('',(#1591,#1588));
#1591=SURFACE_STYLE_FILL_AREA(#1592);
#1592=FILL_AREA_STYLE('',(#1593));
#1593=FILL_AREA_STYLE_COLOUR('',#1594);
#1594=COLOUR_RGB('',0.0196078431372549,0.0196078431372549,0.0196078431372549);
ENDSEC;
END-ISO-10303-21;
